<ttFont>
    <TTGlyph name=".notdef" xMin="150" yMin="0" xMax="1093" yMax="1510">
      <contour>
        <pt x="150" y="0" on="1"/>
        <pt x="499" y="1510" on="1"/>
        <pt x="1093" y="1510" on="1"/>
        <pt x="744" y="0" on="1"/>
      </contour>
      <contour>
        <pt x="589" y="1392" on="1"/>
        <pt x="295" y="118" on="1"/>
        <pt x="653" y="118" on="1"/>
        <pt x="947" y="1392" on="1"/>
      </contour>
    </TTGlyph>
    <TTGlyph name="A" xMin="171" yMin="-40" xMax="1515" yMax="1530">
      <contour>
        <pt x="171" y="-40" on="1"/>
        <pt x="354" y="755" on="1"/>
        <pt x="421" y="1046" on="0"/>
        <pt x="558" y="1222" on="1"/>
        <pt x="798" y="1530" on="0"/>
        <pt x="1095" y="1530" on="1"/>
        <pt x="1393" y="1530" on="0"/>
        <pt x="1490" y="1222" on="1"/>
        <pt x="1515" y="1143" on="0"/>
        <pt x="1515" y="1040" on="1"/>
        <pt x="1515" y="914" on="0"/>
        <pt x="1478" y="755" on="1"/>
        <pt x="1409" y="458" on="0"/>
        <pt x="1276" y="312" on="1"/>
        <pt x="1193" y="221" on="0"/>
        <pt x="1109" y="170" on="1"/>
        <pt x="1393" y="170" on="1"/>
        <pt x="1391" y="160" on="1"/>
        <pt x="1279" y="0" on="1"/>
        <pt x="726" y="0" on="1"/>
        <pt x="728" y="10" on="1"/>
        <pt x="840" y="170" on="1"/>
        <pt x="987" y="216" on="0"/>
        <pt x="1099" y="358" on="1"/>
        <pt x="1220" y="511" on="0"/>
        <pt x="1257" y="670" on="1"/>
        <pt x="535" y="670" on="1"/>
        <pt x="392" y="50" on="1"/>
        <pt x="181" y="-40" on="1"/>
      </contour>
      <contour>
        <pt x="576" y="840" on="1"/>
        <pt x="1296" y="840" on="1"/>
        <pt x="1314" y="942" on="0"/>
        <pt x="1314" y="1021" on="1"/>
        <pt x="1314" y="1091" on="0"/>
        <pt x="1300" y="1144" on="1"/>
        <pt x="1243" y="1360" on="0"/>
        <pt x="1056" y="1360" on="1"/>
        <pt x="868" y="1360" on="0"/>
        <pt x="712" y="1146" on="1"/>
        <pt x="631" y="1033" on="0"/>
      </contour>
    </TTGlyph>
    <TTGlyph name="AE" xMin="171" yMin="-40" xMax="2412" yMax="1530">
      <contour>
        <pt x="576" y="840" on="1"/>
        <pt x="1296" y="840" on="1"/>
        <pt x="1314" y="942" on="0"/>
        <pt x="1314" y="1021" on="1"/>
        <pt x="1314" y="1091" on="0"/>
        <pt x="1300" y="1144" on="1"/>
        <pt x="1243" y="1360" on="0"/>
        <pt x="1056" y="1360" on="1"/>
        <pt x="872" y="1360" on="0"/>
        <pt x="714" y="1145" on="1"/>
        <pt x="628" y="1028" on="0"/>
      </contour>
      <contour>
        <pt x="2307" y="474" on="1"/>
        <pt x="2267" y="380" on="0"/>
        <pt x="2196" y="288" on="1"/>
        <pt x="1959" y="-20" on="0"/>
        <pt x="1659" y="-20" on="1"/>
        <pt x="1365" y="-20" on="0"/>
        <pt x="1267" y="279" on="1"/>
        <pt x="1077" y="33" on="0"/>
        <pt x="847" y="-40" on="1"/>
        <pt x="837" y="-40" on="1"/>
        <pt x="796" y="109" on="1"/>
        <pt x="993" y="193" on="0"/>
        <pt x="1120" y="366" on="1"/>
        <pt x="1202" y="478" on="0"/>
        <pt x="1257" y="670" on="1"/>
        <pt x="535" y="670" on="1"/>
        <pt x="392" y="50" on="1"/>
        <pt x="181" y="-40" on="1"/>
        <pt x="171" y="-40" on="1"/>
        <pt x="354" y="755" on="1"/>
        <pt x="421" y="1046" on="0"/>
        <pt x="558" y="1222" on="1"/>
        <pt x="798" y="1530" on="0"/>
        <pt x="1095" y="1530" on="1"/>
        <pt x="1390" y="1530" on="0"/>
        <pt x="1487" y="1231" on="1"/>
        <pt x="1723" y="1530" on="0"/>
        <pt x="2017" y="1530" on="1"/>
        <pt x="2316" y="1530" on="0"/>
        <pt x="2412" y="1222" on="1"/>
        <pt x="2232" y="1144" on="1"/>
        <pt x="2222" y="1144" on="1"/>
        <pt x="2164" y="1360" on="0"/>
        <pt x="1792" y="1360" on="0"/>
        <pt x="1634" y="1144" on="1"/>
        <pt x="1553" y="1033" on="0"/>
        <pt x="1498" y="840" on="1"/>
        <pt x="2096" y="840" on="1"/>
        <pt x="2094" y="830" on="1"/>
        <pt x="1982" y="670" on="1"/>
        <pt x="1459" y="670" on="1"/>
        <pt x="1440" y="564" on="0"/>
        <pt x="1440" y="484" on="1"/>
        <pt x="1440" y="415" on="0"/>
        <pt x="1454" y="366" on="1"/>
        <pt x="1516" y="150" on="0"/>
        <pt x="1699" y="150" on="1"/>
        <pt x="1884" y="150" on="0"/>
        <pt x="2042" y="366" on="1"/>
        <pt x="2297" y="474" on="1"/>
      </contour>
    </TTGlyph>
    <TTGlyph name="AEacute" xMin="171" yMin="-40" xMax="2412" yMax="1966">
      <contour>
        <pt x="576" y="840" on="1"/>
        <pt x="1296" y="840" on="1"/>
        <pt x="1314" y="942" on="0"/>
        <pt x="1314" y="1021" on="1"/>
        <pt x="1314" y="1091" on="0"/>
        <pt x="1300" y="1144" on="1"/>
        <pt x="1243" y="1360" on="0"/>
        <pt x="1056" y="1360" on="1"/>
        <pt x="872" y="1360" on="0"/>
        <pt x="714" y="1145" on="1"/>
        <pt x="628" y="1028" on="0"/>
      </contour>
      <contour>
        <pt x="2307" y="474" on="1"/>
        <pt x="2267" y="380" on="0"/>
        <pt x="2196" y="288" on="1"/>
        <pt x="1959" y="-20" on="0"/>
        <pt x="1659" y="-20" on="1"/>
        <pt x="1365" y="-20" on="0"/>
        <pt x="1267" y="279" on="1"/>
        <pt x="1077" y="33" on="0"/>
        <pt x="847" y="-40" on="1"/>
        <pt x="837" y="-40" on="1"/>
        <pt x="796" y="109" on="1"/>
        <pt x="993" y="193" on="0"/>
        <pt x="1120" y="366" on="1"/>
        <pt x="1202" y="478" on="0"/>
        <pt x="1257" y="670" on="1"/>
        <pt x="535" y="670" on="1"/>
        <pt x="392" y="50" on="1"/>
        <pt x="181" y="-40" on="1"/>
        <pt x="171" y="-40" on="1"/>
        <pt x="354" y="755" on="1"/>
        <pt x="421" y="1046" on="0"/>
        <pt x="558" y="1222" on="1"/>
        <pt x="798" y="1530" on="0"/>
        <pt x="1095" y="1530" on="1"/>
        <pt x="1390" y="1530" on="0"/>
        <pt x="1487" y="1231" on="1"/>
        <pt x="1723" y="1530" on="0"/>
        <pt x="2017" y="1530" on="1"/>
        <pt x="2316" y="1530" on="0"/>
        <pt x="2412" y="1222" on="1"/>
        <pt x="2232" y="1144" on="1"/>
        <pt x="2222" y="1144" on="1"/>
        <pt x="2164" y="1360" on="0"/>
        <pt x="1792" y="1360" on="0"/>
        <pt x="1634" y="1144" on="1"/>
        <pt x="1553" y="1033" on="0"/>
        <pt x="1498" y="840" on="1"/>
        <pt x="2096" y="840" on="1"/>
        <pt x="2094" y="830" on="1"/>
        <pt x="1982" y="670" on="1"/>
        <pt x="1459" y="670" on="1"/>
        <pt x="1440" y="564" on="0"/>
        <pt x="1440" y="484" on="1"/>
        <pt x="1440" y="415" on="0"/>
        <pt x="1454" y="366" on="1"/>
        <pt x="1516" y="150" on="0"/>
        <pt x="1699" y="150" on="1"/>
        <pt x="1884" y="150" on="0"/>
        <pt x="2042" y="366" on="1"/>
        <pt x="2297" y="474" on="1"/>
      </contour>
      <contour>
        <pt x="1689" y="1966" on="1"/>
        <pt x="1699" y="1966" on="1"/>
        <pt x="1855" y="1882" on="1"/>
        <pt x="1562" y="1566" on="1"/>
        <pt x="1552" y="1566" on="1"/>
        <pt x="1447" y="1621" on="1"/>
      </contour>
    </TTGlyph>
    <TTGlyph name="Aacute" xMin="171" yMin="-40" xMax="1515" yMax="1966">
      <contour>
        <pt x="171" y="-40" on="1"/>
        <pt x="354" y="755" on="1"/>
        <pt x="421" y="1046" on="0"/>
        <pt x="558" y="1222" on="1"/>
        <pt x="798" y="1530" on="0"/>
        <pt x="1095" y="1530" on="1"/>
        <pt x="1393" y="1530" on="0"/>
        <pt x="1490" y="1222" on="1"/>
        <pt x="1515" y="1143" on="0"/>
        <pt x="1515" y="1040" on="1"/>
        <pt x="1515" y="914" on="0"/>
        <pt x="1478" y="755" on="1"/>
        <pt x="1409" y="458" on="0"/>
        <pt x="1276" y="312" on="1"/>
        <pt x="1193" y="221" on="0"/>
        <pt x="1109" y="170" on="1"/>
        <pt x="1393" y="170" on="1"/>
        <pt x="1391" y="160" on="1"/>
        <pt x="1279" y="0" on="1"/>
        <pt x="726" y="0" on="1"/>
        <pt x="728" y="10" on="1"/>
        <pt x="840" y="170" on="1"/>
        <pt x="987" y="216" on="0"/>
        <pt x="1099" y="358" on="1"/>
        <pt x="1220" y="511" on="0"/>
        <pt x="1257" y="670" on="1"/>
        <pt x="535" y="670" on="1"/>
        <pt x="392" y="50" on="1"/>
        <pt x="181" y="-40" on="1"/>
      </contour>
      <contour>
        <pt x="576" y="840" on="1"/>
        <pt x="1296" y="840" on="1"/>
        <pt x="1314" y="942" on="0"/>
        <pt x="1314" y="1021" on="1"/>
        <pt x="1314" y="1091" on="0"/>
        <pt x="1300" y="1144" on="1"/>
        <pt x="1243" y="1360" on="0"/>
        <pt x="1056" y="1360" on="1"/>
        <pt x="868" y="1360" on="0"/>
        <pt x="712" y="1146" on="1"/>
        <pt x="631" y="1033" on="0"/>
      </contour>
      <contour>
        <pt x="1301" y="1966" on="1"/>
        <pt x="1311" y="1966" on="1"/>
        <pt x="1467" y="1882" on="1"/>
        <pt x="1174" y="1566" on="1"/>
        <pt x="1164" y="1566" on="1"/>
        <pt x="1059" y="1621" on="1"/>
      </contour>
    </TTGlyph>
    <TTGlyph name="Abreve" xMin="171" yMin="-40" xMax="1515" yMax="1947">
      <contour>
        <pt x="171" y="-40" on="1"/>
        <pt x="354" y="755" on="1"/>
        <pt x="421" y="1046" on="0"/>
        <pt x="558" y="1222" on="1"/>
        <pt x="798" y="1530" on="0"/>
        <pt x="1095" y="1530" on="1"/>
        <pt x="1393" y="1530" on="0"/>
        <pt x="1490" y="1222" on="1"/>
        <pt x="1515" y="1143" on="0"/>
        <pt x="1515" y="1040" on="1"/>
        <pt x="1515" y="914" on="0"/>
        <pt x="1478" y="755" on="1"/>
        <pt x="1409" y="458" on="0"/>
        <pt x="1276" y="312" on="1"/>
        <pt x="1193" y="221" on="0"/>
        <pt x="1109" y="170" on="1"/>
        <pt x="1393" y="170" on="1"/>
        <pt x="1391" y="160" on="1"/>
        <pt x="1279" y="0" on="1"/>
        <pt x="726" y="0" on="1"/>
        <pt x="728" y="10" on="1"/>
        <pt x="840" y="170" on="1"/>
        <pt x="987" y="216" on="0"/>
        <pt x="1099" y="358" on="1"/>
        <pt x="1220" y="511" on="0"/>
        <pt x="1257" y="670" on="1"/>
        <pt x="535" y="670" on="1"/>
        <pt x="392" y="50" on="1"/>
        <pt x="181" y="-40" on="1"/>
      </contour>
      <contour>
        <pt x="576" y="840" on="1"/>
        <pt x="1296" y="840" on="1"/>
        <pt x="1314" y="942" on="0"/>
        <pt x="1314" y="1021" on="1"/>
        <pt x="1314" y="1091" on="0"/>
        <pt x="1300" y="1144" on="1"/>
        <pt x="1243" y="1360" on="0"/>
        <pt x="1056" y="1360" on="1"/>
        <pt x="868" y="1360" on="0"/>
        <pt x="712" y="1146" on="1"/>
        <pt x="631" y="1033" on="0"/>
      </contour>
      <contour>
        <pt x="911" y="1788" on="1"/>
        <pt x="913" y="1798" on="1"/>
        <pt x="1022" y="1947" on="1"/>
        <pt x="1063" y="1813" on="0"/>
        <pt x="1263" y="1813" on="0"/>
        <pt x="1366" y="1947" on="1"/>
        <pt x="1407" y="1798" on="1"/>
        <pt x="1405" y="1788" on="1"/>
        <pt x="1268" y="1638" on="0"/>
        <pt x="1120" y="1638" on="1"/>
        <pt x="966" y="1638" on="0"/>
      </contour>
    </TTGlyph>
    <TTGlyph name="Acircumflex" xMin="171" yMin="-40" xMax="1515" yMax="1966">
      <contour>
        <pt x="171" y="-40" on="1"/>
        <pt x="354" y="755" on="1"/>
        <pt x="421" y="1046" on="0"/>
        <pt x="558" y="1222" on="1"/>
        <pt x="798" y="1530" on="0"/>
        <pt x="1095" y="1530" on="1"/>
        <pt x="1393" y="1530" on="0"/>
        <pt x="1490" y="1222" on="1"/>
        <pt x="1515" y="1143" on="0"/>
        <pt x="1515" y="1040" on="1"/>
        <pt x="1515" y="914" on="0"/>
        <pt x="1478" y="755" on="1"/>
        <pt x="1409" y="458" on="0"/>
        <pt x="1276" y="312" on="1"/>
        <pt x="1193" y="221" on="0"/>
        <pt x="1109" y="170" on="1"/>
        <pt x="1393" y="170" on="1"/>
        <pt x="1391" y="160" on="1"/>
        <pt x="1279" y="0" on="1"/>
        <pt x="726" y="0" on="1"/>
        <pt x="728" y="10" on="1"/>
        <pt x="840" y="170" on="1"/>
        <pt x="987" y="216" on="0"/>
        <pt x="1099" y="358" on="1"/>
        <pt x="1220" y="511" on="0"/>
        <pt x="1257" y="670" on="1"/>
        <pt x="535" y="670" on="1"/>
        <pt x="392" y="50" on="1"/>
        <pt x="181" y="-40" on="1"/>
      </contour>
      <contour>
        <pt x="576" y="840" on="1"/>
        <pt x="1296" y="840" on="1"/>
        <pt x="1314" y="942" on="0"/>
        <pt x="1314" y="1021" on="1"/>
        <pt x="1314" y="1091" on="0"/>
        <pt x="1300" y="1144" on="1"/>
        <pt x="1243" y="1360" on="0"/>
        <pt x="1056" y="1360" on="1"/>
        <pt x="868" y="1360" on="0"/>
        <pt x="712" y="1146" on="1"/>
        <pt x="631" y="1033" on="0"/>
      </contour>
      <contour>
        <pt x="838" y="1621" on="1"/>
        <pt x="1051" y="1882" on="1"/>
        <pt x="1247" y="1966" on="1"/>
        <pt x="1257" y="1966" on="1"/>
        <pt x="1390" y="1621" on="1"/>
        <pt x="1262" y="1566" on="1"/>
        <pt x="1252" y="1566" on="1"/>
        <pt x="1150" y="1774" on="1"/>
        <pt x="954" y="1566" on="1"/>
        <pt x="944" y="1566" on="1"/>
      </contour>
    </TTGlyph>
    <TTGlyph name="Adieresis" xMin="171" yMin="-40" xMax="1515" yMax="1925">
      <contour>
        <pt x="1186" y="1802" on="1"/>
        <pt x="1198" y="1853" on="0"/>
        <pt x="1284" y="1925" on="0"/>
        <pt x="1386" y="1925" on="0"/>
        <pt x="1412" y="1889" on="1"/>
        <pt x="1431" y="1863" on="0"/>
        <pt x="1431" y="1832" on="1"/>
        <pt x="1431" y="1820" on="0"/>
        <pt x="1427" y="1802" on="1"/>
        <pt x="1412" y="1749" on="0"/>
        <pt x="1372" y="1716" on="1"/>
        <pt x="1328" y="1680" on="0"/>
        <pt x="1277" y="1680" on="1"/>
        <pt x="1227" y="1680" on="0"/>
        <pt x="1200" y="1717" on="1"/>
        <pt x="1182" y="1741" on="0"/>
        <pt x="1182" y="1770" on="1"/>
        <pt x="1182" y="1784" on="0"/>
      </contour>
      <contour>
        <pt x="885" y="1802" on="1"/>
        <pt x="897" y="1853" on="0"/>
        <pt x="983" y="1925" on="0"/>
        <pt x="1085" y="1925" on="0"/>
        <pt x="1111" y="1889" on="1"/>
        <pt x="1130" y="1863" on="0"/>
        <pt x="1130" y="1832" on="1"/>
        <pt x="1130" y="1820" on="0"/>
        <pt x="1126" y="1802" on="1"/>
        <pt x="1111" y="1749" on="0"/>
        <pt x="1071" y="1716" on="1"/>
        <pt x="1027" y="1680" on="0"/>
        <pt x="976" y="1680" on="1"/>
        <pt x="926" y="1680" on="0"/>
        <pt x="899" y="1717" on="1"/>
        <pt x="881" y="1741" on="0"/>
        <pt x="881" y="1770" on="1"/>
        <pt x="881" y="1784" on="0"/>
      </contour>
      <contour>
        <pt x="171" y="-40" on="1"/>
        <pt x="354" y="755" on="1"/>
        <pt x="421" y="1046" on="0"/>
        <pt x="558" y="1222" on="1"/>
        <pt x="798" y="1530" on="0"/>
        <pt x="1095" y="1530" on="1"/>
        <pt x="1393" y="1530" on="0"/>
        <pt x="1490" y="1222" on="1"/>
        <pt x="1515" y="1143" on="0"/>
        <pt x="1515" y="1040" on="1"/>
        <pt x="1515" y="914" on="0"/>
        <pt x="1478" y="755" on="1"/>
        <pt x="1409" y="458" on="0"/>
        <pt x="1276" y="312" on="1"/>
        <pt x="1193" y="221" on="0"/>
        <pt x="1109" y="170" on="1"/>
        <pt x="1393" y="170" on="1"/>
        <pt x="1391" y="160" on="1"/>
        <pt x="1279" y="0" on="1"/>
        <pt x="726" y="0" on="1"/>
        <pt x="728" y="10" on="1"/>
        <pt x="840" y="170" on="1"/>
        <pt x="987" y="216" on="0"/>
        <pt x="1099" y="358" on="1"/>
        <pt x="1220" y="511" on="0"/>
        <pt x="1257" y="670" on="1"/>
        <pt x="535" y="670" on="1"/>
        <pt x="392" y="50" on="1"/>
        <pt x="181" y="-40" on="1"/>
      </contour>
      <contour>
        <pt x="576" y="840" on="1"/>
        <pt x="1296" y="840" on="1"/>
        <pt x="1314" y="942" on="0"/>
        <pt x="1314" y="1021" on="1"/>
        <pt x="1314" y="1091" on="0"/>
        <pt x="1300" y="1144" on="1"/>
        <pt x="1243" y="1360" on="0"/>
        <pt x="1056" y="1360" on="1"/>
        <pt x="868" y="1360" on="0"/>
        <pt x="712" y="1146" on="1"/>
        <pt x="631" y="1033" on="0"/>
      </contour>
    </TTGlyph>
    <TTGlyph name="Agrave" xMin="171" yMin="-40" xMax="1515" yMax="1966">
      <contour>
        <pt x="171" y="-40" on="1"/>
        <pt x="354" y="755" on="1"/>
        <pt x="421" y="1046" on="0"/>
        <pt x="558" y="1222" on="1"/>
        <pt x="798" y="1530" on="0"/>
        <pt x="1095" y="1530" on="1"/>
        <pt x="1393" y="1530" on="0"/>
        <pt x="1490" y="1222" on="1"/>
        <pt x="1515" y="1143" on="0"/>
        <pt x="1515" y="1040" on="1"/>
        <pt x="1515" y="914" on="0"/>
        <pt x="1478" y="755" on="1"/>
        <pt x="1409" y="458" on="0"/>
        <pt x="1276" y="312" on="1"/>
        <pt x="1193" y="221" on="0"/>
        <pt x="1109" y="170" on="1"/>
        <pt x="1393" y="170" on="1"/>
        <pt x="1391" y="160" on="1"/>
        <pt x="1279" y="0" on="1"/>
        <pt x="726" y="0" on="1"/>
        <pt x="728" y="10" on="1"/>
        <pt x="840" y="170" on="1"/>
        <pt x="987" y="216" on="0"/>
        <pt x="1099" y="358" on="1"/>
        <pt x="1220" y="511" on="0"/>
        <pt x="1257" y="670" on="1"/>
        <pt x="535" y="670" on="1"/>
        <pt x="392" y="50" on="1"/>
        <pt x="181" y="-40" on="1"/>
      </contour>
      <contour>
        <pt x="576" y="840" on="1"/>
        <pt x="1296" y="840" on="1"/>
        <pt x="1314" y="942" on="0"/>
        <pt x="1314" y="1021" on="1"/>
        <pt x="1314" y="1091" on="0"/>
        <pt x="1300" y="1144" on="1"/>
        <pt x="1243" y="1360" on="0"/>
        <pt x="1056" y="1360" on="1"/>
        <pt x="868" y="1360" on="0"/>
        <pt x="712" y="1146" on="1"/>
        <pt x="631" y="1033" on="0"/>
      </contour>
      <contour>
        <pt x="1080" y="1966" on="1"/>
        <pt x="1090" y="1966" on="1"/>
        <pt x="1172" y="1621" on="1"/>
        <pt x="1043" y="1566" on="1"/>
        <pt x="1033" y="1566" on="1"/>
        <pt x="884" y="1882" on="1"/>
      </contour>
    </TTGlyph>
    <TTGlyph name="Amacron" xMin="171" yMin="-40" xMax="1515" yMax="1820">
      <contour>
        <pt x="171" y="-40" on="1"/>
        <pt x="354" y="755" on="1"/>
        <pt x="421" y="1046" on="0"/>
        <pt x="558" y="1222" on="1"/>
        <pt x="798" y="1530" on="0"/>
        <pt x="1095" y="1530" on="1"/>
        <pt x="1393" y="1530" on="0"/>
        <pt x="1490" y="1222" on="1"/>
        <pt x="1515" y="1143" on="0"/>
        <pt x="1515" y="1040" on="1"/>
        <pt x="1515" y="914" on="0"/>
        <pt x="1478" y="755" on="1"/>
        <pt x="1409" y="458" on="0"/>
        <pt x="1276" y="312" on="1"/>
        <pt x="1193" y="221" on="0"/>
        <pt x="1109" y="170" on="1"/>
        <pt x="1393" y="170" on="1"/>
        <pt x="1391" y="160" on="1"/>
        <pt x="1279" y="0" on="1"/>
        <pt x="726" y="0" on="1"/>
        <pt x="728" y="10" on="1"/>
        <pt x="840" y="170" on="1"/>
        <pt x="987" y="216" on="0"/>
        <pt x="1099" y="358" on="1"/>
        <pt x="1220" y="511" on="0"/>
        <pt x="1257" y="670" on="1"/>
        <pt x="535" y="670" on="1"/>
        <pt x="392" y="50" on="1"/>
        <pt x="181" y="-40" on="1"/>
      </contour>
      <contour>
        <pt x="576" y="840" on="1"/>
        <pt x="1296" y="840" on="1"/>
        <pt x="1314" y="942" on="0"/>
        <pt x="1314" y="1021" on="1"/>
        <pt x="1314" y="1091" on="0"/>
        <pt x="1300" y="1144" on="1"/>
        <pt x="1243" y="1360" on="0"/>
        <pt x="1056" y="1360" on="1"/>
        <pt x="868" y="1360" on="0"/>
        <pt x="712" y="1146" on="1"/>
        <pt x="631" y="1033" on="0"/>
      </contour>
      <contour>
        <pt x="875" y="1638" on="1"/>
        <pt x="877" y="1648" on="1"/>
        <pt x="998" y="1820" on="1"/>
        <pt x="1456" y="1820" on="1"/>
        <pt x="1454" y="1810" on="1"/>
        <pt x="1333" y="1638" on="1"/>
      </contour>
    </TTGlyph>
    <TTGlyph name="Aogonek" xMin="171" yMin="-450" xMax="1515" yMax="1530">
      <contour>
        <pt x="576" y="840" on="1"/>
        <pt x="1296" y="840" on="1"/>
        <pt x="1314" y="942" on="0"/>
        <pt x="1314" y="1021" on="1"/>
        <pt x="1314" y="1091" on="0"/>
        <pt x="1300" y="1144" on="1"/>
        <pt x="1243" y="1360" on="0"/>
        <pt x="1056" y="1360" on="1"/>
        <pt x="868" y="1360" on="0"/>
        <pt x="712" y="1146" on="1"/>
        <pt x="631" y="1033" on="0"/>
      </contour>
      <contour>
        <pt x="171" y="-40" on="1"/>
        <pt x="354" y="755" on="1"/>
        <pt x="421" y="1046" on="0"/>
        <pt x="558" y="1222" on="1"/>
        <pt x="798" y="1530" on="0"/>
        <pt x="1095" y="1530" on="1"/>
        <pt x="1393" y="1530" on="0"/>
        <pt x="1490" y="1222" on="1"/>
        <pt x="1515" y="1143" on="0"/>
        <pt x="1515" y="1040" on="1"/>
        <pt x="1515" y="914" on="0"/>
        <pt x="1478" y="755" on="1"/>
        <pt x="1409" y="458" on="0"/>
        <pt x="1276" y="312" on="1"/>
        <pt x="1193" y="221" on="0"/>
        <pt x="1109" y="170" on="1"/>
        <pt x="1393" y="170" on="1"/>
        <pt x="1391" y="160" on="1"/>
        <pt x="1279" y="0" on="1"/>
        <pt x="1275" y="0" on="1"/>
        <pt x="1211" y="-56" on="0"/>
        <pt x="1187" y="-152" on="1"/>
        <pt x="1181" y="-176" on="0"/>
        <pt x="1181" y="-198" on="1"/>
        <pt x="1181" y="-291" on="0"/>
        <pt x="1273" y="-360" on="1"/>
        <pt x="1062" y="-450" on="1"/>
        <pt x="1052" y="-450" on="1"/>
        <pt x="992" y="-373" on="0"/>
        <pt x="992" y="-279" on="1"/>
        <pt x="992" y="-244" on="0"/>
        <pt x="1000" y="-206" on="1"/>
        <pt x="1027" y="-91" on="0"/>
        <pt x="1134" y="0" on="1"/>
        <pt x="726" y="0" on="1"/>
        <pt x="728" y="10" on="1"/>
        <pt x="840" y="170" on="1"/>
        <pt x="987" y="216" on="0"/>
        <pt x="1099" y="358" on="1"/>
        <pt x="1220" y="511" on="0"/>
        <pt x="1257" y="670" on="1"/>
        <pt x="535" y="670" on="1"/>
        <pt x="392" y="50" on="1"/>
        <pt x="181" y="-40" on="1"/>
      </contour>
    </TTGlyph>
    <TTGlyph name="Aring" xMin="171" yMin="-40" xMax="1515" yMax="1966">
      <contour>
        <pt x="171" y="-40" on="1"/>
        <pt x="354" y="755" on="1"/>
        <pt x="421" y="1046" on="0"/>
        <pt x="558" y="1222" on="1"/>
        <pt x="798" y="1530" on="0"/>
        <pt x="1095" y="1530" on="1"/>
        <pt x="1393" y="1530" on="0"/>
        <pt x="1490" y="1222" on="1"/>
        <pt x="1515" y="1143" on="0"/>
        <pt x="1515" y="1040" on="1"/>
        <pt x="1515" y="914" on="0"/>
        <pt x="1478" y="755" on="1"/>
        <pt x="1409" y="458" on="0"/>
        <pt x="1276" y="312" on="1"/>
        <pt x="1193" y="221" on="0"/>
        <pt x="1109" y="170" on="1"/>
        <pt x="1393" y="170" on="1"/>
        <pt x="1391" y="160" on="1"/>
        <pt x="1279" y="0" on="1"/>
        <pt x="726" y="0" on="1"/>
        <pt x="728" y="10" on="1"/>
        <pt x="840" y="170" on="1"/>
        <pt x="987" y="216" on="0"/>
        <pt x="1099" y="358" on="1"/>
        <pt x="1220" y="511" on="0"/>
        <pt x="1257" y="670" on="1"/>
        <pt x="535" y="670" on="1"/>
        <pt x="392" y="50" on="1"/>
        <pt x="181" y="-40" on="1"/>
      </contour>
      <contour>
        <pt x="576" y="840" on="1"/>
        <pt x="1296" y="840" on="1"/>
        <pt x="1314" y="942" on="0"/>
        <pt x="1314" y="1021" on="1"/>
        <pt x="1314" y="1091" on="0"/>
        <pt x="1300" y="1144" on="1"/>
        <pt x="1243" y="1360" on="0"/>
        <pt x="1056" y="1360" on="1"/>
        <pt x="868" y="1360" on="0"/>
        <pt x="712" y="1146" on="1"/>
        <pt x="631" y="1033" on="0"/>
      </contour>
      <contour>
        <pt x="1104" y="1588" on="1"/>
        <pt x="1022" y="1588" on="0"/>
        <pt x="978" y="1637" on="1"/>
        <pt x="943" y="1677" on="0"/>
        <pt x="943" y="1732" on="1"/>
        <pt x="943" y="1753" on="0"/>
        <pt x="948" y="1777" on="1"/>
        <pt x="965" y="1858" on="0"/>
        <pt x="1043" y="1917" on="1"/>
        <pt x="1108" y="1966" on="0"/>
        <pt x="1189" y="1966" on="1"/>
        <pt x="1269" y="1966" on="0"/>
        <pt x="1313" y="1917" on="1"/>
        <pt x="1348" y="1878" on="0"/>
        <pt x="1348" y="1824" on="1"/>
        <pt x="1348" y="1802" on="0"/>
        <pt x="1342" y="1777" on="1"/>
        <pt x="1321" y="1689" on="0"/>
        <pt x="1251" y="1636" on="1"/>
        <pt x="1187" y="1588" on="0"/>
      </contour>
      <contour>
        <pt x="1165" y="1862" on="1"/>
        <pt x="1131" y="1862" on="0"/>
        <pt x="1106" y="1841" on="1"/>
        <pt x="1080" y="1819" on="0"/>
        <pt x="1071" y="1777" on="1"/>
        <pt x="1067" y="1759" on="0"/>
        <pt x="1067" y="1746" on="1"/>
        <pt x="1067" y="1723" on="0"/>
        <pt x="1077" y="1712" on="1"/>
        <pt x="1095" y="1692" on="0"/>
        <pt x="1125" y="1692" on="1"/>
        <pt x="1157" y="1692" on="0"/>
        <pt x="1183" y="1714" on="1"/>
        <pt x="1208" y="1734" on="0"/>
        <pt x="1217" y="1777" on="1"/>
        <pt x="1221" y="1795" on="0"/>
        <pt x="1221" y="1808" on="1"/>
        <pt x="1221" y="1829" on="0"/>
        <pt x="1211" y="1842" on="1"/>
        <pt x="1195" y="1861" on="0"/>
      </contour>
    </TTGlyph>
    <TTGlyph name="Atilde" xMin="171" yMin="-40" xMax="1515" yMax="1924">
      <contour>
        <pt x="171" y="-40" on="1"/>
        <pt x="354" y="755" on="1"/>
        <pt x="421" y="1046" on="0"/>
        <pt x="558" y="1222" on="1"/>
        <pt x="798" y="1530" on="0"/>
        <pt x="1095" y="1530" on="1"/>
        <pt x="1393" y="1530" on="0"/>
        <pt x="1490" y="1222" on="1"/>
        <pt x="1515" y="1143" on="0"/>
        <pt x="1515" y="1040" on="1"/>
        <pt x="1515" y="914" on="0"/>
        <pt x="1478" y="755" on="1"/>
        <pt x="1409" y="458" on="0"/>
        <pt x="1276" y="312" on="1"/>
        <pt x="1193" y="221" on="0"/>
        <pt x="1109" y="170" on="1"/>
        <pt x="1393" y="170" on="1"/>
        <pt x="1391" y="160" on="1"/>
        <pt x="1279" y="0" on="1"/>
        <pt x="726" y="0" on="1"/>
        <pt x="728" y="10" on="1"/>
        <pt x="840" y="170" on="1"/>
        <pt x="987" y="216" on="0"/>
        <pt x="1099" y="358" on="1"/>
        <pt x="1220" y="511" on="0"/>
        <pt x="1257" y="670" on="1"/>
        <pt x="535" y="670" on="1"/>
        <pt x="392" y="50" on="1"/>
        <pt x="181" y="-40" on="1"/>
      </contour>
      <contour>
        <pt x="576" y="840" on="1"/>
        <pt x="1296" y="840" on="1"/>
        <pt x="1314" y="942" on="0"/>
        <pt x="1314" y="1021" on="1"/>
        <pt x="1314" y="1091" on="0"/>
        <pt x="1300" y="1144" on="1"/>
        <pt x="1243" y="1360" on="0"/>
        <pt x="1056" y="1360" on="1"/>
        <pt x="868" y="1360" on="0"/>
        <pt x="712" y="1146" on="1"/>
        <pt x="631" y="1033" on="0"/>
      </contour>
      <contour>
        <pt x="879" y="1638" on="1"/>
        <pt x="945" y="1924" on="0"/>
        <pt x="1086" y="1924" on="1"/>
        <pt x="1150" y="1924" on="0"/>
        <pt x="1207" y="1854" on="1"/>
        <pt x="1247" y="1805" on="0"/>
        <pt x="1271" y="1805" on="1"/>
        <pt x="1305" y="1805" on="0"/>
        <pt x="1321" y="1877" on="1"/>
        <pt x="1442" y="1924" on="1"/>
        <pt x="1448" y="1924" on="1"/>
        <pt x="1382" y="1638" on="0"/>
        <pt x="1241" y="1638" on="1"/>
        <pt x="1176" y="1638" on="0"/>
        <pt x="1120" y="1708" on="1"/>
        <pt x="1081" y="1757" on="0"/>
        <pt x="1057" y="1757" on="1"/>
        <pt x="1023" y="1757" on="0"/>
        <pt x="1006" y="1685" on="1"/>
        <pt x="885" y="1638" on="1"/>
      </contour>
    </TTGlyph>
    <TTGlyph name="B" xMin="171" yMin="-40" xMax="1431" yMax="1530">
      <contour>
        <pt x="171" y="-40" on="1"/>
        <pt x="354" y="755" on="1"/>
        <pt x="421" y="1046" on="0"/>
        <pt x="558" y="1222" on="1"/>
        <pt x="798" y="1530" on="0"/>
        <pt x="1095" y="1530" on="1"/>
        <pt x="1263" y="1530" on="0"/>
        <pt x="1355" y="1438" on="1"/>
        <pt x="1431" y="1362" on="0"/>
        <pt x="1431" y="1243" on="1"/>
        <pt x="1431" y="1196" on="0"/>
        <pt x="1419" y="1141" on="1"/>
        <pt x="1382" y="970" on="0"/>
        <pt x="1201" y="855" on="1"/>
        <pt x="1247" y="834" on="0"/>
        <pt x="1284" y="792" on="1"/>
        <pt x="1367" y="699" on="0"/>
        <pt x="1367" y="571" on="1"/>
        <pt x="1367" y="520" on="0"/>
        <pt x="1354" y="462" on="1"/>
        <pt x="1306" y="262" on="0"/>
        <pt x="1151" y="137" on="1"/>
        <pt x="981" y="0" on="0"/>
        <pt x="742" y="0" on="1"/>
        <pt x="549" y="0" on="1"/>
        <pt x="551" y="10" on="1"/>
        <pt x="663" y="170" on="1"/>
        <pt x="781" y="170" on="1"/>
        <pt x="927" y="170" on="0"/>
        <pt x="1042" y="268" on="1"/>
        <pt x="1124" y="338" on="0"/>
        <pt x="1152" y="456" on="1"/>
        <pt x="1163" y="502" on="0"/>
        <pt x="1163" y="542" on="1"/>
        <pt x="1163" y="607" on="0"/>
        <pt x="1133" y="654" on="1"/>
        <pt x="1068" y="756" on="0"/>
        <pt x="917" y="756" on="1"/>
        <pt x="724" y="756" on="1"/>
        <pt x="726" y="766" on="1"/>
        <pt x="838" y="926" on="1"/>
        <pt x="956" y="926" on="1"/>
        <pt x="1057" y="926" on="0"/>
        <pt x="1132" y="991" on="1"/>
        <pt x="1200" y="1050" on="0"/>
        <pt x="1222" y="1146" on="1"/>
        <pt x="1229" y="1177" on="0"/>
        <pt x="1229" y="1205" on="1"/>
        <pt x="1229" y="1259" on="0"/>
        <pt x="1200" y="1300" on="1"/>
        <pt x="1156" y="1360" on="0"/>
        <pt x="1056" y="1360" on="1"/>
        <pt x="870" y="1360" on="0"/>
        <pt x="712" y="1144" on="1"/>
        <pt x="613" y="1009" on="0"/>
        <pt x="554" y="755" on="1"/>
        <pt x="392" y="50" on="1"/>
        <pt x="181" y="-40" on="1"/>
      </contour>
    </TTGlyph>
    <TTGlyph name="C" xMin="287" yMin="-20" xMax="1460" yMax="1530">
      <contour>
        <pt x="1355" y="474" on="1"/>
        <pt x="1315" y="380" on="0"/>
        <pt x="1244" y="288" on="1"/>
        <pt x="1007" y="-20" on="0"/>
        <pt x="707" y="-20" on="1"/>
        <pt x="409" y="-20" on="0"/>
        <pt x="312" y="288" on="1"/>
        <pt x="287" y="367" on="0"/>
        <pt x="287" y="470" on="1"/>
        <pt x="287" y="596" on="0"/>
        <pt x="324" y="755" on="1"/>
        <pt x="392" y="1047" on="0"/>
        <pt x="528" y="1222" on="1"/>
        <pt x="768" y="1530" on="0"/>
        <pt x="1065" y="1530" on="1"/>
        <pt x="1364" y="1530" on="0"/>
        <pt x="1460" y="1222" on="1"/>
        <pt x="1280" y="1144" on="1"/>
        <pt x="1270" y="1144" on="1"/>
        <pt x="1212" y="1360" on="0"/>
        <pt x="1026" y="1360" on="1"/>
        <pt x="841" y="1360" on="0"/>
        <pt x="682" y="1144" on="1"/>
        <pt x="581" y="1007" on="0"/>
        <pt x="524" y="755" on="1"/>
        <pt x="488" y="596" on="0"/>
        <pt x="488" y="485" on="1"/>
        <pt x="488" y="417" on="0"/>
        <pt x="502" y="366" on="1"/>
        <pt x="561" y="150" on="0"/>
        <pt x="747" y="150" on="1"/>
        <pt x="932" y="150" on="0"/>
        <pt x="1090" y="366" on="1"/>
        <pt x="1345" y="474" on="1"/>
      </contour>
    </TTGlyph>
    <TTGlyph name="Cacute" xMin="287" yMin="-20" xMax="1460" yMax="1966">
      <contour>
        <pt x="1355" y="474" on="1"/>
        <pt x="1315" y="380" on="0"/>
        <pt x="1244" y="288" on="1"/>
        <pt x="1007" y="-20" on="0"/>
        <pt x="707" y="-20" on="1"/>
        <pt x="409" y="-20" on="0"/>
        <pt x="312" y="288" on="1"/>
        <pt x="287" y="367" on="0"/>
        <pt x="287" y="470" on="1"/>
        <pt x="287" y="596" on="0"/>
        <pt x="324" y="755" on="1"/>
        <pt x="392" y="1047" on="0"/>
        <pt x="528" y="1222" on="1"/>
        <pt x="768" y="1530" on="0"/>
        <pt x="1065" y="1530" on="1"/>
        <pt x="1364" y="1530" on="0"/>
        <pt x="1460" y="1222" on="1"/>
        <pt x="1280" y="1144" on="1"/>
        <pt x="1270" y="1144" on="1"/>
        <pt x="1212" y="1360" on="0"/>
        <pt x="1026" y="1360" on="1"/>
        <pt x="841" y="1360" on="0"/>
        <pt x="682" y="1144" on="1"/>
        <pt x="581" y="1007" on="0"/>
        <pt x="524" y="755" on="1"/>
        <pt x="488" y="596" on="0"/>
        <pt x="488" y="485" on="1"/>
        <pt x="488" y="417" on="0"/>
        <pt x="502" y="366" on="1"/>
        <pt x="561" y="150" on="0"/>
        <pt x="747" y="150" on="1"/>
        <pt x="932" y="150" on="0"/>
        <pt x="1090" y="366" on="1"/>
        <pt x="1345" y="474" on="1"/>
      </contour>
      <contour>
        <pt x="1271" y="1966" on="1"/>
        <pt x="1281" y="1966" on="1"/>
        <pt x="1437" y="1882" on="1"/>
        <pt x="1144" y="1566" on="1"/>
        <pt x="1134" y="1566" on="1"/>
        <pt x="1029" y="1621" on="1"/>
      </contour>
    </TTGlyph>
    <TTGlyph name="Ccaron" xMin="287" yMin="-20" xMax="1460" yMax="1966">
      <contour>
        <pt x="1355" y="474" on="1"/>
        <pt x="1315" y="380" on="0"/>
        <pt x="1244" y="288" on="1"/>
        <pt x="1007" y="-20" on="0"/>
        <pt x="707" y="-20" on="1"/>
        <pt x="409" y="-20" on="0"/>
        <pt x="312" y="288" on="1"/>
        <pt x="287" y="367" on="0"/>
        <pt x="287" y="470" on="1"/>
        <pt x="287" y="596" on="0"/>
        <pt x="324" y="755" on="1"/>
        <pt x="392" y="1047" on="0"/>
        <pt x="528" y="1222" on="1"/>
        <pt x="768" y="1530" on="0"/>
        <pt x="1065" y="1530" on="1"/>
        <pt x="1364" y="1530" on="0"/>
        <pt x="1460" y="1222" on="1"/>
        <pt x="1280" y="1144" on="1"/>
        <pt x="1270" y="1144" on="1"/>
        <pt x="1212" y="1360" on="0"/>
        <pt x="1026" y="1360" on="1"/>
        <pt x="841" y="1360" on="0"/>
        <pt x="682" y="1144" on="1"/>
        <pt x="581" y="1007" on="0"/>
        <pt x="524" y="755" on="1"/>
        <pt x="488" y="596" on="0"/>
        <pt x="488" y="485" on="1"/>
        <pt x="488" y="417" on="0"/>
        <pt x="502" y="366" on="1"/>
        <pt x="561" y="150" on="0"/>
        <pt x="747" y="150" on="1"/>
        <pt x="932" y="150" on="0"/>
        <pt x="1090" y="366" on="1"/>
        <pt x="1345" y="474" on="1"/>
      </contour>
      <contour>
        <pt x="1009" y="1566" on="1"/>
        <pt x="875" y="1911" on="1"/>
        <pt x="1004" y="1966" on="1"/>
        <pt x="1014" y="1966" on="1"/>
        <pt x="1116" y="1758" on="1"/>
        <pt x="1312" y="1966" on="1"/>
        <pt x="1322" y="1966" on="1"/>
        <pt x="1427" y="1911" on="1"/>
        <pt x="1214" y="1650" on="1"/>
        <pt x="1019" y="1566" on="1"/>
      </contour>
    </TTGlyph>
    <TTGlyph name="Ccedilla" xMin="287" yMin="-450" xMax="1460" yMax="1530">
      <contour>
        <pt x="1355" y="474" on="1"/>
        <pt x="1315" y="380" on="0"/>
        <pt x="1244" y="288" on="1"/>
        <pt x="1033" y="14" on="0"/>
        <pt x="772" y="-16" on="1"/>
        <pt x="808" y="-75" on="0"/>
        <pt x="808" y="-143" on="1"/>
        <pt x="808" y="-174" on="0"/>
        <pt x="801" y="-206" on="1"/>
        <pt x="771" y="-342" on="0"/>
        <pt x="636" y="-450" on="1"/>
        <pt x="626" y="-450" on="1"/>
        <pt x="457" y="-360" on="1"/>
        <pt x="610" y="-274" on="0"/>
        <pt x="639" y="-152" on="1"/>
        <pt x="644" y="-131" on="0"/>
        <pt x="644" y="-109" on="1"/>
        <pt x="644" y="-63" on="0"/>
        <pt x="623" y="-13" on="1"/>
        <pt x="395" y="26" on="0"/>
        <pt x="312" y="288" on="1"/>
        <pt x="287" y="367" on="0"/>
        <pt x="287" y="470" on="1"/>
        <pt x="287" y="596" on="0"/>
        <pt x="324" y="755" on="1"/>
        <pt x="392" y="1047" on="0"/>
        <pt x="528" y="1222" on="1"/>
        <pt x="768" y="1530" on="0"/>
        <pt x="1065" y="1530" on="1"/>
        <pt x="1364" y="1530" on="0"/>
        <pt x="1460" y="1222" on="1"/>
        <pt x="1280" y="1144" on="1"/>
        <pt x="1270" y="1144" on="1"/>
        <pt x="1212" y="1360" on="0"/>
        <pt x="1026" y="1360" on="1"/>
        <pt x="841" y="1360" on="0"/>
        <pt x="682" y="1144" on="1"/>
        <pt x="581" y="1007" on="0"/>
        <pt x="524" y="755" on="1"/>
        <pt x="488" y="596" on="0"/>
        <pt x="488" y="485" on="1"/>
        <pt x="488" y="417" on="0"/>
        <pt x="502" y="366" on="1"/>
        <pt x="561" y="150" on="0"/>
        <pt x="747" y="150" on="1"/>
        <pt x="932" y="150" on="0"/>
        <pt x="1090" y="366" on="1"/>
        <pt x="1345" y="474" on="1"/>
      </contour>
    </TTGlyph>
    <TTGlyph name="Ccircumflex" xMin="287" yMin="-20" xMax="1460" yMax="1966">
      <contour>
        <pt x="1355" y="474" on="1"/>
        <pt x="1315" y="380" on="0"/>
        <pt x="1244" y="288" on="1"/>
        <pt x="1007" y="-20" on="0"/>
        <pt x="707" y="-20" on="1"/>
        <pt x="409" y="-20" on="0"/>
        <pt x="312" y="288" on="1"/>
        <pt x="287" y="367" on="0"/>
        <pt x="287" y="470" on="1"/>
        <pt x="287" y="596" on="0"/>
        <pt x="324" y="755" on="1"/>
        <pt x="392" y="1047" on="0"/>
        <pt x="528" y="1222" on="1"/>
        <pt x="768" y="1530" on="0"/>
        <pt x="1065" y="1530" on="1"/>
        <pt x="1364" y="1530" on="0"/>
        <pt x="1460" y="1222" on="1"/>
        <pt x="1280" y="1144" on="1"/>
        <pt x="1270" y="1144" on="1"/>
        <pt x="1212" y="1360" on="0"/>
        <pt x="1026" y="1360" on="1"/>
        <pt x="841" y="1360" on="0"/>
        <pt x="682" y="1144" on="1"/>
        <pt x="581" y="1007" on="0"/>
        <pt x="524" y="755" on="1"/>
        <pt x="488" y="596" on="0"/>
        <pt x="488" y="485" on="1"/>
        <pt x="488" y="417" on="0"/>
        <pt x="502" y="366" on="1"/>
        <pt x="561" y="150" on="0"/>
        <pt x="747" y="150" on="1"/>
        <pt x="932" y="150" on="0"/>
        <pt x="1090" y="366" on="1"/>
        <pt x="1345" y="474" on="1"/>
      </contour>
      <contour>
        <pt x="808" y="1621" on="1"/>
        <pt x="1021" y="1882" on="1"/>
        <pt x="1217" y="1966" on="1"/>
        <pt x="1227" y="1966" on="1"/>
        <pt x="1360" y="1621" on="1"/>
        <pt x="1232" y="1566" on="1"/>
        <pt x="1222" y="1566" on="1"/>
        <pt x="1120" y="1774" on="1"/>
        <pt x="924" y="1566" on="1"/>
        <pt x="914" y="1566" on="1"/>
      </contour>
    </TTGlyph>
    <TTGlyph name="Cdotaccent" xMin="287" yMin="-20" xMax="1460" yMax="1925">
      <contour>
        <pt x="1003" y="1802" on="1"/>
        <pt x="1015" y="1853" on="0"/>
        <pt x="1101" y="1925" on="0"/>
        <pt x="1203" y="1925" on="0"/>
        <pt x="1229" y="1889" on="1"/>
        <pt x="1248" y="1863" on="0"/>
        <pt x="1248" y="1832" on="1"/>
        <pt x="1248" y="1820" on="0"/>
        <pt x="1244" y="1802" on="1"/>
        <pt x="1229" y="1749" on="0"/>
        <pt x="1189" y="1716" on="1"/>
        <pt x="1145" y="1680" on="0"/>
        <pt x="1094" y="1680" on="1"/>
        <pt x="1044" y="1680" on="0"/>
        <pt x="1017" y="1717" on="1"/>
        <pt x="999" y="1741" on="0"/>
        <pt x="999" y="1770" on="1"/>
        <pt x="999" y="1784" on="0"/>
      </contour>
      <contour>
        <pt x="1355" y="474" on="1"/>
        <pt x="1315" y="380" on="0"/>
        <pt x="1244" y="288" on="1"/>
        <pt x="1007" y="-20" on="0"/>
        <pt x="707" y="-20" on="1"/>
        <pt x="409" y="-20" on="0"/>
        <pt x="312" y="288" on="1"/>
        <pt x="287" y="367" on="0"/>
        <pt x="287" y="470" on="1"/>
        <pt x="287" y="596" on="0"/>
        <pt x="324" y="755" on="1"/>
        <pt x="392" y="1047" on="0"/>
        <pt x="528" y="1222" on="1"/>
        <pt x="768" y="1530" on="0"/>
        <pt x="1065" y="1530" on="1"/>
        <pt x="1364" y="1530" on="0"/>
        <pt x="1460" y="1222" on="1"/>
        <pt x="1280" y="1144" on="1"/>
        <pt x="1270" y="1144" on="1"/>
        <pt x="1212" y="1360" on="0"/>
        <pt x="1026" y="1360" on="1"/>
        <pt x="841" y="1360" on="0"/>
        <pt x="682" y="1144" on="1"/>
        <pt x="581" y="1007" on="0"/>
        <pt x="524" y="755" on="1"/>
        <pt x="488" y="596" on="0"/>
        <pt x="488" y="485" on="1"/>
        <pt x="488" y="417" on="0"/>
        <pt x="502" y="366" on="1"/>
        <pt x="561" y="150" on="0"/>
        <pt x="747" y="150" on="1"/>
        <pt x="932" y="150" on="0"/>
        <pt x="1090" y="366" on="1"/>
        <pt x="1345" y="474" on="1"/>
      </contour>
    </TTGlyph>
    <TTGlyph name="D" xMin="171" yMin="-40" xMax="1514" yMax="1530">
      <contour>
        <pt x="171" y="-40" on="1"/>
        <pt x="354" y="755" on="1"/>
        <pt x="421" y="1046" on="0"/>
        <pt x="558" y="1222" on="1"/>
        <pt x="798" y="1530" on="0"/>
        <pt x="1095" y="1530" on="1"/>
        <pt x="1396" y="1530" on="0"/>
        <pt x="1490" y="1222" on="1"/>
        <pt x="1514" y="1143" on="0"/>
        <pt x="1514" y="1041" on="1"/>
        <pt x="1514" y="917" on="0"/>
        <pt x="1478" y="755" on="1"/>
        <pt x="1421" y="503" on="0"/>
        <pt x="1278" y="314" on="1"/>
        <pt x="1043" y="0" on="0"/>
        <pt x="742" y="0" on="1"/>
        <pt x="549" y="0" on="1"/>
        <pt x="551" y="10" on="1"/>
        <pt x="663" y="170" on="1"/>
        <pt x="781" y="170" on="1"/>
        <pt x="966" y="170" on="0"/>
        <pt x="1124" y="392" on="1"/>
        <pt x="1228" y="538" on="0"/>
        <pt x="1278" y="755" on="1"/>
        <pt x="1314" y="911" on="0"/>
        <pt x="1314" y="1022" on="1"/>
        <pt x="1314" y="1091" on="0"/>
        <pt x="1300" y="1144" on="1"/>
        <pt x="1243" y="1360" on="0"/>
        <pt x="1056" y="1360" on="1"/>
        <pt x="870" y="1360" on="0"/>
        <pt x="712" y="1144" on="1"/>
        <pt x="613" y="1009" on="0"/>
        <pt x="554" y="755" on="1"/>
        <pt x="392" y="50" on="1"/>
        <pt x="181" y="-40" on="1"/>
      </contour>
    </TTGlyph>
    <TTGlyph name="Dcaron" xMin="171" yMin="-40" xMax="1514" yMax="1966">
      <contour>
        <pt x="171" y="-40" on="1"/>
        <pt x="354" y="755" on="1"/>
        <pt x="421" y="1046" on="0"/>
        <pt x="558" y="1222" on="1"/>
        <pt x="798" y="1530" on="0"/>
        <pt x="1095" y="1530" on="1"/>
        <pt x="1396" y="1530" on="0"/>
        <pt x="1490" y="1222" on="1"/>
        <pt x="1514" y="1143" on="0"/>
        <pt x="1514" y="1041" on="1"/>
        <pt x="1514" y="917" on="0"/>
        <pt x="1478" y="755" on="1"/>
        <pt x="1421" y="503" on="0"/>
        <pt x="1278" y="314" on="1"/>
        <pt x="1043" y="0" on="0"/>
        <pt x="742" y="0" on="1"/>
        <pt x="549" y="0" on="1"/>
        <pt x="551" y="10" on="1"/>
        <pt x="663" y="170" on="1"/>
        <pt x="781" y="170" on="1"/>
        <pt x="966" y="170" on="0"/>
        <pt x="1124" y="392" on="1"/>
        <pt x="1228" y="538" on="0"/>
        <pt x="1278" y="755" on="1"/>
        <pt x="1314" y="911" on="0"/>
        <pt x="1314" y="1022" on="1"/>
        <pt x="1314" y="1091" on="0"/>
        <pt x="1300" y="1144" on="1"/>
        <pt x="1243" y="1360" on="0"/>
        <pt x="1056" y="1360" on="1"/>
        <pt x="870" y="1360" on="0"/>
        <pt x="712" y="1144" on="1"/>
        <pt x="613" y="1009" on="0"/>
        <pt x="554" y="755" on="1"/>
        <pt x="392" y="50" on="1"/>
        <pt x="181" y="-40" on="1"/>
      </contour>
      <contour>
        <pt x="990" y="1566" on="1"/>
        <pt x="856" y="1911" on="1"/>
        <pt x="985" y="1966" on="1"/>
        <pt x="995" y="1966" on="1"/>
        <pt x="1097" y="1758" on="1"/>
        <pt x="1293" y="1966" on="1"/>
        <pt x="1303" y="1966" on="1"/>
        <pt x="1408" y="1911" on="1"/>
        <pt x="1195" y="1650" on="1"/>
        <pt x="1000" y="1566" on="1"/>
      </contour>
    </TTGlyph>
    <TTGlyph name="Dcroat" xMin="171" yMin="-40" xMax="1514" yMax="1530">
      <contour>
        <pt x="171" y="-40" on="1"/>
        <pt x="334" y="670" on="1"/>
        <pt x="205" y="670" on="1"/>
        <pt x="207" y="680" on="1"/>
        <pt x="319" y="840" on="1"/>
        <pt x="376" y="840" on="1"/>
        <pt x="442" y="1072" on="0"/>
        <pt x="558" y="1222" on="1"/>
        <pt x="796" y="1530" on="0"/>
        <pt x="1095" y="1530" on="1"/>
        <pt x="1396" y="1530" on="0"/>
        <pt x="1490" y="1222" on="1"/>
        <pt x="1514" y="1143" on="0"/>
        <pt x="1514" y="1041" on="1"/>
        <pt x="1514" y="917" on="0"/>
        <pt x="1478" y="755" on="1"/>
        <pt x="1421" y="504" on="0"/>
        <pt x="1278" y="314" on="1"/>
        <pt x="1042" y="0" on="0"/>
        <pt x="742" y="0" on="1"/>
        <pt x="549" y="0" on="1"/>
        <pt x="551" y="10" on="1"/>
        <pt x="663" y="170" on="1"/>
        <pt x="781" y="170" on="1"/>
        <pt x="966" y="170" on="0"/>
        <pt x="1124" y="392" on="1"/>
        <pt x="1228" y="538" on="0"/>
        <pt x="1278" y="755" on="1"/>
        <pt x="1314" y="911" on="0"/>
        <pt x="1314" y="1022" on="1"/>
        <pt x="1314" y="1091" on="0"/>
        <pt x="1300" y="1144" on="1"/>
        <pt x="1243" y="1360" on="0"/>
        <pt x="1056" y="1360" on="1"/>
        <pt x="870" y="1360" on="0"/>
        <pt x="712" y="1144" on="1"/>
        <pt x="630" y="1032" on="0"/>
        <pt x="576" y="840" on="1"/>
        <pt x="1045" y="840" on="1"/>
        <pt x="1043" y="830" on="1"/>
        <pt x="931" y="670" on="1"/>
        <pt x="534" y="670" on="1"/>
        <pt x="392" y="50" on="1"/>
        <pt x="181" y="-40" on="1"/>
      </contour>
    </TTGlyph>
    <TTGlyph name="Delta" xMin="77" yMin="0" xMax="1129" yMax="1550">
      <contour>
        <pt x="243" y="0" on="1"/>
        <pt x="77" y="0" on="0"/>
        <pt x="77" y="99" on="1"/>
        <pt x="77" y="115" on="0"/>
        <pt x="81" y="134" on="1"/>
        <pt x="100" y="222" on="0"/>
        <pt x="223" y="435" on="1"/>
        <pt x="805" y="1468" on="1"/>
        <pt x="997" y="1550" on="1"/>
        <pt x="1007" y="1550" on="1"/>
        <pt x="1115" y="435" on="1"/>
        <pt x="1129" y="324" on="0"/>
        <pt x="1129" y="245" on="1"/>
        <pt x="1129" y="178" on="0"/>
        <pt x="1119" y="134" on="1"/>
        <pt x="1089" y="0" on="0"/>
        <pt x="895" y="0" on="1"/>
      </contour>
      <contour>
        <pt x="282" y="170" on="1"/>
        <pt x="931" y="170" on="1"/>
        <pt x="852" y="1215" on="1"/>
      </contour>
    </TTGlyph>
    <TTGlyph name="E" xMin="287" yMin="-20" xMax="1460" yMax="1530">
      <contour>
        <pt x="1355" y="474" on="1"/>
        <pt x="1315" y="380" on="0"/>
        <pt x="1244" y="288" on="1"/>
        <pt x="1007" y="-20" on="0"/>
        <pt x="707" y="-20" on="1"/>
        <pt x="409" y="-20" on="0"/>
        <pt x="312" y="288" on="1"/>
        <pt x="287" y="367" on="0"/>
        <pt x="287" y="470" on="1"/>
        <pt x="287" y="596" on="0"/>
        <pt x="324" y="755" on="1"/>
        <pt x="392" y="1047" on="0"/>
        <pt x="528" y="1222" on="1"/>
        <pt x="768" y="1530" on="0"/>
        <pt x="1065" y="1530" on="1"/>
        <pt x="1364" y="1530" on="0"/>
        <pt x="1460" y="1222" on="1"/>
        <pt x="1280" y="1144" on="1"/>
        <pt x="1270" y="1144" on="1"/>
        <pt x="1212" y="1360" on="0"/>
        <pt x="840" y="1360" on="0"/>
        <pt x="682" y="1144" on="1"/>
        <pt x="601" y="1033" on="0"/>
        <pt x="546" y="840" on="1"/>
        <pt x="1144" y="840" on="1"/>
        <pt x="1142" y="830" on="1"/>
        <pt x="1030" y="670" on="1"/>
        <pt x="507" y="670" on="1"/>
        <pt x="488" y="564" on="0"/>
        <pt x="488" y="484" on="1"/>
        <pt x="488" y="415" on="0"/>
        <pt x="502" y="366" on="1"/>
        <pt x="564" y="150" on="0"/>
        <pt x="747" y="150" on="1"/>
        <pt x="932" y="150" on="0"/>
        <pt x="1090" y="366" on="1"/>
        <pt x="1345" y="474" on="1"/>
      </contour>
    </TTGlyph>
    <TTGlyph name="Eacute" xMin="287" yMin="-20" xMax="1460" yMax="1966">
      <contour>
        <pt x="1355" y="474" on="1"/>
        <pt x="1315" y="380" on="0"/>
        <pt x="1244" y="288" on="1"/>
        <pt x="1007" y="-20" on="0"/>
        <pt x="707" y="-20" on="1"/>
        <pt x="409" y="-20" on="0"/>
        <pt x="312" y="288" on="1"/>
        <pt x="287" y="367" on="0"/>
        <pt x="287" y="470" on="1"/>
        <pt x="287" y="596" on="0"/>
        <pt x="324" y="755" on="1"/>
        <pt x="392" y="1047" on="0"/>
        <pt x="528" y="1222" on="1"/>
        <pt x="768" y="1530" on="0"/>
        <pt x="1065" y="1530" on="1"/>
        <pt x="1364" y="1530" on="0"/>
        <pt x="1460" y="1222" on="1"/>
        <pt x="1280" y="1144" on="1"/>
        <pt x="1270" y="1144" on="1"/>
        <pt x="1212" y="1360" on="0"/>
        <pt x="840" y="1360" on="0"/>
        <pt x="682" y="1144" on="1"/>
        <pt x="601" y="1033" on="0"/>
        <pt x="546" y="840" on="1"/>
        <pt x="1144" y="840" on="1"/>
        <pt x="1142" y="830" on="1"/>
        <pt x="1030" y="670" on="1"/>
        <pt x="507" y="670" on="1"/>
        <pt x="488" y="564" on="0"/>
        <pt x="488" y="484" on="1"/>
        <pt x="488" y="415" on="0"/>
        <pt x="502" y="366" on="1"/>
        <pt x="564" y="150" on="0"/>
        <pt x="747" y="150" on="1"/>
        <pt x="932" y="150" on="0"/>
        <pt x="1090" y="366" on="1"/>
        <pt x="1345" y="474" on="1"/>
      </contour>
      <contour>
        <pt x="1283" y="1966" on="1"/>
        <pt x="1293" y="1966" on="1"/>
        <pt x="1450" y="1882" on="1"/>
        <pt x="1156" y="1566" on="1"/>
        <pt x="1146" y="1566" on="1"/>
        <pt x="1042" y="1621" on="1"/>
      </contour>
    </TTGlyph>
    <TTGlyph name="Ebreve" xMin="287" yMin="-20" xMax="1460" yMax="1947">
      <contour>
        <pt x="1355" y="474" on="1"/>
        <pt x="1315" y="380" on="0"/>
        <pt x="1244" y="288" on="1"/>
        <pt x="1007" y="-20" on="0"/>
        <pt x="707" y="-20" on="1"/>
        <pt x="409" y="-20" on="0"/>
        <pt x="312" y="288" on="1"/>
        <pt x="287" y="367" on="0"/>
        <pt x="287" y="470" on="1"/>
        <pt x="287" y="596" on="0"/>
        <pt x="324" y="755" on="1"/>
        <pt x="392" y="1047" on="0"/>
        <pt x="528" y="1222" on="1"/>
        <pt x="768" y="1530" on="0"/>
        <pt x="1065" y="1530" on="1"/>
        <pt x="1364" y="1530" on="0"/>
        <pt x="1460" y="1222" on="1"/>
        <pt x="1280" y="1144" on="1"/>
        <pt x="1270" y="1144" on="1"/>
        <pt x="1212" y="1360" on="0"/>
        <pt x="840" y="1360" on="0"/>
        <pt x="682" y="1144" on="1"/>
        <pt x="601" y="1033" on="0"/>
        <pt x="546" y="840" on="1"/>
        <pt x="1144" y="840" on="1"/>
        <pt x="1142" y="830" on="1"/>
        <pt x="1030" y="670" on="1"/>
        <pt x="507" y="670" on="1"/>
        <pt x="488" y="564" on="0"/>
        <pt x="488" y="484" on="1"/>
        <pt x="488" y="415" on="0"/>
        <pt x="502" y="366" on="1"/>
        <pt x="564" y="150" on="0"/>
        <pt x="747" y="150" on="1"/>
        <pt x="932" y="150" on="0"/>
        <pt x="1090" y="366" on="1"/>
        <pt x="1345" y="474" on="1"/>
      </contour>
      <contour>
        <pt x="885" y="1788" on="1"/>
        <pt x="887" y="1798" on="1"/>
        <pt x="995" y="1947" on="1"/>
        <pt x="1036" y="1813" on="0"/>
        <pt x="1236" y="1813" on="0"/>
        <pt x="1339" y="1947" on="1"/>
        <pt x="1381" y="1798" on="1"/>
        <pt x="1379" y="1788" on="1"/>
        <pt x="1242" y="1638" on="0"/>
        <pt x="1094" y="1638" on="1"/>
        <pt x="940" y="1638" on="0"/>
      </contour>
    </TTGlyph>
    <TTGlyph name="Ecaron" xMin="287" yMin="-20" xMax="1460" yMax="1966">
      <contour>
        <pt x="1355" y="474" on="1"/>
        <pt x="1315" y="380" on="0"/>
        <pt x="1244" y="288" on="1"/>
        <pt x="1007" y="-20" on="0"/>
        <pt x="707" y="-20" on="1"/>
        <pt x="409" y="-20" on="0"/>
        <pt x="312" y="288" on="1"/>
        <pt x="287" y="367" on="0"/>
        <pt x="287" y="470" on="1"/>
        <pt x="287" y="596" on="0"/>
        <pt x="324" y="755" on="1"/>
        <pt x="392" y="1047" on="0"/>
        <pt x="528" y="1222" on="1"/>
        <pt x="768" y="1530" on="0"/>
        <pt x="1065" y="1530" on="1"/>
        <pt x="1364" y="1530" on="0"/>
        <pt x="1460" y="1222" on="1"/>
        <pt x="1280" y="1144" on="1"/>
        <pt x="1270" y="1144" on="1"/>
        <pt x="1212" y="1360" on="0"/>
        <pt x="840" y="1360" on="0"/>
        <pt x="682" y="1144" on="1"/>
        <pt x="601" y="1033" on="0"/>
        <pt x="546" y="840" on="1"/>
        <pt x="1144" y="840" on="1"/>
        <pt x="1142" y="830" on="1"/>
        <pt x="1030" y="670" on="1"/>
        <pt x="507" y="670" on="1"/>
        <pt x="488" y="564" on="0"/>
        <pt x="488" y="484" on="1"/>
        <pt x="488" y="415" on="0"/>
        <pt x="502" y="366" on="1"/>
        <pt x="564" y="150" on="0"/>
        <pt x="747" y="150" on="1"/>
        <pt x="932" y="150" on="0"/>
        <pt x="1090" y="366" on="1"/>
        <pt x="1345" y="474" on="1"/>
      </contour>
      <contour>
        <pt x="1008" y="1566" on="1"/>
        <pt x="875" y="1911" on="1"/>
        <pt x="1003" y="1966" on="1"/>
        <pt x="1013" y="1966" on="1"/>
        <pt x="1115" y="1758" on="1"/>
        <pt x="1311" y="1966" on="1"/>
        <pt x="1321" y="1966" on="1"/>
        <pt x="1427" y="1911" on="1"/>
        <pt x="1213" y="1650" on="1"/>
        <pt x="1018" y="1566" on="1"/>
      </contour>
    </TTGlyph>
    <TTGlyph name="Ecircumflex" xMin="287" yMin="-20" xMax="1460" yMax="1966">
      <contour>
        <pt x="1355" y="474" on="1"/>
        <pt x="1315" y="380" on="0"/>
        <pt x="1244" y="288" on="1"/>
        <pt x="1007" y="-20" on="0"/>
        <pt x="707" y="-20" on="1"/>
        <pt x="409" y="-20" on="0"/>
        <pt x="312" y="288" on="1"/>
        <pt x="287" y="367" on="0"/>
        <pt x="287" y="470" on="1"/>
        <pt x="287" y="596" on="0"/>
        <pt x="324" y="755" on="1"/>
        <pt x="392" y="1047" on="0"/>
        <pt x="528" y="1222" on="1"/>
        <pt x="768" y="1530" on="0"/>
        <pt x="1065" y="1530" on="1"/>
        <pt x="1364" y="1530" on="0"/>
        <pt x="1460" y="1222" on="1"/>
        <pt x="1280" y="1144" on="1"/>
        <pt x="1270" y="1144" on="1"/>
        <pt x="1212" y="1360" on="0"/>
        <pt x="840" y="1360" on="0"/>
        <pt x="682" y="1144" on="1"/>
        <pt x="601" y="1033" on="0"/>
        <pt x="546" y="840" on="1"/>
        <pt x="1144" y="840" on="1"/>
        <pt x="1142" y="830" on="1"/>
        <pt x="1030" y="670" on="1"/>
        <pt x="507" y="670" on="1"/>
        <pt x="488" y="564" on="0"/>
        <pt x="488" y="484" on="1"/>
        <pt x="488" y="415" on="0"/>
        <pt x="502" y="366" on="1"/>
        <pt x="564" y="150" on="0"/>
        <pt x="747" y="150" on="1"/>
        <pt x="932" y="150" on="0"/>
        <pt x="1090" y="366" on="1"/>
        <pt x="1345" y="474" on="1"/>
      </contour>
      <contour>
        <pt x="825" y="1621" on="1"/>
        <pt x="1038" y="1882" on="1"/>
        <pt x="1233" y="1966" on="1"/>
        <pt x="1243" y="1966" on="1"/>
        <pt x="1377" y="1621" on="1"/>
        <pt x="1248" y="1566" on="1"/>
        <pt x="1238" y="1566" on="1"/>
        <pt x="1136" y="1774" on="1"/>
        <pt x="940" y="1566" on="1"/>
        <pt x="930" y="1566" on="1"/>
      </contour>
    </TTGlyph>
    <TTGlyph name="Edieresis" xMin="287" yMin="-20" xMax="1460" yMax="1925">
      <contour>
        <pt x="1186" y="1802" on="1"/>
        <pt x="1198" y="1853" on="0"/>
        <pt x="1284" y="1925" on="0"/>
        <pt x="1386" y="1925" on="0"/>
        <pt x="1412" y="1889" on="1"/>
        <pt x="1431" y="1863" on="0"/>
        <pt x="1431" y="1832" on="1"/>
        <pt x="1431" y="1820" on="0"/>
        <pt x="1427" y="1802" on="1"/>
        <pt x="1412" y="1749" on="0"/>
        <pt x="1372" y="1716" on="1"/>
        <pt x="1328" y="1680" on="0"/>
        <pt x="1277" y="1680" on="1"/>
        <pt x="1227" y="1680" on="0"/>
        <pt x="1200" y="1717" on="1"/>
        <pt x="1182" y="1741" on="0"/>
        <pt x="1182" y="1770" on="1"/>
        <pt x="1182" y="1784" on="0"/>
      </contour>
      <contour>
        <pt x="885" y="1802" on="1"/>
        <pt x="897" y="1853" on="0"/>
        <pt x="983" y="1925" on="0"/>
        <pt x="1085" y="1925" on="0"/>
        <pt x="1111" y="1889" on="1"/>
        <pt x="1130" y="1863" on="0"/>
        <pt x="1130" y="1832" on="1"/>
        <pt x="1130" y="1820" on="0"/>
        <pt x="1126" y="1802" on="1"/>
        <pt x="1111" y="1749" on="0"/>
        <pt x="1071" y="1716" on="1"/>
        <pt x="1027" y="1680" on="0"/>
        <pt x="976" y="1680" on="1"/>
        <pt x="926" y="1680" on="0"/>
        <pt x="899" y="1717" on="1"/>
        <pt x="881" y="1741" on="0"/>
        <pt x="881" y="1770" on="1"/>
        <pt x="881" y="1784" on="0"/>
      </contour>
      <contour>
        <pt x="1355" y="474" on="1"/>
        <pt x="1315" y="380" on="0"/>
        <pt x="1244" y="288" on="1"/>
        <pt x="1007" y="-20" on="0"/>
        <pt x="707" y="-20" on="1"/>
        <pt x="409" y="-20" on="0"/>
        <pt x="312" y="288" on="1"/>
        <pt x="287" y="367" on="0"/>
        <pt x="287" y="470" on="1"/>
        <pt x="287" y="596" on="0"/>
        <pt x="324" y="755" on="1"/>
        <pt x="392" y="1047" on="0"/>
        <pt x="528" y="1222" on="1"/>
        <pt x="768" y="1530" on="0"/>
        <pt x="1065" y="1530" on="1"/>
        <pt x="1364" y="1530" on="0"/>
        <pt x="1460" y="1222" on="1"/>
        <pt x="1280" y="1144" on="1"/>
        <pt x="1270" y="1144" on="1"/>
        <pt x="1212" y="1360" on="0"/>
        <pt x="840" y="1360" on="0"/>
        <pt x="682" y="1144" on="1"/>
        <pt x="601" y="1033" on="0"/>
        <pt x="546" y="840" on="1"/>
        <pt x="1144" y="840" on="1"/>
        <pt x="1142" y="830" on="1"/>
        <pt x="1030" y="670" on="1"/>
        <pt x="507" y="670" on="1"/>
        <pt x="488" y="564" on="0"/>
        <pt x="488" y="484" on="1"/>
        <pt x="488" y="415" on="0"/>
        <pt x="502" y="366" on="1"/>
        <pt x="564" y="150" on="0"/>
        <pt x="747" y="150" on="1"/>
        <pt x="932" y="150" on="0"/>
        <pt x="1090" y="366" on="1"/>
        <pt x="1345" y="474" on="1"/>
      </contour>
    </TTGlyph>
    <TTGlyph name="Edotaccent" xMin="287" yMin="-20" xMax="1460" yMax="1925">
      <contour>
        <pt x="1003" y="1802" on="1"/>
        <pt x="1015" y="1853" on="0"/>
        <pt x="1101" y="1925" on="0"/>
        <pt x="1203" y="1925" on="0"/>
        <pt x="1229" y="1889" on="1"/>
        <pt x="1248" y="1863" on="0"/>
        <pt x="1248" y="1832" on="1"/>
        <pt x="1248" y="1820" on="0"/>
        <pt x="1244" y="1802" on="1"/>
        <pt x="1229" y="1749" on="0"/>
        <pt x="1189" y="1716" on="1"/>
        <pt x="1145" y="1680" on="0"/>
        <pt x="1094" y="1680" on="1"/>
        <pt x="1044" y="1680" on="0"/>
        <pt x="1017" y="1717" on="1"/>
        <pt x="999" y="1741" on="0"/>
        <pt x="999" y="1770" on="1"/>
        <pt x="999" y="1784" on="0"/>
      </contour>
      <contour>
        <pt x="1355" y="474" on="1"/>
        <pt x="1315" y="380" on="0"/>
        <pt x="1244" y="288" on="1"/>
        <pt x="1007" y="-20" on="0"/>
        <pt x="707" y="-20" on="1"/>
        <pt x="409" y="-20" on="0"/>
        <pt x="312" y="288" on="1"/>
        <pt x="287" y="367" on="0"/>
        <pt x="287" y="470" on="1"/>
        <pt x="287" y="596" on="0"/>
        <pt x="324" y="755" on="1"/>
        <pt x="392" y="1047" on="0"/>
        <pt x="528" y="1222" on="1"/>
        <pt x="768" y="1530" on="0"/>
        <pt x="1065" y="1530" on="1"/>
        <pt x="1364" y="1530" on="0"/>
        <pt x="1460" y="1222" on="1"/>
        <pt x="1280" y="1144" on="1"/>
        <pt x="1270" y="1144" on="1"/>
        <pt x="1212" y="1360" on="0"/>
        <pt x="840" y="1360" on="0"/>
        <pt x="682" y="1144" on="1"/>
        <pt x="601" y="1033" on="0"/>
        <pt x="546" y="840" on="1"/>
        <pt x="1144" y="840" on="1"/>
        <pt x="1142" y="830" on="1"/>
        <pt x="1030" y="670" on="1"/>
        <pt x="507" y="670" on="1"/>
        <pt x="488" y="564" on="0"/>
        <pt x="488" y="484" on="1"/>
        <pt x="488" y="415" on="0"/>
        <pt x="502" y="366" on="1"/>
        <pt x="564" y="150" on="0"/>
        <pt x="747" y="150" on="1"/>
        <pt x="932" y="150" on="0"/>
        <pt x="1090" y="366" on="1"/>
        <pt x="1345" y="474" on="1"/>
      </contour>
    </TTGlyph>
    <TTGlyph name="Egrave" xMin="287" yMin="-20" xMax="1460" yMax="1966">
      <contour>
        <pt x="1355" y="474" on="1"/>
        <pt x="1315" y="380" on="0"/>
        <pt x="1244" y="288" on="1"/>
        <pt x="1007" y="-20" on="0"/>
        <pt x="707" y="-20" on="1"/>
        <pt x="409" y="-20" on="0"/>
        <pt x="312" y="288" on="1"/>
        <pt x="287" y="367" on="0"/>
        <pt x="287" y="470" on="1"/>
        <pt x="287" y="596" on="0"/>
        <pt x="324" y="755" on="1"/>
        <pt x="392" y="1047" on="0"/>
        <pt x="528" y="1222" on="1"/>
        <pt x="768" y="1530" on="0"/>
        <pt x="1065" y="1530" on="1"/>
        <pt x="1364" y="1530" on="0"/>
        <pt x="1460" y="1222" on="1"/>
        <pt x="1280" y="1144" on="1"/>
        <pt x="1270" y="1144" on="1"/>
        <pt x="1212" y="1360" on="0"/>
        <pt x="840" y="1360" on="0"/>
        <pt x="682" y="1144" on="1"/>
        <pt x="601" y="1033" on="0"/>
        <pt x="546" y="840" on="1"/>
        <pt x="1144" y="840" on="1"/>
        <pt x="1142" y="830" on="1"/>
        <pt x="1030" y="670" on="1"/>
        <pt x="507" y="670" on="1"/>
        <pt x="488" y="564" on="0"/>
        <pt x="488" y="484" on="1"/>
        <pt x="488" y="415" on="0"/>
        <pt x="502" y="366" on="1"/>
        <pt x="564" y="150" on="0"/>
        <pt x="747" y="150" on="1"/>
        <pt x="932" y="150" on="0"/>
        <pt x="1090" y="366" on="1"/>
        <pt x="1345" y="474" on="1"/>
      </contour>
      <contour>
        <pt x="1046" y="1966" on="1"/>
        <pt x="1056" y="1966" on="1"/>
        <pt x="1139" y="1621" on="1"/>
        <pt x="1009" y="1566" on="1"/>
        <pt x="999" y="1566" on="1"/>
        <pt x="851" y="1882" on="1"/>
      </contour>
    </TTGlyph>
    <TTGlyph name="Emacron" xMin="287" yMin="-20" xMax="1460" yMax="1820">
      <contour>
        <pt x="1355" y="474" on="1"/>
        <pt x="1315" y="380" on="0"/>
        <pt x="1244" y="288" on="1"/>
        <pt x="1007" y="-20" on="0"/>
        <pt x="707" y="-20" on="1"/>
        <pt x="409" y="-20" on="0"/>
        <pt x="312" y="288" on="1"/>
        <pt x="287" y="367" on="0"/>
        <pt x="287" y="470" on="1"/>
        <pt x="287" y="596" on="0"/>
        <pt x="324" y="755" on="1"/>
        <pt x="392" y="1047" on="0"/>
        <pt x="528" y="1222" on="1"/>
        <pt x="768" y="1530" on="0"/>
        <pt x="1065" y="1530" on="1"/>
        <pt x="1364" y="1530" on="0"/>
        <pt x="1460" y="1222" on="1"/>
        <pt x="1280" y="1144" on="1"/>
        <pt x="1270" y="1144" on="1"/>
        <pt x="1212" y="1360" on="0"/>
        <pt x="840" y="1360" on="0"/>
        <pt x="682" y="1144" on="1"/>
        <pt x="601" y="1033" on="0"/>
        <pt x="546" y="840" on="1"/>
        <pt x="1144" y="840" on="1"/>
        <pt x="1142" y="830" on="1"/>
        <pt x="1030" y="670" on="1"/>
        <pt x="507" y="670" on="1"/>
        <pt x="488" y="564" on="0"/>
        <pt x="488" y="484" on="1"/>
        <pt x="488" y="415" on="0"/>
        <pt x="502" y="366" on="1"/>
        <pt x="564" y="150" on="0"/>
        <pt x="747" y="150" on="1"/>
        <pt x="932" y="150" on="0"/>
        <pt x="1090" y="366" on="1"/>
        <pt x="1345" y="474" on="1"/>
      </contour>
      <contour>
        <pt x="852" y="1638" on="1"/>
        <pt x="854" y="1648" on="1"/>
        <pt x="975" y="1820" on="1"/>
        <pt x="1433" y="1820" on="1"/>
        <pt x="1431" y="1810" on="1"/>
        <pt x="1310" y="1638" on="1"/>
      </contour>
    </TTGlyph>
    <TTGlyph name="Eng" xMin="171" yMin="-440" xMax="1515" yMax="1530">
      <contour>
        <pt x="171" y="-40" on="1"/>
        <pt x="354" y="755" on="1"/>
        <pt x="421" y="1046" on="0"/>
        <pt x="558" y="1222" on="1"/>
        <pt x="798" y="1530" on="0"/>
        <pt x="1095" y="1530" on="1"/>
        <pt x="1394" y="1530" on="0"/>
        <pt x="1490" y="1222" on="1"/>
        <pt x="1515" y="1142" on="0"/>
        <pt x="1515" y="1039" on="1"/>
        <pt x="1515" y="913" on="0"/>
        <pt x="1478" y="755" on="1"/>
        <pt x="1386" y="355" on="1"/>
        <pt x="1320" y="70" on="0"/>
        <pt x="1182" y="-112" on="1"/>
        <pt x="989" y="-366" on="0"/>
        <pt x="754" y="-440" on="1"/>
        <pt x="744" y="-440" on="1"/>
        <pt x="704" y="-291" on="1"/>
        <pt x="901" y="-207" on="0"/>
        <pt x="1028" y="-34" on="1"/>
        <pt x="1127" y="101" on="0"/>
        <pt x="1186" y="355" on="1"/>
        <pt x="1278" y="755" on="1"/>
        <pt x="1314" y="911" on="0"/>
        <pt x="1314" y="1022" on="1"/>
        <pt x="1314" y="1091" on="0"/>
        <pt x="1300" y="1144" on="1"/>
        <pt x="1243" y="1360" on="0"/>
        <pt x="869" y="1360" on="0"/>
        <pt x="712" y="1144" on="1"/>
        <pt x="613" y="1008" on="0"/>
        <pt x="554" y="755" on="1"/>
        <pt x="392" y="50" on="1"/>
        <pt x="181" y="-40" on="1"/>
      </contour>
    </TTGlyph>
    <TTGlyph name="Eogonek" xMin="287" yMin="-450" xMax="1460" yMax="1530">
      <contour>
        <pt x="1355" y="474" on="1"/>
        <pt x="1315" y="381" on="0"/>
        <pt x="1244" y="288" on="1"/>
        <pt x="1141" y="154" on="0"/>
        <pt x="1025" y="78" on="1"/>
        <pt x="939" y="-3" on="0"/>
        <pt x="902" y="-152" on="1"/>
        <pt x="896" y="-176" on="0"/>
        <pt x="896" y="-199" on="1"/>
        <pt x="897" y="-290" on="0"/>
        <pt x="988" y="-360" on="1"/>
        <pt x="777" y="-450" on="1"/>
        <pt x="767" y="-450" on="1"/>
        <pt x="705" y="-372" on="0"/>
        <pt x="705" y="-278" on="1"/>
        <pt x="705" y="-243" on="0"/>
        <pt x="714" y="-206" on="1"/>
        <pt x="742" y="-93" on="0"/>
        <pt x="845" y="-3" on="1"/>
        <pt x="778" y="-20" on="0"/>
        <pt x="707" y="-20" on="1"/>
        <pt x="409" y="-20" on="0"/>
        <pt x="312" y="288" on="1"/>
        <pt x="287" y="367" on="0"/>
        <pt x="287" y="470" on="1"/>
        <pt x="287" y="596" on="0"/>
        <pt x="324" y="755" on="1"/>
        <pt x="392" y="1047" on="0"/>
        <pt x="528" y="1222" on="1"/>
        <pt x="768" y="1530" on="0"/>
        <pt x="1065" y="1530" on="1"/>
        <pt x="1364" y="1530" on="0"/>
        <pt x="1460" y="1222" on="1"/>
        <pt x="1280" y="1144" on="1"/>
        <pt x="1270" y="1144" on="1"/>
        <pt x="1212" y="1360" on="0"/>
        <pt x="840" y="1360" on="0"/>
        <pt x="682" y="1144" on="1"/>
        <pt x="601" y="1033" on="0"/>
        <pt x="546" y="840" on="1"/>
        <pt x="1144" y="840" on="1"/>
        <pt x="1142" y="830" on="1"/>
        <pt x="1030" y="670" on="1"/>
        <pt x="507" y="670" on="1"/>
        <pt x="488" y="564" on="0"/>
        <pt x="488" y="484" on="1"/>
        <pt x="488" y="415" on="0"/>
        <pt x="502" y="366" on="1"/>
        <pt x="564" y="150" on="0"/>
        <pt x="747" y="150" on="1"/>
        <pt x="932" y="150" on="0"/>
        <pt x="1090" y="366" on="1"/>
        <pt x="1345" y="474" on="1"/>
      </contour>
    </TTGlyph>
    <TTGlyph name="Eth" xMin="171" yMin="-40" xMax="1514" yMax="1530">
      <contour>
        <pt x="171" y="-40" on="1"/>
        <pt x="334" y="670" on="1"/>
        <pt x="205" y="670" on="1"/>
        <pt x="207" y="680" on="1"/>
        <pt x="319" y="840" on="1"/>
        <pt x="376" y="840" on="1"/>
        <pt x="442" y="1072" on="0"/>
        <pt x="558" y="1222" on="1"/>
        <pt x="796" y="1530" on="0"/>
        <pt x="1095" y="1530" on="1"/>
        <pt x="1396" y="1530" on="0"/>
        <pt x="1490" y="1222" on="1"/>
        <pt x="1514" y="1143" on="0"/>
        <pt x="1514" y="1041" on="1"/>
        <pt x="1514" y="917" on="0"/>
        <pt x="1478" y="755" on="1"/>
        <pt x="1421" y="504" on="0"/>
        <pt x="1278" y="314" on="1"/>
        <pt x="1042" y="0" on="0"/>
        <pt x="742" y="0" on="1"/>
        <pt x="549" y="0" on="1"/>
        <pt x="551" y="10" on="1"/>
        <pt x="663" y="170" on="1"/>
        <pt x="781" y="170" on="1"/>
        <pt x="966" y="170" on="0"/>
        <pt x="1124" y="392" on="1"/>
        <pt x="1228" y="538" on="0"/>
        <pt x="1278" y="755" on="1"/>
        <pt x="1314" y="911" on="0"/>
        <pt x="1314" y="1022" on="1"/>
        <pt x="1314" y="1091" on="0"/>
        <pt x="1300" y="1144" on="1"/>
        <pt x="1243" y="1360" on="0"/>
        <pt x="1056" y="1360" on="1"/>
        <pt x="870" y="1360" on="0"/>
        <pt x="712" y="1144" on="1"/>
        <pt x="630" y="1032" on="0"/>
        <pt x="576" y="840" on="1"/>
        <pt x="1045" y="840" on="1"/>
        <pt x="1043" y="830" on="1"/>
        <pt x="931" y="670" on="1"/>
        <pt x="534" y="670" on="1"/>
        <pt x="392" y="50" on="1"/>
        <pt x="181" y="-40" on="1"/>
      </contour>
    </TTGlyph>
    <TTGlyph name="Euro" xMin="267" yMin="-20" xMax="1646" yMax="1530">
      <contour>
        <pt x="1223" y="689" on="1"/>
        <pt x="1221" y="679" on="1"/>
        <pt x="1100" y="507" on="1"/>
        <pt x="674" y="507" on="1"/>
        <pt x="674" y="498" on="0"/>
        <pt x="674" y="488" on="1"/>
        <pt x="674" y="421" on="0"/>
        <pt x="688" y="366" on="1"/>
        <pt x="748" y="150" on="0"/>
        <pt x="1118" y="150" on="0"/>
        <pt x="1276" y="366" on="1"/>
        <pt x="1531" y="474" on="1"/>
        <pt x="1541" y="474" on="1"/>
        <pt x="1501" y="380" on="0"/>
        <pt x="1430" y="288" on="1"/>
        <pt x="1193" y="-20" on="0"/>
        <pt x="893" y="-20" on="1"/>
        <pt x="595" y="-20" on="0"/>
        <pt x="498" y="288" on="1"/>
        <pt x="473" y="367" on="0"/>
        <pt x="473" y="471" on="1"/>
        <pt x="473" y="490" on="0"/>
        <pt x="474" y="507" on="1"/>
        <pt x="267" y="507" on="1"/>
        <pt x="269" y="517" on="1"/>
        <pt x="390" y="689" on="1"/>
        <pt x="496" y="689" on="1"/>
        <pt x="503" y="727" on="0"/>
        <pt x="510" y="755" on="1"/>
        <pt x="522" y="804" on="0"/>
        <pt x="529" y="828" on="1"/>
        <pt x="341" y="828" on="1"/>
        <pt x="343" y="838" on="1"/>
        <pt x="464" y="1010" on="1"/>
        <pt x="592" y="1010" on="1"/>
        <pt x="644" y="1131" on="0"/>
        <pt x="714" y="1222" on="1"/>
        <pt x="951" y="1530" on="0"/>
        <pt x="1251" y="1530" on="1"/>
        <pt x="1550" y="1530" on="0"/>
        <pt x="1646" y="1222" on="1"/>
        <pt x="1466" y="1144" on="1"/>
        <pt x="1456" y="1144" on="1"/>
        <pt x="1398" y="1360" on="0"/>
        <pt x="1212" y="1360" on="1"/>
        <pt x="1023" y="1360" on="0"/>
        <pt x="868" y="1144" on="1"/>
        <pt x="827" y="1087" on="0"/>
        <pt x="792" y="1010" on="1"/>
        <pt x="1297" y="1010" on="1"/>
        <pt x="1295" y="1000" on="1"/>
        <pt x="1174" y="828" on="1"/>
        <pt x="729" y="828" on="1"/>
        <pt x="716" y="784" on="0"/>
        <pt x="710" y="755" on="1"/>
        <pt x="702" y="719" on="0"/>
        <pt x="696" y="689" on="1"/>
      </contour>
    </TTGlyph>
    <TTGlyph name="F" xMin="171" yMin="-40" xMax="1490" yMax="1530">
      <contour>
        <pt x="171" y="-40" on="1"/>
        <pt x="354" y="755" on="1"/>
        <pt x="422" y="1048" on="0"/>
        <pt x="558" y="1222" on="1"/>
        <pt x="798" y="1530" on="0"/>
        <pt x="1095" y="1530" on="1"/>
        <pt x="1394" y="1530" on="0"/>
        <pt x="1490" y="1222" on="1"/>
        <pt x="1310" y="1144" on="1"/>
        <pt x="1300" y="1144" on="1"/>
        <pt x="1242" y="1360" on="0"/>
        <pt x="870" y="1360" on="0"/>
        <pt x="712" y="1144" on="1"/>
        <pt x="631" y="1033" on="0"/>
        <pt x="576" y="840" on="1"/>
        <pt x="1144" y="840" on="1"/>
        <pt x="1142" y="830" on="1"/>
        <pt x="1030" y="670" on="1"/>
        <pt x="535" y="670" on="1"/>
        <pt x="392" y="50" on="1"/>
        <pt x="181" y="-40" on="1"/>
      </contour>
    </TTGlyph>
    <TTGlyph name="G" xMin="287" yMin="-20" xMax="1468" yMax="1530">
      <contour>
        <pt x="1468" y="840" on="1"/>
        <pt x="1448" y="755" on="1"/>
        <pt x="1381" y="466" on="0"/>
        <pt x="1244" y="288" on="1"/>
        <pt x="1006" y="-20" on="0"/>
        <pt x="707" y="-20" on="1"/>
        <pt x="409" y="-20" on="0"/>
        <pt x="312" y="288" on="1"/>
        <pt x="287" y="367" on="0"/>
        <pt x="287" y="470" on="1"/>
        <pt x="287" y="596" on="0"/>
        <pt x="324" y="755" on="1"/>
        <pt x="392" y="1047" on="0"/>
        <pt x="528" y="1222" on="1"/>
        <pt x="768" y="1530" on="0"/>
        <pt x="1065" y="1530" on="1"/>
        <pt x="1364" y="1530" on="0"/>
        <pt x="1460" y="1222" on="1"/>
        <pt x="1280" y="1144" on="1"/>
        <pt x="1270" y="1144" on="1"/>
        <pt x="1212" y="1360" on="0"/>
        <pt x="1026" y="1360" on="1"/>
        <pt x="842" y="1360" on="0"/>
        <pt x="682" y="1144" on="1"/>
        <pt x="581" y="1008" on="0"/>
        <pt x="524" y="755" on="1"/>
        <pt x="488" y="596" on="0"/>
        <pt x="488" y="485" on="1"/>
        <pt x="488" y="417" on="0"/>
        <pt x="502" y="366" on="1"/>
        <pt x="561" y="150" on="0"/>
        <pt x="747" y="150" on="1"/>
        <pt x="930" y="150" on="0"/>
        <pt x="1090" y="366" on="1"/>
        <pt x="1172" y="477" on="0"/>
        <pt x="1227" y="670" on="1"/>
        <pt x="850" y="670" on="1"/>
        <pt x="852" y="680" on="1"/>
        <pt x="964" y="840" on="1"/>
      </contour>
    </TTGlyph>
    <TTGlyph name="Gbreve" xMin="287" yMin="-20" xMax="1468" yMax="1947">
      <contour>
        <pt x="1468" y="840" on="1"/>
        <pt x="1448" y="755" on="1"/>
        <pt x="1381" y="466" on="0"/>
        <pt x="1244" y="288" on="1"/>
        <pt x="1006" y="-20" on="0"/>
        <pt x="707" y="-20" on="1"/>
        <pt x="409" y="-20" on="0"/>
        <pt x="312" y="288" on="1"/>
        <pt x="287" y="367" on="0"/>
        <pt x="287" y="470" on="1"/>
        <pt x="287" y="596" on="0"/>
        <pt x="324" y="755" on="1"/>
        <pt x="392" y="1047" on="0"/>
        <pt x="528" y="1222" on="1"/>
        <pt x="768" y="1530" on="0"/>
        <pt x="1065" y="1530" on="1"/>
        <pt x="1364" y="1530" on="0"/>
        <pt x="1460" y="1222" on="1"/>
        <pt x="1280" y="1144" on="1"/>
        <pt x="1270" y="1144" on="1"/>
        <pt x="1212" y="1360" on="0"/>
        <pt x="1026" y="1360" on="1"/>
        <pt x="842" y="1360" on="0"/>
        <pt x="682" y="1144" on="1"/>
        <pt x="581" y="1008" on="0"/>
        <pt x="524" y="755" on="1"/>
        <pt x="488" y="596" on="0"/>
        <pt x="488" y="485" on="1"/>
        <pt x="488" y="417" on="0"/>
        <pt x="502" y="366" on="1"/>
        <pt x="561" y="150" on="0"/>
        <pt x="747" y="150" on="1"/>
        <pt x="930" y="150" on="0"/>
        <pt x="1090" y="366" on="1"/>
        <pt x="1172" y="477" on="0"/>
        <pt x="1227" y="670" on="1"/>
        <pt x="850" y="670" on="1"/>
        <pt x="852" y="680" on="1"/>
        <pt x="964" y="840" on="1"/>
      </contour>
      <contour>
        <pt x="881" y="1788" on="1"/>
        <pt x="883" y="1798" on="1"/>
        <pt x="992" y="1947" on="1"/>
        <pt x="1033" y="1813" on="0"/>
        <pt x="1233" y="1813" on="0"/>
        <pt x="1336" y="1947" on="1"/>
        <pt x="1377" y="1798" on="1"/>
        <pt x="1375" y="1788" on="1"/>
        <pt x="1238" y="1638" on="0"/>
        <pt x="1090" y="1638" on="1"/>
        <pt x="936" y="1638" on="0"/>
      </contour>
    </TTGlyph>
    <TTGlyph name="Gcircumflex" xMin="287" yMin="-20" xMax="1468" yMax="1966">
      <contour>
        <pt x="1468" y="840" on="1"/>
        <pt x="1448" y="755" on="1"/>
        <pt x="1381" y="466" on="0"/>
        <pt x="1244" y="288" on="1"/>
        <pt x="1006" y="-20" on="0"/>
        <pt x="707" y="-20" on="1"/>
        <pt x="409" y="-20" on="0"/>
        <pt x="312" y="288" on="1"/>
        <pt x="287" y="367" on="0"/>
        <pt x="287" y="470" on="1"/>
        <pt x="287" y="596" on="0"/>
        <pt x="324" y="755" on="1"/>
        <pt x="392" y="1047" on="0"/>
        <pt x="528" y="1222" on="1"/>
        <pt x="768" y="1530" on="0"/>
        <pt x="1065" y="1530" on="1"/>
        <pt x="1364" y="1530" on="0"/>
        <pt x="1460" y="1222" on="1"/>
        <pt x="1280" y="1144" on="1"/>
        <pt x="1270" y="1144" on="1"/>
        <pt x="1212" y="1360" on="0"/>
        <pt x="1026" y="1360" on="1"/>
        <pt x="842" y="1360" on="0"/>
        <pt x="682" y="1144" on="1"/>
        <pt x="581" y="1008" on="0"/>
        <pt x="524" y="755" on="1"/>
        <pt x="488" y="596" on="0"/>
        <pt x="488" y="485" on="1"/>
        <pt x="488" y="417" on="0"/>
        <pt x="502" y="366" on="1"/>
        <pt x="561" y="150" on="0"/>
        <pt x="747" y="150" on="1"/>
        <pt x="930" y="150" on="0"/>
        <pt x="1090" y="366" on="1"/>
        <pt x="1172" y="477" on="0"/>
        <pt x="1227" y="670" on="1"/>
        <pt x="850" y="670" on="1"/>
        <pt x="852" y="680" on="1"/>
        <pt x="964" y="840" on="1"/>
      </contour>
      <contour>
        <pt x="808" y="1621" on="1"/>
        <pt x="1021" y="1882" on="1"/>
        <pt x="1217" y="1966" on="1"/>
        <pt x="1227" y="1966" on="1"/>
        <pt x="1360" y="1621" on="1"/>
        <pt x="1232" y="1566" on="1"/>
        <pt x="1222" y="1566" on="1"/>
        <pt x="1120" y="1774" on="1"/>
        <pt x="924" y="1566" on="1"/>
        <pt x="914" y="1566" on="1"/>
      </contour>
    </TTGlyph>
    <TTGlyph name="Gcommaaccent" xMin="287" yMin="-450" xMax="1468" yMax="1530">
      <contour>
        <pt x="1468" y="840" on="1"/>
        <pt x="1448" y="755" on="1"/>
        <pt x="1381" y="466" on="0"/>
        <pt x="1244" y="288" on="1"/>
        <pt x="1006" y="-20" on="0"/>
        <pt x="707" y="-20" on="1"/>
        <pt x="409" y="-20" on="0"/>
        <pt x="312" y="288" on="1"/>
        <pt x="287" y="367" on="0"/>
        <pt x="287" y="470" on="1"/>
        <pt x="287" y="596" on="0"/>
        <pt x="324" y="755" on="1"/>
        <pt x="392" y="1047" on="0"/>
        <pt x="528" y="1222" on="1"/>
        <pt x="768" y="1530" on="0"/>
        <pt x="1065" y="1530" on="1"/>
        <pt x="1364" y="1530" on="0"/>
        <pt x="1460" y="1222" on="1"/>
        <pt x="1280" y="1144" on="1"/>
        <pt x="1270" y="1144" on="1"/>
        <pt x="1212" y="1360" on="0"/>
        <pt x="1026" y="1360" on="1"/>
        <pt x="842" y="1360" on="0"/>
        <pt x="682" y="1144" on="1"/>
        <pt x="581" y="1008" on="0"/>
        <pt x="524" y="755" on="1"/>
        <pt x="488" y="596" on="0"/>
        <pt x="488" y="485" on="1"/>
        <pt x="488" y="417" on="0"/>
        <pt x="502" y="366" on="1"/>
        <pt x="561" y="150" on="0"/>
        <pt x="747" y="150" on="1"/>
        <pt x="930" y="150" on="0"/>
        <pt x="1090" y="366" on="1"/>
        <pt x="1172" y="477" on="0"/>
        <pt x="1227" y="670" on="1"/>
        <pt x="850" y="670" on="1"/>
        <pt x="852" y="680" on="1"/>
        <pt x="964" y="840" on="1"/>
      </contour>
      <contour>
        <pt x="492" y="-450" on="1"/>
        <pt x="482" y="-450" on="1"/>
        <pt x="326" y="-366" on="1"/>
        <pt x="619" y="-50" on="1"/>
        <pt x="629" y="-50" on="1"/>
        <pt x="734" y="-105" on="1"/>
      </contour>
    </TTGlyph>
    <TTGlyph name="Gdotaccent" xMin="287" yMin="-20" xMax="1468" yMax="1925">
      <contour>
        <pt x="1003" y="1802" on="1"/>
        <pt x="1015" y="1853" on="0"/>
        <pt x="1101" y="1925" on="0"/>
        <pt x="1203" y="1925" on="0"/>
        <pt x="1229" y="1889" on="1"/>
        <pt x="1248" y="1863" on="0"/>
        <pt x="1248" y="1832" on="1"/>
        <pt x="1248" y="1820" on="0"/>
        <pt x="1244" y="1802" on="1"/>
        <pt x="1229" y="1749" on="0"/>
        <pt x="1189" y="1716" on="1"/>
        <pt x="1145" y="1680" on="0"/>
        <pt x="1094" y="1680" on="1"/>
        <pt x="1044" y="1680" on="0"/>
        <pt x="1017" y="1717" on="1"/>
        <pt x="999" y="1741" on="0"/>
        <pt x="999" y="1770" on="1"/>
        <pt x="999" y="1784" on="0"/>
      </contour>
      <contour>
        <pt x="1468" y="840" on="1"/>
        <pt x="1448" y="755" on="1"/>
        <pt x="1381" y="466" on="0"/>
        <pt x="1244" y="288" on="1"/>
        <pt x="1006" y="-20" on="0"/>
        <pt x="707" y="-20" on="1"/>
        <pt x="409" y="-20" on="0"/>
        <pt x="312" y="288" on="1"/>
        <pt x="287" y="367" on="0"/>
        <pt x="287" y="470" on="1"/>
        <pt x="287" y="596" on="0"/>
        <pt x="324" y="755" on="1"/>
        <pt x="392" y="1047" on="0"/>
        <pt x="528" y="1222" on="1"/>
        <pt x="768" y="1530" on="0"/>
        <pt x="1065" y="1530" on="1"/>
        <pt x="1364" y="1530" on="0"/>
        <pt x="1460" y="1222" on="1"/>
        <pt x="1280" y="1144" on="1"/>
        <pt x="1270" y="1144" on="1"/>
        <pt x="1212" y="1360" on="0"/>
        <pt x="1026" y="1360" on="1"/>
        <pt x="842" y="1360" on="0"/>
        <pt x="682" y="1144" on="1"/>
        <pt x="581" y="1008" on="0"/>
        <pt x="524" y="755" on="1"/>
        <pt x="488" y="596" on="0"/>
        <pt x="488" y="485" on="1"/>
        <pt x="488" y="417" on="0"/>
        <pt x="502" y="366" on="1"/>
        <pt x="561" y="150" on="0"/>
        <pt x="747" y="150" on="1"/>
        <pt x="930" y="150" on="0"/>
        <pt x="1090" y="366" on="1"/>
        <pt x="1172" y="477" on="0"/>
        <pt x="1227" y="670" on="1"/>
        <pt x="850" y="670" on="1"/>
        <pt x="852" y="680" on="1"/>
        <pt x="964" y="840" on="1"/>
      </contour>
    </TTGlyph>
    <TTGlyph name="H" xMin="191" yMin="-40" xMax="1514" yMax="1550">
      <contour>
        <pt x="191" y="-40" on="1"/>
        <pt x="537" y="1460" on="1"/>
        <pt x="748" y="1550" on="1"/>
        <pt x="758" y="1550" on="1"/>
        <pt x="594" y="840" on="1"/>
        <pt x="1296" y="840" on="1"/>
        <pt x="1314" y="942" on="0"/>
        <pt x="1314" y="1021" on="1"/>
        <pt x="1314" y="1091" on="0"/>
        <pt x="1300" y="1144" on="1"/>
        <pt x="1254" y="1317" on="0"/>
        <pt x="1094" y="1401" on="1"/>
        <pt x="1204" y="1550" on="1"/>
        <pt x="1214" y="1550" on="1"/>
        <pt x="1415" y="1476" on="0"/>
        <pt x="1490" y="1222" on="1"/>
        <pt x="1514" y="1141" on="0"/>
        <pt x="1514" y="1038" on="1"/>
        <pt x="1514" y="914" on="0"/>
        <pt x="1478" y="755" on="1"/>
        <pt x="1409" y="460" on="0"/>
        <pt x="1276" y="312" on="1"/>
        <pt x="1194" y="221" on="0"/>
        <pt x="1109" y="170" on="1"/>
        <pt x="1393" y="170" on="1"/>
        <pt x="1391" y="160" on="1"/>
        <pt x="1279" y="0" on="1"/>
        <pt x="726" y="0" on="1"/>
        <pt x="728" y="10" on="1"/>
        <pt x="840" y="170" on="1"/>
        <pt x="987" y="216" on="0"/>
        <pt x="1099" y="358" on="1"/>
        <pt x="1220" y="511" on="0"/>
        <pt x="1257" y="670" on="1"/>
        <pt x="555" y="670" on="1"/>
        <pt x="412" y="50" on="1"/>
        <pt x="201" y="-40" on="1"/>
      </contour>
    </TTGlyph>
    <TTGlyph name="Hbar" xMin="191" yMin="-40" xMax="1727" yMax="1550">
      <contour>
        <pt x="191" y="-40" on="1"/>
        <pt x="484" y="1230" on="1"/>
        <pt x="334" y="1230" on="1"/>
        <pt x="336" y="1240" on="1"/>
        <pt x="448" y="1400" on="1"/>
        <pt x="523" y="1400" on="1"/>
        <pt x="537" y="1460" on="1"/>
        <pt x="748" y="1550" on="1"/>
        <pt x="758" y="1550" on="1"/>
        <pt x="723" y="1400" on="1"/>
        <pt x="1096" y="1400" on="1"/>
        <pt x="1094" y="1401" on="1"/>
        <pt x="1204" y="1550" on="1"/>
        <pt x="1214" y="1550" on="1"/>
        <pt x="1333" y="1506" on="0"/>
        <pt x="1407" y="1400" on="1"/>
        <pt x="1727" y="1400" on="1"/>
        <pt x="1725" y="1390" on="1"/>
        <pt x="1613" y="1230" on="1"/>
        <pt x="1488" y="1230" on="1"/>
        <pt x="1490" y="1222" on="1"/>
        <pt x="1514" y="1141" on="0"/>
        <pt x="1514" y="1038" on="1"/>
        <pt x="1514" y="914" on="0"/>
        <pt x="1478" y="755" on="1"/>
        <pt x="1409" y="460" on="0"/>
        <pt x="1276" y="312" on="1"/>
        <pt x="1194" y="221" on="0"/>
        <pt x="1109" y="170" on="1"/>
        <pt x="1393" y="170" on="1"/>
        <pt x="1391" y="160" on="1"/>
        <pt x="1279" y="0" on="1"/>
        <pt x="726" y="0" on="1"/>
        <pt x="728" y="10" on="1"/>
        <pt x="840" y="170" on="1"/>
        <pt x="987" y="216" on="0"/>
        <pt x="1099" y="358" on="1"/>
        <pt x="1220" y="511" on="0"/>
        <pt x="1257" y="670" on="1"/>
        <pt x="555" y="670" on="1"/>
        <pt x="412" y="50" on="1"/>
        <pt x="201" y="-40" on="1"/>
      </contour>
      <contour>
        <pt x="1267" y="1230" on="1"/>
        <pt x="684" y="1230" on="1"/>
        <pt x="594" y="840" on="1"/>
        <pt x="1296" y="840" on="1"/>
        <pt x="1314" y="942" on="0"/>
        <pt x="1314" y="1021" on="1"/>
        <pt x="1314" y="1090" on="0"/>
        <pt x="1300" y="1144" on="1"/>
        <pt x="1288" y="1190" on="0"/>
      </contour>
    </TTGlyph>
    <TTGlyph name="Hcircumflex" xMin="191" yMin="-40" xMax="1514" yMax="1966">
      <contour>
        <pt x="191" y="-40" on="1"/>
        <pt x="537" y="1460" on="1"/>
        <pt x="748" y="1550" on="1"/>
        <pt x="758" y="1550" on="1"/>
        <pt x="594" y="840" on="1"/>
        <pt x="1296" y="840" on="1"/>
        <pt x="1314" y="942" on="0"/>
        <pt x="1314" y="1021" on="1"/>
        <pt x="1314" y="1091" on="0"/>
        <pt x="1300" y="1144" on="1"/>
        <pt x="1254" y="1317" on="0"/>
        <pt x="1094" y="1401" on="1"/>
        <pt x="1204" y="1550" on="1"/>
        <pt x="1214" y="1550" on="1"/>
        <pt x="1415" y="1476" on="0"/>
        <pt x="1490" y="1222" on="1"/>
        <pt x="1514" y="1141" on="0"/>
        <pt x="1514" y="1038" on="1"/>
        <pt x="1514" y="914" on="0"/>
        <pt x="1478" y="755" on="1"/>
        <pt x="1409" y="460" on="0"/>
        <pt x="1276" y="312" on="1"/>
        <pt x="1194" y="221" on="0"/>
        <pt x="1109" y="170" on="1"/>
        <pt x="1393" y="170" on="1"/>
        <pt x="1391" y="160" on="1"/>
        <pt x="1279" y="0" on="1"/>
        <pt x="726" y="0" on="1"/>
        <pt x="728" y="10" on="1"/>
        <pt x="840" y="170" on="1"/>
        <pt x="987" y="216" on="0"/>
        <pt x="1099" y="358" on="1"/>
        <pt x="1220" y="511" on="0"/>
        <pt x="1257" y="670" on="1"/>
        <pt x="555" y="670" on="1"/>
        <pt x="412" y="50" on="1"/>
        <pt x="201" y="-40" on="1"/>
      </contour>
      <contour>
        <pt x="748" y="1621" on="1"/>
        <pt x="961" y="1882" on="1"/>
        <pt x="1157" y="1966" on="1"/>
        <pt x="1167" y="1966" on="1"/>
        <pt x="1300" y="1621" on="1"/>
        <pt x="1172" y="1566" on="1"/>
        <pt x="1162" y="1566" on="1"/>
        <pt x="1060" y="1774" on="1"/>
        <pt x="864" y="1566" on="1"/>
        <pt x="854" y="1566" on="1"/>
      </contour>
    </TTGlyph>
    <TTGlyph name="I" xMin="190" yMin="-40" xMax="758" yMax="1550">
      <contour>
        <pt x="191" y="-40" on="1"/>
        <pt x="537" y="1460" on="1"/>
        <pt x="748" y="1550" on="1"/>
        <pt x="758" y="1550" on="1"/>
        <pt x="412" y="50" on="1"/>
        <pt x="201" y="-40" on="1"/>
      </contour>
    </TTGlyph>
    <TTGlyph name="IJ" xMin="191" yMin="-40" xMax="1884" yMax="1550">
      <contour>
        <pt x="615" y="288" on="1"/>
        <pt x="795" y="366" on="1"/>
        <pt x="805" y="366" on="1"/>
        <pt x="864" y="150" on="0"/>
        <pt x="1236" y="150" on="0"/>
        <pt x="1393" y="366" on="1"/>
        <pt x="1494" y="505" on="0"/>
        <pt x="1551" y="755" on="1"/>
        <pt x="1676" y="1296" on="1"/>
        <pt x="1686" y="1340" on="0"/>
        <pt x="1636" y="1340" on="1"/>
        <pt x="1104" y="1340" on="1"/>
        <pt x="1107" y="1350" on="1"/>
        <pt x="1219" y="1510" on="1"/>
        <pt x="1676" y="1510" on="1"/>
        <pt x="1884" y="1510" on="0"/>
        <pt x="1884" y="1361" on="1"/>
        <pt x="1884" y="1332" on="0"/>
        <pt x="1876" y="1296" on="1"/>
        <pt x="1751" y="755" on="1"/>
        <pt x="1684" y="466" on="0"/>
        <pt x="1547" y="288" on="1"/>
        <pt x="1309" y="-20" on="0"/>
        <pt x="711" y="-20" on="0"/>
      </contour>
      <contour>
        <pt x="191" y="-40" on="1"/>
        <pt x="537" y="1460" on="1"/>
        <pt x="748" y="1550" on="1"/>
        <pt x="758" y="1550" on="1"/>
        <pt x="412" y="50" on="1"/>
        <pt x="201" y="-40" on="1"/>
      </contour>
    </TTGlyph>
    <TTGlyph name="Iacute" xMin="191" yMin="-40" xMax="968" yMax="1966">
      <contour>
        <pt x="802" y="1966" on="1"/>
        <pt x="812" y="1966" on="1"/>
        <pt x="968" y="1882" on="1"/>
        <pt x="675" y="1566" on="1"/>
        <pt x="665" y="1566" on="1"/>
        <pt x="560" y="1621" on="1"/>
      </contour>
      <contour>
        <pt x="191" y="-40" on="1"/>
        <pt x="537" y="1460" on="1"/>
        <pt x="748" y="1550" on="1"/>
        <pt x="758" y="1550" on="1"/>
        <pt x="412" y="50" on="1"/>
        <pt x="201" y="-40" on="1"/>
      </contour>
    </TTGlyph>
    <TTGlyph name="Ibreve" xMin="191" yMin="-40" xMax="962" yMax="1947">
      <contour>
        <pt x="191" y="-40" on="1"/>
        <pt x="537" y="1460" on="1"/>
        <pt x="748" y="1550" on="1"/>
        <pt x="758" y="1550" on="1"/>
        <pt x="412" y="50" on="1"/>
        <pt x="201" y="-40" on="1"/>
      </contour>
      <contour>
        <pt x="466" y="1788" on="1"/>
        <pt x="468" y="1798" on="1"/>
        <pt x="576" y="1947" on="1"/>
        <pt x="618" y="1813" on="0"/>
        <pt x="818" y="1813" on="0"/>
        <pt x="920" y="1947" on="1"/>
        <pt x="962" y="1798" on="1"/>
        <pt x="960" y="1788" on="1"/>
        <pt x="823" y="1638" on="0"/>
        <pt x="675" y="1638" on="1"/>
        <pt x="521" y="1638" on="0"/>
      </contour>
    </TTGlyph>
    <TTGlyph name="Icircumflex" xMin="191" yMin="-40" xMax="950" yMax="1966">
      <contour>
        <pt x="191" y="-40" on="1"/>
        <pt x="537" y="1460" on="1"/>
        <pt x="748" y="1550" on="1"/>
        <pt x="758" y="1550" on="1"/>
        <pt x="412" y="50" on="1"/>
        <pt x="201" y="-40" on="1"/>
      </contour>
      <contour>
        <pt x="398" y="1621" on="1"/>
        <pt x="610" y="1882" on="1"/>
        <pt x="806" y="1966" on="1"/>
        <pt x="816" y="1966" on="1"/>
        <pt x="950" y="1621" on="1"/>
        <pt x="821" y="1566" on="1"/>
        <pt x="811" y="1566" on="1"/>
        <pt x="709" y="1774" on="1"/>
        <pt x="513" y="1566" on="1"/>
        <pt x="503" y="1566" on="1"/>
      </contour>
    </TTGlyph>
    <TTGlyph name="Idieresis" xMin="191" yMin="-40" xMax="990" yMax="1925">
      <contour>
        <pt x="745" y="1802" on="1"/>
        <pt x="757" y="1853" on="0"/>
        <pt x="843" y="1925" on="0"/>
        <pt x="945" y="1925" on="0"/>
        <pt x="971" y="1889" on="1"/>
        <pt x="990" y="1863" on="0"/>
        <pt x="990" y="1832" on="1"/>
        <pt x="990" y="1820" on="0"/>
        <pt x="986" y="1802" on="1"/>
        <pt x="971" y="1749" on="0"/>
        <pt x="931" y="1716" on="1"/>
        <pt x="887" y="1680" on="0"/>
        <pt x="836" y="1680" on="1"/>
        <pt x="786" y="1680" on="0"/>
        <pt x="759" y="1717" on="1"/>
        <pt x="741" y="1741" on="0"/>
        <pt x="741" y="1770" on="1"/>
        <pt x="741" y="1784" on="0"/>
      </contour>
      <contour>
        <pt x="444" y="1802" on="1"/>
        <pt x="456" y="1853" on="0"/>
        <pt x="542" y="1925" on="0"/>
        <pt x="644" y="1925" on="0"/>
        <pt x="670" y="1889" on="1"/>
        <pt x="689" y="1863" on="0"/>
        <pt x="689" y="1832" on="1"/>
        <pt x="689" y="1820" on="0"/>
        <pt x="685" y="1802" on="1"/>
        <pt x="670" y="1749" on="0"/>
        <pt x="630" y="1716" on="1"/>
        <pt x="586" y="1680" on="0"/>
        <pt x="535" y="1680" on="1"/>
        <pt x="485" y="1680" on="0"/>
        <pt x="458" y="1717" on="1"/>
        <pt x="440" y="1741" on="0"/>
        <pt x="440" y="1770" on="1"/>
        <pt x="440" y="1784" on="0"/>
      </contour>
      <contour>
        <pt x="191" y="-40" on="1"/>
        <pt x="537" y="1460" on="1"/>
        <pt x="748" y="1550" on="1"/>
        <pt x="758" y="1550" on="1"/>
        <pt x="412" y="50" on="1"/>
        <pt x="201" y="-40" on="1"/>
      </contour>
    </TTGlyph>
    <TTGlyph name="Idotaccent" xMin="191" yMin="-40" xMax="839" yMax="1925">
      <contour>
        <pt x="594" y="1802" on="1"/>
        <pt x="606" y="1853" on="0"/>
        <pt x="692" y="1925" on="0"/>
        <pt x="794" y="1925" on="0"/>
        <pt x="820" y="1889" on="1"/>
        <pt x="839" y="1863" on="0"/>
        <pt x="839" y="1832" on="1"/>
        <pt x="839" y="1820" on="0"/>
        <pt x="835" y="1802" on="1"/>
        <pt x="820" y="1749" on="0"/>
        <pt x="780" y="1716" on="1"/>
        <pt x="736" y="1680" on="0"/>
        <pt x="685" y="1680" on="1"/>
        <pt x="635" y="1680" on="0"/>
        <pt x="608" y="1717" on="1"/>
        <pt x="590" y="1741" on="0"/>
        <pt x="590" y="1770" on="1"/>
        <pt x="590" y="1784" on="0"/>
      </contour>
      <contour>
        <pt x="191" y="-40" on="1"/>
        <pt x="537" y="1460" on="1"/>
        <pt x="748" y="1550" on="1"/>
        <pt x="758" y="1550" on="1"/>
        <pt x="412" y="50" on="1"/>
        <pt x="201" y="-40" on="1"/>
      </contour>
    </TTGlyph>
    <TTGlyph name="Igrave" xMin="191" yMin="-40" xMax="788" yMax="1966">
      <contour>
        <pt x="696" y="1966" on="1"/>
        <pt x="706" y="1966" on="1"/>
        <pt x="788" y="1621" on="1"/>
        <pt x="659" y="1566" on="1"/>
        <pt x="649" y="1566" on="1"/>
        <pt x="500" y="1882" on="1"/>
      </contour>
      <contour>
        <pt x="191" y="-40" on="1"/>
        <pt x="537" y="1460" on="1"/>
        <pt x="748" y="1550" on="1"/>
        <pt x="758" y="1550" on="1"/>
        <pt x="412" y="50" on="1"/>
        <pt x="201" y="-40" on="1"/>
      </contour>
    </TTGlyph>
    <TTGlyph name="Imacron" xMin="191" yMin="-40" xMax="989" yMax="1820">
      <contour>
        <pt x="191" y="-40" on="1"/>
        <pt x="537" y="1460" on="1"/>
        <pt x="748" y="1550" on="1"/>
        <pt x="758" y="1550" on="1"/>
        <pt x="412" y="50" on="1"/>
        <pt x="201" y="-40" on="1"/>
      </contour>
      <contour>
        <pt x="408" y="1638" on="1"/>
        <pt x="410" y="1648" on="1"/>
        <pt x="531" y="1820" on="1"/>
        <pt x="989" y="1820" on="1"/>
        <pt x="987" y="1810" on="1"/>
        <pt x="866" y="1638" on="1"/>
      </contour>
    </TTGlyph>
    <TTGlyph name="Iogonek" xMin="46" yMin="-450" xMax="758" yMax="1550">
      <contour>
        <pt x="202" y="10" on="1"/>
        <pt x="537" y="1460" on="1"/>
        <pt x="748" y="1550" on="1"/>
        <pt x="758" y="1550" on="1"/>
        <pt x="412" y="50" on="1"/>
        <pt x="368" y="32" on="1"/>
        <pt x="265" y="-63" on="0"/>
        <pt x="243" y="-152" on="1"/>
        <pt x="237" y="-176" on="0"/>
        <pt x="237" y="-198" on="1"/>
        <pt x="239" y="-292" on="0"/>
        <pt x="329" y="-360" on="1"/>
        <pt x="118" y="-450" on="1"/>
        <pt x="108" y="-450" on="1"/>
        <pt x="46" y="-372" on="0"/>
        <pt x="46" y="-278" on="1"/>
        <pt x="46" y="-243" on="0"/>
        <pt x="55" y="-206" on="1"/>
        <pt x="84" y="-85" on="0"/>
      </contour>
    </TTGlyph>
    <TTGlyph name="Itilde" xMin="191" yMin="-40" xMax="995" yMax="1924">
      <contour>
        <pt x="191" y="-40" on="1"/>
        <pt x="537" y="1460" on="1"/>
        <pt x="748" y="1550" on="1"/>
        <pt x="758" y="1550" on="1"/>
        <pt x="412" y="50" on="1"/>
        <pt x="201" y="-40" on="1"/>
      </contour>
      <contour>
        <pt x="426" y="1638" on="1"/>
        <pt x="492" y="1924" on="0"/>
        <pt x="633" y="1924" on="1"/>
        <pt x="697" y="1924" on="0"/>
        <pt x="754" y="1854" on="1"/>
        <pt x="794" y="1805" on="0"/>
        <pt x="818" y="1805" on="1"/>
        <pt x="852" y="1805" on="0"/>
        <pt x="868" y="1877" on="1"/>
        <pt x="989" y="1924" on="1"/>
        <pt x="995" y="1924" on="1"/>
        <pt x="929" y="1638" on="0"/>
        <pt x="788" y="1638" on="1"/>
        <pt x="723" y="1638" on="0"/>
        <pt x="667" y="1708" on="1"/>
        <pt x="628" y="1757" on="0"/>
        <pt x="604" y="1757" on="1"/>
        <pt x="570" y="1757" on="0"/>
        <pt x="553" y="1685" on="1"/>
        <pt x="432" y="1638" on="1"/>
      </contour>
    </TTGlyph>
    <TTGlyph name="J" xMin="146" yMin="-20" xMax="1415" yMax="1510">
      <contour>
        <pt x="146" y="288" on="1"/>
        <pt x="326" y="366" on="1"/>
        <pt x="336" y="366" on="1"/>
        <pt x="395" y="150" on="0"/>
        <pt x="767" y="150" on="0"/>
        <pt x="924" y="366" on="1"/>
        <pt x="1025" y="505" on="0"/>
        <pt x="1082" y="755" on="1"/>
        <pt x="1207" y="1296" on="1"/>
        <pt x="1217" y="1340" on="0"/>
        <pt x="1167" y="1340" on="1"/>
        <pt x="635" y="1340" on="1"/>
        <pt x="638" y="1350" on="1"/>
        <pt x="750" y="1510" on="1"/>
        <pt x="1207" y="1510" on="1"/>
        <pt x="1415" y="1510" on="0"/>
        <pt x="1415" y="1361" on="1"/>
        <pt x="1415" y="1332" on="0"/>
        <pt x="1407" y="1296" on="1"/>
        <pt x="1282" y="755" on="1"/>
        <pt x="1215" y="466" on="0"/>
        <pt x="1078" y="288" on="1"/>
        <pt x="840" y="-20" on="0"/>
        <pt x="242" y="-20" on="0"/>
      </contour>
    </TTGlyph>
    <TTGlyph name="Jcircumflex" xMin="146" yMin="-20" xMax="1415" yMax="1966">
      <contour>
        <pt x="146" y="288" on="1"/>
        <pt x="326" y="366" on="1"/>
        <pt x="336" y="366" on="1"/>
        <pt x="395" y="150" on="0"/>
        <pt x="767" y="150" on="0"/>
        <pt x="924" y="366" on="1"/>
        <pt x="1025" y="505" on="0"/>
        <pt x="1082" y="755" on="1"/>
        <pt x="1207" y="1296" on="1"/>
        <pt x="1217" y="1340" on="0"/>
        <pt x="1167" y="1340" on="1"/>
        <pt x="635" y="1340" on="1"/>
        <pt x="638" y="1350" on="1"/>
        <pt x="750" y="1510" on="1"/>
        <pt x="1207" y="1510" on="1"/>
        <pt x="1415" y="1510" on="0"/>
        <pt x="1415" y="1361" on="1"/>
        <pt x="1415" y="1332" on="0"/>
        <pt x="1407" y="1296" on="1"/>
        <pt x="1282" y="755" on="1"/>
        <pt x="1215" y="466" on="0"/>
        <pt x="1078" y="288" on="1"/>
        <pt x="840" y="-20" on="0"/>
        <pt x="242" y="-20" on="0"/>
      </contour>
      <contour>
        <pt x="842" y="1621" on="1"/>
        <pt x="1055" y="1882" on="1"/>
        <pt x="1251" y="1966" on="1"/>
        <pt x="1261" y="1966" on="1"/>
        <pt x="1394" y="1621" on="1"/>
        <pt x="1266" y="1566" on="1"/>
        <pt x="1256" y="1566" on="1"/>
        <pt x="1154" y="1774" on="1"/>
        <pt x="958" y="1566" on="1"/>
        <pt x="948" y="1566" on="1"/>
      </contour>
    </TTGlyph>
    <TTGlyph name="K" xMin="191" yMin="-40" xMax="1468" yMax="1550">
      <contour>
        <pt x="191" y="-40" on="1"/>
        <pt x="537" y="1460" on="1"/>
        <pt x="748" y="1550" on="1"/>
        <pt x="758" y="1550" on="1"/>
        <pt x="584" y="797" on="1"/>
        <pt x="1301" y="1550" on="1"/>
        <pt x="1311" y="1550" on="1"/>
        <pt x="1468" y="1467" on="1"/>
        <pt x="892" y="874" on="1"/>
        <pt x="1144" y="874" on="0"/>
        <pt x="1267" y="703" on="1"/>
        <pt x="1319" y="631" on="0"/>
        <pt x="1319" y="543" on="1"/>
        <pt x="1319" y="507" on="0"/>
        <pt x="1310" y="467" on="1"/>
        <pt x="1266" y="271" on="0"/>
        <pt x="1027" y="170" on="1"/>
        <pt x="1291" y="170" on="1"/>
        <pt x="1289" y="160" on="1"/>
        <pt x="1177" y="0" on="1"/>
        <pt x="624" y="0" on="1"/>
        <pt x="626" y="10" on="1"/>
        <pt x="738" y="170" on="1"/>
        <pt x="867" y="191" on="0"/>
        <pt x="962" y="260" on="1"/>
        <pt x="1082" y="347" on="0"/>
        <pt x="1110" y="467" on="1"/>
        <pt x="1115" y="488" on="0"/>
        <pt x="1115" y="509" on="1"/>
        <pt x="1115" y="570" on="0"/>
        <pt x="1070" y="623" on="1"/>
        <pt x="1000" y="704" on="0"/>
        <pt x="853" y="704" on="1"/>
        <pt x="722" y="704" on="0"/>
        <pt x="611" y="601" on="1"/>
        <pt x="519" y="516" on="0"/>
        <pt x="489" y="384" on="1"/>
        <pt x="412" y="50" on="1"/>
        <pt x="201" y="-40" on="1"/>
      </contour>
    </TTGlyph>
    <TTGlyph name="Kcommaaccent" xMin="191" yMin="-450" xMax="1468" yMax="1550">
      <contour>
        <pt x="191" y="-40" on="1"/>
        <pt x="537" y="1460" on="1"/>
        <pt x="748" y="1550" on="1"/>
        <pt x="758" y="1550" on="1"/>
        <pt x="584" y="797" on="1"/>
        <pt x="1301" y="1550" on="1"/>
        <pt x="1311" y="1550" on="1"/>
        <pt x="1468" y="1467" on="1"/>
        <pt x="892" y="874" on="1"/>
        <pt x="1144" y="874" on="0"/>
        <pt x="1267" y="703" on="1"/>
        <pt x="1319" y="631" on="0"/>
        <pt x="1319" y="543" on="1"/>
        <pt x="1319" y="507" on="0"/>
        <pt x="1310" y="467" on="1"/>
        <pt x="1266" y="271" on="0"/>
        <pt x="1027" y="170" on="1"/>
        <pt x="1291" y="170" on="1"/>
        <pt x="1289" y="160" on="1"/>
        <pt x="1177" y="0" on="1"/>
        <pt x="624" y="0" on="1"/>
        <pt x="626" y="10" on="1"/>
        <pt x="738" y="170" on="1"/>
        <pt x="867" y="191" on="0"/>
        <pt x="962" y="260" on="1"/>
        <pt x="1082" y="347" on="0"/>
        <pt x="1110" y="467" on="1"/>
        <pt x="1115" y="488" on="0"/>
        <pt x="1115" y="509" on="1"/>
        <pt x="1115" y="570" on="0"/>
        <pt x="1070" y="623" on="1"/>
        <pt x="1000" y="704" on="0"/>
        <pt x="853" y="704" on="1"/>
        <pt x="722" y="704" on="0"/>
        <pt x="611" y="601" on="1"/>
        <pt x="519" y="516" on="0"/>
        <pt x="489" y="384" on="1"/>
        <pt x="412" y="50" on="1"/>
        <pt x="201" y="-40" on="1"/>
      </contour>
      <contour>
        <pt x="492" y="-450" on="1"/>
        <pt x="482" y="-450" on="1"/>
        <pt x="326" y="-366" on="1"/>
        <pt x="619" y="-50" on="1"/>
        <pt x="629" y="-50" on="1"/>
        <pt x="734" y="-105" on="1"/>
      </contour>
    </TTGlyph>
    <TTGlyph name="L" xMin="241" yMin="0" xMax="1153" yMax="1550">
      <contour>
        <pt x="450" y="0" on="1"/>
        <pt x="241" y="0" on="0"/>
        <pt x="241" y="150" on="1"/>
        <pt x="241" y="179" on="0"/>
        <pt x="249" y="214" on="1"/>
        <pt x="537" y="1460" on="1"/>
        <pt x="748" y="1550" on="1"/>
        <pt x="758" y="1550" on="1"/>
        <pt x="449" y="214" on="1"/>
        <pt x="439" y="170" on="0"/>
        <pt x="489" y="170" on="1"/>
        <pt x="834" y="170" on="1"/>
        <pt x="952" y="170" on="0"/>
        <pt x="1009" y="287" on="1"/>
        <pt x="1019" y="287" on="1"/>
        <pt x="1153" y="216" on="1"/>
        <pt x="1043" y="0" on="0"/>
        <pt x="795" y="0" on="1"/>
      </contour>
    </TTGlyph>
    <TTGlyph name="Lacute" xMin="241" yMin="0" xMax="1153" yMax="1966">
      <contour>
        <pt x="450" y="0" on="1"/>
        <pt x="241" y="0" on="0"/>
        <pt x="241" y="150" on="1"/>
        <pt x="241" y="179" on="0"/>
        <pt x="249" y="214" on="1"/>
        <pt x="537" y="1460" on="1"/>
        <pt x="748" y="1550" on="1"/>
        <pt x="758" y="1550" on="1"/>
        <pt x="449" y="214" on="1"/>
        <pt x="439" y="170" on="0"/>
        <pt x="489" y="170" on="1"/>
        <pt x="834" y="170" on="1"/>
        <pt x="952" y="170" on="0"/>
        <pt x="1009" y="287" on="1"/>
        <pt x="1019" y="287" on="1"/>
        <pt x="1153" y="216" on="1"/>
        <pt x="1043" y="0" on="0"/>
        <pt x="795" y="0" on="1"/>
      </contour>
      <contour>
        <pt x="802" y="1966" on="1"/>
        <pt x="812" y="1966" on="1"/>
        <pt x="968" y="1882" on="1"/>
        <pt x="675" y="1566" on="1"/>
        <pt x="665" y="1566" on="1"/>
        <pt x="560" y="1621" on="1"/>
      </contour>
    </TTGlyph>
    <TTGlyph name="Lcaron" xMin="241" yMin="0" xMax="1153" yMax="1566">
      <contour>
        <pt x="450" y="0" on="1"/>
        <pt x="241" y="0" on="0"/>
        <pt x="241" y="150" on="1"/>
        <pt x="241" y="179" on="0"/>
        <pt x="249" y="214" on="1"/>
        <pt x="537" y="1460" on="1"/>
        <pt x="748" y="1550" on="1"/>
        <pt x="758" y="1550" on="1"/>
        <pt x="449" y="214" on="1"/>
        <pt x="439" y="170" on="0"/>
        <pt x="489" y="170" on="1"/>
        <pt x="834" y="170" on="1"/>
        <pt x="952" y="170" on="0"/>
        <pt x="1009" y="287" on="1"/>
        <pt x="1019" y="287" on="1"/>
        <pt x="1153" y="216" on="1"/>
        <pt x="1043" y="0" on="0"/>
        <pt x="795" y="0" on="1"/>
      </contour>
      <contour>
        <pt x="956" y="1566" on="1"/>
        <pt x="966" y="1566" on="1"/>
        <pt x="1122" y="1482" on="1"/>
        <pt x="828" y="1166" on="1"/>
        <pt x="818" y="1166" on="1"/>
        <pt x="714" y="1221" on="1"/>
      </contour>
    </TTGlyph>
    <TTGlyph name="Lcommaaccent" xMin="241" yMin="-450" xMax="1153" yMax="1550">
      <contour>
        <pt x="450" y="0" on="1"/>
        <pt x="241" y="0" on="0"/>
        <pt x="241" y="150" on="1"/>
        <pt x="241" y="179" on="0"/>
        <pt x="249" y="214" on="1"/>
        <pt x="537" y="1460" on="1"/>
        <pt x="748" y="1550" on="1"/>
        <pt x="758" y="1550" on="1"/>
        <pt x="449" y="214" on="1"/>
        <pt x="439" y="170" on="0"/>
        <pt x="489" y="170" on="1"/>
        <pt x="834" y="170" on="1"/>
        <pt x="952" y="170" on="0"/>
        <pt x="1009" y="287" on="1"/>
        <pt x="1019" y="287" on="1"/>
        <pt x="1153" y="216" on="1"/>
        <pt x="1043" y="0" on="0"/>
        <pt x="795" y="0" on="1"/>
      </contour>
      <contour>
        <pt x="444" y="-450" on="1"/>
        <pt x="434" y="-450" on="1"/>
        <pt x="278" y="-366" on="1"/>
        <pt x="571" y="-50" on="1"/>
        <pt x="581" y="-50" on="1"/>
        <pt x="686" y="-105" on="1"/>
      </contour>
    </TTGlyph>
    <TTGlyph name="Ldot" xMin="241" yMin="0" xMax="1153" yMax="1550">
      <contour>
        <pt x="733" y="997" on="1"/>
        <pt x="745" y="1048" on="0"/>
        <pt x="831" y="1120" on="0"/>
        <pt x="933" y="1120" on="0"/>
        <pt x="959" y="1084" on="1"/>
        <pt x="978" y="1058" on="0"/>
        <pt x="978" y="1027" on="1"/>
        <pt x="978" y="1015" on="0"/>
        <pt x="974" y="997" on="1"/>
        <pt x="959" y="944" on="0"/>
        <pt x="919" y="911" on="1"/>
        <pt x="875" y="875" on="0"/>
        <pt x="824" y="875" on="1"/>
        <pt x="774" y="875" on="0"/>
        <pt x="747" y="912" on="1"/>
        <pt x="729" y="936" on="0"/>
        <pt x="729" y="965" on="1"/>
        <pt x="729" y="979" on="0"/>
      </contour>
      <contour>
        <pt x="450" y="0" on="1"/>
        <pt x="241" y="0" on="0"/>
        <pt x="241" y="150" on="1"/>
        <pt x="241" y="179" on="0"/>
        <pt x="249" y="214" on="1"/>
        <pt x="537" y="1460" on="1"/>
        <pt x="748" y="1550" on="1"/>
        <pt x="758" y="1550" on="1"/>
        <pt x="449" y="214" on="1"/>
        <pt x="439" y="170" on="0"/>
        <pt x="489" y="170" on="1"/>
        <pt x="834" y="170" on="1"/>
        <pt x="952" y="170" on="0"/>
        <pt x="1009" y="287" on="1"/>
        <pt x="1019" y="287" on="1"/>
        <pt x="1153" y="216" on="1"/>
        <pt x="1043" y="0" on="0"/>
        <pt x="795" y="0" on="1"/>
      </contour>
    </TTGlyph>
    <TTGlyph name="Lslash" xMin="241" yMin="0" xMax="1153" yMax="1550">
      <contour>
        <pt x="450" y="0" on="1"/>
        <pt x="241" y="0" on="0"/>
        <pt x="241" y="150" on="1"/>
        <pt x="241" y="179" on="0"/>
        <pt x="249" y="214" on="1"/>
        <pt x="537" y="1460" on="1"/>
        <pt x="748" y="1550" on="1"/>
        <pt x="758" y="1550" on="1"/>
        <pt x="566" y="719" on="1"/>
        <pt x="980" y="1140" on="1"/>
        <pt x="990" y="1140" on="1"/>
        <pt x="1130" y="1060" on="1"/>
        <pt x="506" y="460" on="1"/>
        <pt x="449" y="214" on="1"/>
        <pt x="439" y="170" on="0"/>
        <pt x="489" y="170" on="1"/>
        <pt x="834" y="170" on="1"/>
        <pt x="952" y="170" on="0"/>
        <pt x="1009" y="287" on="1"/>
        <pt x="1019" y="287" on="1"/>
        <pt x="1153" y="216" on="1"/>
        <pt x="1043" y="0" on="0"/>
        <pt x="795" y="0" on="1"/>
      </contour>
    </TTGlyph>
    <TTGlyph name="M" xMin="288" yMin="-40" xMax="2409" yMax="1530">
      <contour>
        <pt x="1065" y="-40" on="1"/>
        <pt x="1248" y="755" on="1"/>
        <pt x="1284" y="911" on="0"/>
        <pt x="1284" y="1022" on="1"/>
        <pt x="1284" y="1091" on="0"/>
        <pt x="1270" y="1144" on="1"/>
        <pt x="1213" y="1360" on="0"/>
        <pt x="1026" y="1360" on="1"/>
        <pt x="840" y="1360" on="0"/>
        <pt x="682" y="1144" on="1"/>
        <pt x="582" y="1007" on="0"/>
        <pt x="524" y="755" on="1"/>
        <pt x="488" y="598" on="0"/>
        <pt x="488" y="487" on="1"/>
        <pt x="488" y="418" on="0"/>
        <pt x="502" y="366" on="1"/>
        <pt x="548" y="193" on="0"/>
        <pt x="708" y="109" on="1"/>
        <pt x="599" y="-40" on="1"/>
        <pt x="589" y="-40" on="1"/>
        <pt x="387" y="34" on="0"/>
        <pt x="312" y="288" on="1"/>
        <pt x="288" y="369" on="0"/>
        <pt x="288" y="472" on="1"/>
        <pt x="288" y="597" on="0"/>
        <pt x="324" y="755" on="1"/>
        <pt x="392" y="1047" on="0"/>
        <pt x="528" y="1222" on="1"/>
        <pt x="767" y="1530" on="0"/>
        <pt x="1065" y="1530" on="1"/>
        <pt x="1359" y="1530" on="0"/>
        <pt x="1458" y="1229" on="1"/>
        <pt x="1695" y="1530" on="0"/>
        <pt x="1989" y="1530" on="1"/>
        <pt x="2287" y="1530" on="0"/>
        <pt x="2384" y="1222" on="1"/>
        <pt x="2409" y="1143" on="0"/>
        <pt x="2409" y="1040" on="1"/>
        <pt x="2409" y="914" on="0"/>
        <pt x="2372" y="755" on="1"/>
        <pt x="2303" y="458" on="0"/>
        <pt x="2170" y="312" on="1"/>
        <pt x="2087" y="221" on="0"/>
        <pt x="2003" y="170" on="1"/>
        <pt x="2287" y="170" on="1"/>
        <pt x="2285" y="160" on="1"/>
        <pt x="2173" y="0" on="1"/>
        <pt x="1620" y="0" on="1"/>
        <pt x="1622" y="10" on="1"/>
        <pt x="1734" y="170" on="1"/>
        <pt x="1880" y="216" on="0"/>
        <pt x="1993" y="358" on="1"/>
        <pt x="2116" y="513" on="0"/>
        <pt x="2172" y="755" on="1"/>
        <pt x="2208" y="911" on="0"/>
        <pt x="2208" y="1022" on="1"/>
        <pt x="2208" y="1091" on="0"/>
        <pt x="2194" y="1144" on="1"/>
        <pt x="2137" y="1360" on="0"/>
        <pt x="1950" y="1360" on="1"/>
        <pt x="1764" y="1360" on="0"/>
        <pt x="1606" y="1144" on="1"/>
        <pt x="1507" y="1009" on="0"/>
        <pt x="1448" y="755" on="1"/>
        <pt x="1286" y="50" on="1"/>
        <pt x="1075" y="-40" on="1"/>
      </contour>
    </TTGlyph>
    <TTGlyph name="N" xMin="171" yMin="-40" xMax="1515" yMax="1530">
      <contour>
        <pt x="171" y="-40" on="1"/>
        <pt x="354" y="755" on="1"/>
        <pt x="421" y="1046" on="0"/>
        <pt x="558" y="1222" on="1"/>
        <pt x="798" y="1530" on="0"/>
        <pt x="1095" y="1530" on="1"/>
        <pt x="1393" y="1530" on="0"/>
        <pt x="1490" y="1222" on="1"/>
        <pt x="1515" y="1143" on="0"/>
        <pt x="1515" y="1040" on="1"/>
        <pt x="1515" y="914" on="0"/>
        <pt x="1478" y="755" on="1"/>
        <pt x="1409" y="458" on="0"/>
        <pt x="1276" y="312" on="1"/>
        <pt x="1193" y="221" on="0"/>
        <pt x="1109" y="170" on="1"/>
        <pt x="1393" y="170" on="1"/>
        <pt x="1391" y="160" on="1"/>
        <pt x="1279" y="0" on="1"/>
        <pt x="726" y="0" on="1"/>
        <pt x="728" y="10" on="1"/>
        <pt x="840" y="170" on="1"/>
        <pt x="986" y="216" on="0"/>
        <pt x="1099" y="358" on="1"/>
        <pt x="1222" y="513" on="0"/>
        <pt x="1278" y="755" on="1"/>
        <pt x="1314" y="911" on="0"/>
        <pt x="1314" y="1022" on="1"/>
        <pt x="1314" y="1091" on="0"/>
        <pt x="1300" y="1144" on="1"/>
        <pt x="1243" y="1360" on="0"/>
        <pt x="869" y="1360" on="0"/>
        <pt x="712" y="1144" on="1"/>
        <pt x="613" y="1008" on="0"/>
        <pt x="554" y="755" on="1"/>
        <pt x="392" y="50" on="1"/>
        <pt x="181" y="-40" on="1"/>
      </contour>
    </TTGlyph>
    <TTGlyph name="Nacute" xMin="171" yMin="-40" xMax="1515" yMax="1966">
      <contour>
        <pt x="171" y="-40" on="1"/>
        <pt x="354" y="755" on="1"/>
        <pt x="421" y="1046" on="0"/>
        <pt x="558" y="1222" on="1"/>
        <pt x="798" y="1530" on="0"/>
        <pt x="1095" y="1530" on="1"/>
        <pt x="1393" y="1530" on="0"/>
        <pt x="1490" y="1222" on="1"/>
        <pt x="1515" y="1143" on="0"/>
        <pt x="1515" y="1040" on="1"/>
        <pt x="1515" y="914" on="0"/>
        <pt x="1478" y="755" on="1"/>
        <pt x="1409" y="458" on="0"/>
        <pt x="1276" y="312" on="1"/>
        <pt x="1193" y="221" on="0"/>
        <pt x="1109" y="170" on="1"/>
        <pt x="1393" y="170" on="1"/>
        <pt x="1391" y="160" on="1"/>
        <pt x="1279" y="0" on="1"/>
        <pt x="726" y="0" on="1"/>
        <pt x="728" y="10" on="1"/>
        <pt x="840" y="170" on="1"/>
        <pt x="986" y="216" on="0"/>
        <pt x="1099" y="358" on="1"/>
        <pt x="1222" y="513" on="0"/>
        <pt x="1278" y="755" on="1"/>
        <pt x="1314" y="911" on="0"/>
        <pt x="1314" y="1022" on="1"/>
        <pt x="1314" y="1091" on="0"/>
        <pt x="1300" y="1144" on="1"/>
        <pt x="1243" y="1360" on="0"/>
        <pt x="869" y="1360" on="0"/>
        <pt x="712" y="1144" on="1"/>
        <pt x="613" y="1008" on="0"/>
        <pt x="554" y="755" on="1"/>
        <pt x="392" y="50" on="1"/>
        <pt x="181" y="-40" on="1"/>
      </contour>
      <contour>
        <pt x="1301" y="1966" on="1"/>
        <pt x="1311" y="1966" on="1"/>
        <pt x="1467" y="1882" on="1"/>
        <pt x="1174" y="1566" on="1"/>
        <pt x="1164" y="1566" on="1"/>
        <pt x="1059" y="1621" on="1"/>
      </contour>
    </TTGlyph>
    <TTGlyph name="Ncaron" xMin="171" yMin="-40" xMax="1515" yMax="1966">
      <contour>
        <pt x="171" y="-40" on="1"/>
        <pt x="354" y="755" on="1"/>
        <pt x="421" y="1046" on="0"/>
        <pt x="558" y="1222" on="1"/>
        <pt x="798" y="1530" on="0"/>
        <pt x="1095" y="1530" on="1"/>
        <pt x="1393" y="1530" on="0"/>
        <pt x="1490" y="1222" on="1"/>
        <pt x="1515" y="1143" on="0"/>
        <pt x="1515" y="1040" on="1"/>
        <pt x="1515" y="914" on="0"/>
        <pt x="1478" y="755" on="1"/>
        <pt x="1409" y="458" on="0"/>
        <pt x="1276" y="312" on="1"/>
        <pt x="1193" y="221" on="0"/>
        <pt x="1109" y="170" on="1"/>
        <pt x="1393" y="170" on="1"/>
        <pt x="1391" y="160" on="1"/>
        <pt x="1279" y="0" on="1"/>
        <pt x="726" y="0" on="1"/>
        <pt x="728" y="10" on="1"/>
        <pt x="840" y="170" on="1"/>
        <pt x="986" y="216" on="0"/>
        <pt x="1099" y="358" on="1"/>
        <pt x="1222" y="513" on="0"/>
        <pt x="1278" y="755" on="1"/>
        <pt x="1314" y="911" on="0"/>
        <pt x="1314" y="1022" on="1"/>
        <pt x="1314" y="1091" on="0"/>
        <pt x="1300" y="1144" on="1"/>
        <pt x="1243" y="1360" on="0"/>
        <pt x="869" y="1360" on="0"/>
        <pt x="712" y="1144" on="1"/>
        <pt x="613" y="1008" on="0"/>
        <pt x="554" y="755" on="1"/>
        <pt x="392" y="50" on="1"/>
        <pt x="181" y="-40" on="1"/>
      </contour>
      <contour>
        <pt x="1009" y="1566" on="1"/>
        <pt x="875" y="1911" on="1"/>
        <pt x="1004" y="1966" on="1"/>
        <pt x="1014" y="1966" on="1"/>
        <pt x="1116" y="1758" on="1"/>
        <pt x="1312" y="1966" on="1"/>
        <pt x="1322" y="1966" on="1"/>
        <pt x="1427" y="1911" on="1"/>
        <pt x="1214" y="1650" on="1"/>
        <pt x="1019" y="1566" on="1"/>
      </contour>
    </TTGlyph>
    <TTGlyph name="Ncommaaccent" xMin="171" yMin="-450" xMax="1515" yMax="1530">
      <contour>
        <pt x="171" y="-40" on="1"/>
        <pt x="354" y="755" on="1"/>
        <pt x="421" y="1046" on="0"/>
        <pt x="558" y="1222" on="1"/>
        <pt x="798" y="1530" on="0"/>
        <pt x="1095" y="1530" on="1"/>
        <pt x="1393" y="1530" on="0"/>
        <pt x="1490" y="1222" on="1"/>
        <pt x="1515" y="1143" on="0"/>
        <pt x="1515" y="1040" on="1"/>
        <pt x="1515" y="914" on="0"/>
        <pt x="1478" y="755" on="1"/>
        <pt x="1409" y="458" on="0"/>
        <pt x="1276" y="312" on="1"/>
        <pt x="1193" y="221" on="0"/>
        <pt x="1109" y="170" on="1"/>
        <pt x="1393" y="170" on="1"/>
        <pt x="1391" y="160" on="1"/>
        <pt x="1279" y="0" on="1"/>
        <pt x="726" y="0" on="1"/>
        <pt x="728" y="10" on="1"/>
        <pt x="840" y="170" on="1"/>
        <pt x="986" y="216" on="0"/>
        <pt x="1099" y="358" on="1"/>
        <pt x="1222" y="513" on="0"/>
        <pt x="1278" y="755" on="1"/>
        <pt x="1314" y="911" on="0"/>
        <pt x="1314" y="1022" on="1"/>
        <pt x="1314" y="1091" on="0"/>
        <pt x="1300" y="1144" on="1"/>
        <pt x="1243" y="1360" on="0"/>
        <pt x="869" y="1360" on="0"/>
        <pt x="712" y="1144" on="1"/>
        <pt x="613" y="1008" on="0"/>
        <pt x="554" y="755" on="1"/>
        <pt x="392" y="50" on="1"/>
        <pt x="181" y="-40" on="1"/>
      </contour>
      <contour>
        <pt x="492" y="-450" on="1"/>
        <pt x="482" y="-450" on="1"/>
        <pt x="326" y="-366" on="1"/>
        <pt x="619" y="-50" on="1"/>
        <pt x="629" y="-50" on="1"/>
        <pt x="734" y="-105" on="1"/>
      </contour>
    </TTGlyph>
    <TTGlyph name="Ntilde" xMin="171" yMin="-40" xMax="1515" yMax="1924">
      <contour>
        <pt x="171" y="-40" on="1"/>
        <pt x="354" y="755" on="1"/>
        <pt x="421" y="1046" on="0"/>
        <pt x="558" y="1222" on="1"/>
        <pt x="798" y="1530" on="0"/>
        <pt x="1095" y="1530" on="1"/>
        <pt x="1393" y="1530" on="0"/>
        <pt x="1490" y="1222" on="1"/>
        <pt x="1515" y="1143" on="0"/>
        <pt x="1515" y="1040" on="1"/>
        <pt x="1515" y="914" on="0"/>
        <pt x="1478" y="755" on="1"/>
        <pt x="1409" y="458" on="0"/>
        <pt x="1276" y="312" on="1"/>
        <pt x="1193" y="221" on="0"/>
        <pt x="1109" y="170" on="1"/>
        <pt x="1393" y="170" on="1"/>
        <pt x="1391" y="160" on="1"/>
        <pt x="1279" y="0" on="1"/>
        <pt x="726" y="0" on="1"/>
        <pt x="728" y="10" on="1"/>
        <pt x="840" y="170" on="1"/>
        <pt x="986" y="216" on="0"/>
        <pt x="1099" y="358" on="1"/>
        <pt x="1222" y="513" on="0"/>
        <pt x="1278" y="755" on="1"/>
        <pt x="1314" y="911" on="0"/>
        <pt x="1314" y="1022" on="1"/>
        <pt x="1314" y="1091" on="0"/>
        <pt x="1300" y="1144" on="1"/>
        <pt x="1243" y="1360" on="0"/>
        <pt x="869" y="1360" on="0"/>
        <pt x="712" y="1144" on="1"/>
        <pt x="613" y="1008" on="0"/>
        <pt x="554" y="755" on="1"/>
        <pt x="392" y="50" on="1"/>
        <pt x="181" y="-40" on="1"/>
      </contour>
      <contour>
        <pt x="879" y="1638" on="1"/>
        <pt x="945" y="1924" on="0"/>
        <pt x="1086" y="1924" on="1"/>
        <pt x="1150" y="1924" on="0"/>
        <pt x="1207" y="1854" on="1"/>
        <pt x="1247" y="1805" on="0"/>
        <pt x="1271" y="1805" on="1"/>
        <pt x="1305" y="1805" on="0"/>
        <pt x="1321" y="1877" on="1"/>
        <pt x="1442" y="1924" on="1"/>
        <pt x="1448" y="1924" on="1"/>
        <pt x="1382" y="1638" on="0"/>
        <pt x="1241" y="1638" on="1"/>
        <pt x="1176" y="1638" on="0"/>
        <pt x="1120" y="1708" on="1"/>
        <pt x="1081" y="1757" on="0"/>
        <pt x="1057" y="1757" on="1"/>
        <pt x="1023" y="1757" on="0"/>
        <pt x="1006" y="1685" on="1"/>
        <pt x="885" y="1638" on="1"/>
      </contour>
    </TTGlyph>
    <TTGlyph name="O" xMin="287" yMin="-20" xMax="1484" yMax="1530">
      <contour>
        <pt x="524" y="755" on="1"/>
        <pt x="488" y="596" on="0"/>
        <pt x="488" y="485" on="1"/>
        <pt x="488" y="416" on="0"/>
        <pt x="502" y="365" on="1"/>
        <pt x="561" y="150" on="0"/>
        <pt x="747" y="150" on="1"/>
        <pt x="930" y="150" on="0"/>
        <pt x="1090" y="366" on="1"/>
        <pt x="1189" y="500" on="0"/>
        <pt x="1248" y="755" on="1"/>
        <pt x="1284" y="911" on="0"/>
        <pt x="1284" y="1022" on="1"/>
        <pt x="1284" y="1091" on="0"/>
        <pt x="1270" y="1144" on="1"/>
        <pt x="1213" y="1360" on="0"/>
        <pt x="1026" y="1360" on="1"/>
        <pt x="841" y="1360" on="0"/>
        <pt x="682" y="1144" on="1"/>
        <pt x="581" y="1007" on="0"/>
      </contour>
      <contour>
        <pt x="324" y="754" on="1"/>
        <pt x="391" y="1046" on="0"/>
        <pt x="528" y="1222" on="1"/>
        <pt x="768" y="1530" on="0"/>
        <pt x="1065" y="1530" on="1"/>
        <pt x="1366" y="1530" on="0"/>
        <pt x="1460" y="1222" on="1"/>
        <pt x="1484" y="1143" on="0"/>
        <pt x="1484" y="1041" on="1"/>
        <pt x="1484" y="917" on="0"/>
        <pt x="1448" y="755" on="1"/>
        <pt x="1382" y="465" on="0"/>
        <pt x="1244" y="288" on="1"/>
        <pt x="1004" y="-20" on="0"/>
        <pt x="410" y="-20" on="0"/>
        <pt x="312" y="287" on="1"/>
        <pt x="287" y="365" on="0"/>
        <pt x="287" y="470" on="1"/>
        <pt x="287" y="599" on="0"/>
      </contour>
    </TTGlyph>
    <TTGlyph name="OE" xMin="287" yMin="-20" xMax="2384" yMax="1530">
      <contour>
        <pt x="2279" y="474" on="1"/>
        <pt x="2239" y="380" on="0"/>
        <pt x="2168" y="288" on="1"/>
        <pt x="1931" y="-20" on="0"/>
        <pt x="1631" y="-20" on="1"/>
        <pt x="1337" y="-20" on="0"/>
        <pt x="1239" y="281" on="1"/>
        <pt x="1002" y="-20" on="0"/>
        <pt x="707" y="-20" on="1"/>
        <pt x="409" y="-20" on="0"/>
        <pt x="312" y="288" on="1"/>
        <pt x="287" y="367" on="0"/>
        <pt x="287" y="470" on="1"/>
        <pt x="287" y="596" on="0"/>
        <pt x="324" y="755" on="1"/>
        <pt x="392" y="1047" on="0"/>
        <pt x="528" y="1222" on="1"/>
        <pt x="768" y="1530" on="0"/>
        <pt x="1065" y="1530" on="1"/>
        <pt x="1360" y="1530" on="0"/>
        <pt x="1458" y="1229" on="1"/>
        <pt x="1695" y="1530" on="0"/>
        <pt x="1989" y="1530" on="1"/>
        <pt x="2288" y="1530" on="0"/>
        <pt x="2384" y="1222" on="1"/>
        <pt x="2204" y="1144" on="1"/>
        <pt x="2194" y="1144" on="1"/>
        <pt x="2136" y="1360" on="0"/>
        <pt x="1764" y="1360" on="0"/>
        <pt x="1606" y="1144" on="1"/>
        <pt x="1525" y="1033" on="0"/>
        <pt x="1470" y="840" on="1"/>
        <pt x="2068" y="840" on="1"/>
        <pt x="2066" y="830" on="1"/>
        <pt x="1954" y="670" on="1"/>
        <pt x="1431" y="670" on="1"/>
        <pt x="1412" y="564" on="0"/>
        <pt x="1412" y="484" on="1"/>
        <pt x="1412" y="415" on="0"/>
        <pt x="1426" y="366" on="1"/>
        <pt x="1488" y="150" on="0"/>
        <pt x="1671" y="150" on="1"/>
        <pt x="1856" y="150" on="0"/>
        <pt x="2014" y="366" on="1"/>
        <pt x="2269" y="474" on="1"/>
      </contour>
      <contour>
        <pt x="524" y="755" on="1"/>
        <pt x="488" y="599" on="0"/>
        <pt x="488" y="488" on="1"/>
        <pt x="488" y="416" on="0"/>
        <pt x="503" y="363" on="1"/>
        <pt x="563" y="150" on="0"/>
        <pt x="747" y="150" on="1"/>
        <pt x="930" y="150" on="0"/>
        <pt x="1090" y="366" on="1"/>
        <pt x="1189" y="500" on="0"/>
        <pt x="1248" y="755" on="1"/>
        <pt x="1284" y="911" on="0"/>
        <pt x="1284" y="1022" on="1"/>
        <pt x="1284" y="1091" on="0"/>
        <pt x="1270" y="1144" on="1"/>
        <pt x="1213" y="1360" on="0"/>
        <pt x="1026" y="1360" on="1"/>
        <pt x="841" y="1360" on="0"/>
        <pt x="682" y="1144" on="1"/>
        <pt x="583" y="1009" on="0"/>
      </contour>
    </TTGlyph>
    <TTGlyph name="Oacute" xMin="287" yMin="-20" xMax="1484" yMax="1966">
      <contour>
        <pt x="524" y="755" on="1"/>
        <pt x="488" y="596" on="0"/>
        <pt x="488" y="485" on="1"/>
        <pt x="488" y="416" on="0"/>
        <pt x="502" y="365" on="1"/>
        <pt x="561" y="150" on="0"/>
        <pt x="747" y="150" on="1"/>
        <pt x="930" y="150" on="0"/>
        <pt x="1090" y="366" on="1"/>
        <pt x="1189" y="500" on="0"/>
        <pt x="1248" y="755" on="1"/>
        <pt x="1284" y="911" on="0"/>
        <pt x="1284" y="1022" on="1"/>
        <pt x="1284" y="1091" on="0"/>
        <pt x="1270" y="1144" on="1"/>
        <pt x="1213" y="1360" on="0"/>
        <pt x="1026" y="1360" on="1"/>
        <pt x="841" y="1360" on="0"/>
        <pt x="682" y="1144" on="1"/>
        <pt x="581" y="1007" on="0"/>
      </contour>
      <contour>
        <pt x="324" y="754" on="1"/>
        <pt x="391" y="1046" on="0"/>
        <pt x="528" y="1222" on="1"/>
        <pt x="768" y="1530" on="0"/>
        <pt x="1065" y="1530" on="1"/>
        <pt x="1366" y="1530" on="0"/>
        <pt x="1460" y="1222" on="1"/>
        <pt x="1484" y="1143" on="0"/>
        <pt x="1484" y="1041" on="1"/>
        <pt x="1484" y="917" on="0"/>
        <pt x="1448" y="755" on="1"/>
        <pt x="1382" y="465" on="0"/>
        <pt x="1244" y="288" on="1"/>
        <pt x="1004" y="-20" on="0"/>
        <pt x="410" y="-20" on="0"/>
        <pt x="312" y="287" on="1"/>
        <pt x="287" y="365" on="0"/>
        <pt x="287" y="470" on="1"/>
        <pt x="287" y="599" on="0"/>
      </contour>
      <contour>
        <pt x="1271" y="1966" on="1"/>
        <pt x="1281" y="1966" on="1"/>
        <pt x="1437" y="1882" on="1"/>
        <pt x="1144" y="1566" on="1"/>
        <pt x="1134" y="1566" on="1"/>
        <pt x="1029" y="1621" on="1"/>
      </contour>
    </TTGlyph>
    <TTGlyph name="Obreve" xMin="287" yMin="-20" xMax="1484" yMax="1947">
      <contour>
        <pt x="524" y="755" on="1"/>
        <pt x="488" y="596" on="0"/>
        <pt x="488" y="485" on="1"/>
        <pt x="488" y="416" on="0"/>
        <pt x="502" y="365" on="1"/>
        <pt x="561" y="150" on="0"/>
        <pt x="747" y="150" on="1"/>
        <pt x="930" y="150" on="0"/>
        <pt x="1090" y="366" on="1"/>
        <pt x="1189" y="500" on="0"/>
        <pt x="1248" y="755" on="1"/>
        <pt x="1284" y="911" on="0"/>
        <pt x="1284" y="1022" on="1"/>
        <pt x="1284" y="1091" on="0"/>
        <pt x="1270" y="1144" on="1"/>
        <pt x="1213" y="1360" on="0"/>
        <pt x="1026" y="1360" on="1"/>
        <pt x="841" y="1360" on="0"/>
        <pt x="682" y="1144" on="1"/>
        <pt x="581" y="1007" on="0"/>
      </contour>
      <contour>
        <pt x="324" y="754" on="1"/>
        <pt x="391" y="1046" on="0"/>
        <pt x="528" y="1222" on="1"/>
        <pt x="768" y="1530" on="0"/>
        <pt x="1065" y="1530" on="1"/>
        <pt x="1366" y="1530" on="0"/>
        <pt x="1460" y="1222" on="1"/>
        <pt x="1484" y="1143" on="0"/>
        <pt x="1484" y="1041" on="1"/>
        <pt x="1484" y="917" on="0"/>
        <pt x="1448" y="755" on="1"/>
        <pt x="1382" y="465" on="0"/>
        <pt x="1244" y="288" on="1"/>
        <pt x="1004" y="-20" on="0"/>
        <pt x="410" y="-20" on="0"/>
        <pt x="312" y="287" on="1"/>
        <pt x="287" y="365" on="0"/>
        <pt x="287" y="470" on="1"/>
        <pt x="287" y="599" on="0"/>
      </contour>
      <contour>
        <pt x="881" y="1788" on="1"/>
        <pt x="883" y="1798" on="1"/>
        <pt x="992" y="1947" on="1"/>
        <pt x="1033" y="1813" on="0"/>
        <pt x="1233" y="1813" on="0"/>
        <pt x="1336" y="1947" on="1"/>
        <pt x="1377" y="1798" on="1"/>
        <pt x="1375" y="1788" on="1"/>
        <pt x="1238" y="1638" on="0"/>
        <pt x="1090" y="1638" on="1"/>
        <pt x="936" y="1638" on="0"/>
      </contour>
    </TTGlyph>
    <TTGlyph name="Ocircumflex" xMin="287" yMin="-20" xMax="1484" yMax="1966">
      <contour>
        <pt x="524" y="755" on="1"/>
        <pt x="488" y="596" on="0"/>
        <pt x="488" y="485" on="1"/>
        <pt x="488" y="416" on="0"/>
        <pt x="502" y="365" on="1"/>
        <pt x="561" y="150" on="0"/>
        <pt x="747" y="150" on="1"/>
        <pt x="930" y="150" on="0"/>
        <pt x="1090" y="366" on="1"/>
        <pt x="1189" y="500" on="0"/>
        <pt x="1248" y="755" on="1"/>
        <pt x="1284" y="911" on="0"/>
        <pt x="1284" y="1022" on="1"/>
        <pt x="1284" y="1091" on="0"/>
        <pt x="1270" y="1144" on="1"/>
        <pt x="1213" y="1360" on="0"/>
        <pt x="1026" y="1360" on="1"/>
        <pt x="841" y="1360" on="0"/>
        <pt x="682" y="1144" on="1"/>
        <pt x="581" y="1007" on="0"/>
      </contour>
      <contour>
        <pt x="324" y="754" on="1"/>
        <pt x="391" y="1046" on="0"/>
        <pt x="528" y="1222" on="1"/>
        <pt x="768" y="1530" on="0"/>
        <pt x="1065" y="1530" on="1"/>
        <pt x="1366" y="1530" on="0"/>
        <pt x="1460" y="1222" on="1"/>
        <pt x="1484" y="1143" on="0"/>
        <pt x="1484" y="1041" on="1"/>
        <pt x="1484" y="917" on="0"/>
        <pt x="1448" y="755" on="1"/>
        <pt x="1382" y="465" on="0"/>
        <pt x="1244" y="288" on="1"/>
        <pt x="1004" y="-20" on="0"/>
        <pt x="410" y="-20" on="0"/>
        <pt x="312" y="287" on="1"/>
        <pt x="287" y="365" on="0"/>
        <pt x="287" y="470" on="1"/>
        <pt x="287" y="599" on="0"/>
      </contour>
      <contour>
        <pt x="808" y="1621" on="1"/>
        <pt x="1021" y="1882" on="1"/>
        <pt x="1217" y="1966" on="1"/>
        <pt x="1227" y="1966" on="1"/>
        <pt x="1360" y="1621" on="1"/>
        <pt x="1232" y="1566" on="1"/>
        <pt x="1222" y="1566" on="1"/>
        <pt x="1120" y="1774" on="1"/>
        <pt x="924" y="1566" on="1"/>
        <pt x="914" y="1566" on="1"/>
      </contour>
    </TTGlyph>
    <TTGlyph name="Odieresis" xMin="287" yMin="-20" xMax="1484" yMax="1925">
      <contour>
        <pt x="524" y="755" on="1"/>
        <pt x="488" y="596" on="0"/>
        <pt x="488" y="485" on="1"/>
        <pt x="488" y="416" on="0"/>
        <pt x="502" y="365" on="1"/>
        <pt x="561" y="150" on="0"/>
        <pt x="747" y="150" on="1"/>
        <pt x="930" y="150" on="0"/>
        <pt x="1090" y="366" on="1"/>
        <pt x="1189" y="500" on="0"/>
        <pt x="1248" y="755" on="1"/>
        <pt x="1284" y="911" on="0"/>
        <pt x="1284" y="1022" on="1"/>
        <pt x="1284" y="1091" on="0"/>
        <pt x="1270" y="1144" on="1"/>
        <pt x="1213" y="1360" on="0"/>
        <pt x="1026" y="1360" on="1"/>
        <pt x="841" y="1360" on="0"/>
        <pt x="682" y="1144" on="1"/>
        <pt x="581" y="1007" on="0"/>
      </contour>
      <contour>
        <pt x="324" y="754" on="1"/>
        <pt x="391" y="1046" on="0"/>
        <pt x="528" y="1222" on="1"/>
        <pt x="768" y="1530" on="0"/>
        <pt x="1065" y="1530" on="1"/>
        <pt x="1366" y="1530" on="0"/>
        <pt x="1460" y="1222" on="1"/>
        <pt x="1484" y="1143" on="0"/>
        <pt x="1484" y="1041" on="1"/>
        <pt x="1484" y="917" on="0"/>
        <pt x="1448" y="755" on="1"/>
        <pt x="1382" y="465" on="0"/>
        <pt x="1244" y="288" on="1"/>
        <pt x="1004" y="-20" on="0"/>
        <pt x="410" y="-20" on="0"/>
        <pt x="312" y="287" on="1"/>
        <pt x="287" y="365" on="0"/>
        <pt x="287" y="470" on="1"/>
        <pt x="287" y="599" on="0"/>
      </contour>
      <contour>
        <pt x="1186" y="1802" on="1"/>
        <pt x="1198" y="1853" on="0"/>
        <pt x="1284" y="1925" on="0"/>
        <pt x="1386" y="1925" on="0"/>
        <pt x="1412" y="1889" on="1"/>
        <pt x="1431" y="1863" on="0"/>
        <pt x="1431" y="1832" on="1"/>
        <pt x="1431" y="1820" on="0"/>
        <pt x="1427" y="1802" on="1"/>
        <pt x="1412" y="1749" on="0"/>
        <pt x="1372" y="1716" on="1"/>
        <pt x="1328" y="1680" on="0"/>
        <pt x="1277" y="1680" on="1"/>
        <pt x="1227" y="1680" on="0"/>
        <pt x="1200" y="1717" on="1"/>
        <pt x="1182" y="1741" on="0"/>
        <pt x="1182" y="1770" on="1"/>
        <pt x="1182" y="1784" on="0"/>
      </contour>
      <contour>
        <pt x="885" y="1802" on="1"/>
        <pt x="897" y="1853" on="0"/>
        <pt x="983" y="1925" on="0"/>
        <pt x="1085" y="1925" on="0"/>
        <pt x="1111" y="1889" on="1"/>
        <pt x="1130" y="1863" on="0"/>
        <pt x="1130" y="1832" on="1"/>
        <pt x="1130" y="1820" on="0"/>
        <pt x="1126" y="1802" on="1"/>
        <pt x="1111" y="1749" on="0"/>
        <pt x="1071" y="1716" on="1"/>
        <pt x="1027" y="1680" on="0"/>
        <pt x="976" y="1680" on="1"/>
        <pt x="926" y="1680" on="0"/>
        <pt x="899" y="1717" on="1"/>
        <pt x="881" y="1741" on="0"/>
        <pt x="881" y="1770" on="1"/>
        <pt x="881" y="1784" on="0"/>
      </contour>
    </TTGlyph>
    <TTGlyph name="Ograve" xMin="287" yMin="-20" xMax="1484" yMax="1966">
      <contour>
        <pt x="524" y="755" on="1"/>
        <pt x="488" y="596" on="0"/>
        <pt x="488" y="485" on="1"/>
        <pt x="488" y="416" on="0"/>
        <pt x="502" y="365" on="1"/>
        <pt x="561" y="150" on="0"/>
        <pt x="747" y="150" on="1"/>
        <pt x="930" y="150" on="0"/>
        <pt x="1090" y="366" on="1"/>
        <pt x="1189" y="500" on="0"/>
        <pt x="1248" y="755" on="1"/>
        <pt x="1284" y="911" on="0"/>
        <pt x="1284" y="1022" on="1"/>
        <pt x="1284" y="1091" on="0"/>
        <pt x="1270" y="1144" on="1"/>
        <pt x="1213" y="1360" on="0"/>
        <pt x="1026" y="1360" on="1"/>
        <pt x="841" y="1360" on="0"/>
        <pt x="682" y="1144" on="1"/>
        <pt x="581" y="1007" on="0"/>
      </contour>
      <contour>
        <pt x="324" y="754" on="1"/>
        <pt x="391" y="1046" on="0"/>
        <pt x="528" y="1222" on="1"/>
        <pt x="768" y="1530" on="0"/>
        <pt x="1065" y="1530" on="1"/>
        <pt x="1366" y="1530" on="0"/>
        <pt x="1460" y="1222" on="1"/>
        <pt x="1484" y="1143" on="0"/>
        <pt x="1484" y="1041" on="1"/>
        <pt x="1484" y="917" on="0"/>
        <pt x="1448" y="755" on="1"/>
        <pt x="1382" y="465" on="0"/>
        <pt x="1244" y="288" on="1"/>
        <pt x="1004" y="-20" on="0"/>
        <pt x="410" y="-20" on="0"/>
        <pt x="312" y="287" on="1"/>
        <pt x="287" y="365" on="0"/>
        <pt x="287" y="470" on="1"/>
        <pt x="287" y="599" on="0"/>
      </contour>
      <contour>
        <pt x="1050" y="1966" on="1"/>
        <pt x="1060" y="1966" on="1"/>
        <pt x="1142" y="1621" on="1"/>
        <pt x="1013" y="1566" on="1"/>
        <pt x="1003" y="1566" on="1"/>
        <pt x="854" y="1882" on="1"/>
      </contour>
    </TTGlyph>
    <TTGlyph name="Ohungarumlaut" xMin="287" yMin="-20" xMax="1553" yMax="1966">
      <contour>
        <pt x="524" y="755" on="1"/>
        <pt x="488" y="596" on="0"/>
        <pt x="488" y="485" on="1"/>
        <pt x="488" y="416" on="0"/>
        <pt x="502" y="365" on="1"/>
        <pt x="561" y="150" on="0"/>
        <pt x="747" y="150" on="1"/>
        <pt x="930" y="150" on="0"/>
        <pt x="1090" y="366" on="1"/>
        <pt x="1189" y="500" on="0"/>
        <pt x="1248" y="755" on="1"/>
        <pt x="1284" y="911" on="0"/>
        <pt x="1284" y="1022" on="1"/>
        <pt x="1284" y="1091" on="0"/>
        <pt x="1270" y="1144" on="1"/>
        <pt x="1213" y="1360" on="0"/>
        <pt x="1026" y="1360" on="1"/>
        <pt x="841" y="1360" on="0"/>
        <pt x="682" y="1144" on="1"/>
        <pt x="581" y="1007" on="0"/>
      </contour>
      <contour>
        <pt x="324" y="754" on="1"/>
        <pt x="391" y="1046" on="0"/>
        <pt x="528" y="1222" on="1"/>
        <pt x="768" y="1530" on="0"/>
        <pt x="1065" y="1530" on="1"/>
        <pt x="1366" y="1530" on="0"/>
        <pt x="1460" y="1222" on="1"/>
        <pt x="1484" y="1143" on="0"/>
        <pt x="1484" y="1041" on="1"/>
        <pt x="1484" y="917" on="0"/>
        <pt x="1448" y="755" on="1"/>
        <pt x="1382" y="465" on="0"/>
        <pt x="1244" y="288" on="1"/>
        <pt x="1004" y="-20" on="0"/>
        <pt x="410" y="-20" on="0"/>
        <pt x="312" y="287" on="1"/>
        <pt x="287" y="365" on="0"/>
        <pt x="287" y="470" on="1"/>
        <pt x="287" y="599" on="0"/>
      </contour>
      <contour>
        <pt x="1387" y="1966" on="1"/>
        <pt x="1397" y="1966" on="1"/>
        <pt x="1553" y="1882" on="1"/>
        <pt x="1260" y="1566" on="1"/>
        <pt x="1250" y="1566" on="1"/>
        <pt x="1145" y="1621" on="1"/>
      </contour>
      <contour>
        <pt x="1110" y="1966" on="1"/>
        <pt x="1120" y="1966" on="1"/>
        <pt x="1276" y="1882" on="1"/>
        <pt x="983" y="1566" on="1"/>
        <pt x="973" y="1566" on="1"/>
        <pt x="868" y="1621" on="1"/>
      </contour>
    </TTGlyph>
    <TTGlyph name="Omacron" xMin="287" yMin="-20" xMax="1484" yMax="1820">
      <contour>
        <pt x="524" y="755" on="1"/>
        <pt x="488" y="596" on="0"/>
        <pt x="488" y="485" on="1"/>
        <pt x="488" y="416" on="0"/>
        <pt x="502" y="365" on="1"/>
        <pt x="561" y="150" on="0"/>
        <pt x="747" y="150" on="1"/>
        <pt x="930" y="150" on="0"/>
        <pt x="1090" y="366" on="1"/>
        <pt x="1189" y="500" on="0"/>
        <pt x="1248" y="755" on="1"/>
        <pt x="1284" y="911" on="0"/>
        <pt x="1284" y="1022" on="1"/>
        <pt x="1284" y="1091" on="0"/>
        <pt x="1270" y="1144" on="1"/>
        <pt x="1213" y="1360" on="0"/>
        <pt x="1026" y="1360" on="1"/>
        <pt x="841" y="1360" on="0"/>
        <pt x="682" y="1144" on="1"/>
        <pt x="581" y="1007" on="0"/>
      </contour>
      <contour>
        <pt x="324" y="754" on="1"/>
        <pt x="391" y="1046" on="0"/>
        <pt x="528" y="1222" on="1"/>
        <pt x="768" y="1530" on="0"/>
        <pt x="1065" y="1530" on="1"/>
        <pt x="1366" y="1530" on="0"/>
        <pt x="1460" y="1222" on="1"/>
        <pt x="1484" y="1143" on="0"/>
        <pt x="1484" y="1041" on="1"/>
        <pt x="1484" y="917" on="0"/>
        <pt x="1448" y="755" on="1"/>
        <pt x="1382" y="465" on="0"/>
        <pt x="1244" y="288" on="1"/>
        <pt x="1004" y="-20" on="0"/>
        <pt x="410" y="-20" on="0"/>
        <pt x="312" y="287" on="1"/>
        <pt x="287" y="365" on="0"/>
        <pt x="287" y="470" on="1"/>
        <pt x="287" y="599" on="0"/>
      </contour>
      <contour>
        <pt x="845" y="1638" on="1"/>
        <pt x="847" y="1648" on="1"/>
        <pt x="968" y="1820" on="1"/>
        <pt x="1426" y="1820" on="1"/>
        <pt x="1424" y="1810" on="1"/>
        <pt x="1303" y="1638" on="1"/>
      </contour>
    </TTGlyph>
    <TTGlyph name="Omega" xMin="150" yMin="0" xMax="1529" yMax="1530">
      <contour>
        <pt x="630" y="0" on="1"/>
        <pt x="408" y="0" on="1"/>
        <pt x="160" y="0" on="0"/>
        <pt x="150" y="216" on="1"/>
        <pt x="316" y="287" on="1"/>
        <pt x="326" y="287" on="1"/>
        <pt x="331" y="170" on="0"/>
        <pt x="447" y="170" on="1"/>
        <pt x="507" y="170" on="1"/>
        <pt x="530" y="267" on="1"/>
        <pt x="348" y="394" on="0"/>
        <pt x="348" y="658" on="1"/>
        <pt x="349" y="767" on="0"/>
        <pt x="379" y="898" on="1"/>
        <pt x="429" y="1118" on="0"/>
        <pt x="597" y="1297" on="1"/>
        <pt x="815" y="1530" on="0"/>
        <pt x="1090" y="1530" on="1"/>
        <pt x="1361" y="1530" on="0"/>
        <pt x="1475" y="1297" on="1"/>
        <pt x="1529" y="1187" on="0"/>
        <pt x="1529" y="1059" on="1"/>
        <pt x="1528" y="981" on="0"/>
        <pt x="1509" y="898" on="1"/>
        <pt x="1405" y="445" on="0"/>
        <pt x="1068" y="267" on="1"/>
        <pt x="1045" y="170" on="1"/>
        <pt x="1105" y="170" on="1"/>
        <pt x="1221" y="170" on="0"/>
        <pt x="1280" y="287" on="1"/>
        <pt x="1290" y="287" on="1"/>
        <pt x="1424" y="216" on="1"/>
        <pt x="1314" y="0" on="0"/>
        <pt x="1066" y="0" on="1"/>
        <pt x="844" y="0" on="1"/>
        <pt x="929" y="368" on="1"/>
        <pt x="1216" y="499" on="0"/>
        <pt x="1309" y="898" on="1"/>
        <pt x="1326" y="971" on="0"/>
        <pt x="1326" y="1037" on="1"/>
        <pt x="1326" y="1132" on="0"/>
        <pt x="1291" y="1211" on="1"/>
        <pt x="1223" y="1364" on="0"/>
        <pt x="1054" y="1364" on="1"/>
        <pt x="881" y="1364" on="0"/>
        <pt x="743" y="1211" on="1"/>
        <pt x="619" y="1074" on="0"/>
        <pt x="579" y="898" on="1"/>
        <pt x="553" y="784" on="0"/>
        <pt x="553" y="692" on="1"/>
        <pt x="553" y="462" on="0"/>
        <pt x="715" y="368" on="1"/>
      </contour>
    </TTGlyph>
    <TTGlyph name="Oslash" xMin="287" yMin="-40" xMax="1485" yMax="1550">
      <contour>
        <pt x="402" y="-40" on="1"/>
        <pt x="392" y="-40" on="1"/>
        <pt x="299" y="10" on="1"/>
        <pt x="386" y="135" on="1"/>
        <pt x="340" y="200" on="0"/>
        <pt x="312" y="288" on="1"/>
        <pt x="287" y="367" on="0"/>
        <pt x="287" y="470" on="1"/>
        <pt x="287" y="596" on="0"/>
        <pt x="324" y="755" on="1"/>
        <pt x="392" y="1047" on="0"/>
        <pt x="528" y="1222" on="1"/>
        <pt x="768" y="1530" on="0"/>
        <pt x="1065" y="1530" on="1"/>
        <pt x="1210" y="1530" on="0"/>
        <pt x="1307" y="1458" on="1"/>
        <pt x="1371" y="1550" on="1"/>
        <pt x="1381" y="1550" on="1"/>
        <pt x="1473" y="1499" on="1"/>
        <pt x="1386" y="1375" on="1"/>
        <pt x="1432" y="1312" on="0"/>
        <pt x="1460" y="1222" on="1"/>
        <pt x="1485" y="1142" on="0"/>
        <pt x="1485" y="1039" on="1"/>
        <pt x="1485" y="913" on="0"/>
        <pt x="1448" y="755" on="1"/>
        <pt x="1380" y="465" on="0"/>
        <pt x="1244" y="288" on="1"/>
        <pt x="1007" y="-20" on="0"/>
        <pt x="707" y="-20" on="1"/>
        <pt x="563" y="-20" on="0"/>
        <pt x="466" y="52" on="1"/>
      </contour>
      <contour>
        <pt x="526" y="755" on="1"/>
        <pt x="488" y="591" on="0"/>
        <pt x="488" y="481" on="1"/>
        <pt x="488" y="414" on="0"/>
        <pt x="502" y="366" on="1"/>
        <pt x="507" y="349" on="0"/>
        <pt x="517" y="323" on="1"/>
        <pt x="1193" y="1294" on="1"/>
        <pt x="1129" y="1360" on="0"/>
        <pt x="1026" y="1360" on="1"/>
        <pt x="848" y="1360" on="0"/>
        <pt x="684" y="1144" on="1"/>
        <pt x="586" y="1016" on="0"/>
      </contour>
      <contour>
        <pt x="1256" y="1188" on="1"/>
        <pt x="581" y="217" on="1"/>
        <pt x="645" y="150" on="0"/>
        <pt x="747" y="150" on="1"/>
        <pt x="930" y="150" on="0"/>
        <pt x="1090" y="366" on="1"/>
        <pt x="1186" y="496" on="0"/>
        <pt x="1248" y="755" on="1"/>
        <pt x="1286" y="914" on="0"/>
        <pt x="1286" y="1026" on="1"/>
        <pt x="1286" y="1094" on="0"/>
        <pt x="1272" y="1145" on="1"/>
        <pt x="1266" y="1167" on="0"/>
      </contour>
    </TTGlyph>
    <TTGlyph name="Oslashacute" xMin="287" yMin="-40" xMax="1485" yMax="1966">
      <contour>
        <pt x="402" y="-40" on="1"/>
        <pt x="392" y="-40" on="1"/>
        <pt x="299" y="10" on="1"/>
        <pt x="386" y="135" on="1"/>
        <pt x="340" y="200" on="0"/>
        <pt x="312" y="288" on="1"/>
        <pt x="287" y="367" on="0"/>
        <pt x="287" y="470" on="1"/>
        <pt x="287" y="596" on="0"/>
        <pt x="324" y="755" on="1"/>
        <pt x="392" y="1047" on="0"/>
        <pt x="528" y="1222" on="1"/>
        <pt x="768" y="1530" on="0"/>
        <pt x="1065" y="1530" on="1"/>
        <pt x="1210" y="1530" on="0"/>
        <pt x="1307" y="1458" on="1"/>
        <pt x="1371" y="1550" on="1"/>
        <pt x="1381" y="1550" on="1"/>
        <pt x="1473" y="1499" on="1"/>
        <pt x="1386" y="1375" on="1"/>
        <pt x="1432" y="1312" on="0"/>
        <pt x="1460" y="1222" on="1"/>
        <pt x="1485" y="1142" on="0"/>
        <pt x="1485" y="1039" on="1"/>
        <pt x="1485" y="913" on="0"/>
        <pt x="1448" y="755" on="1"/>
        <pt x="1380" y="465" on="0"/>
        <pt x="1244" y="288" on="1"/>
        <pt x="1007" y="-20" on="0"/>
        <pt x="707" y="-20" on="1"/>
        <pt x="563" y="-20" on="0"/>
        <pt x="466" y="52" on="1"/>
      </contour>
      <contour>
        <pt x="526" y="755" on="1"/>
        <pt x="488" y="591" on="0"/>
        <pt x="488" y="481" on="1"/>
        <pt x="488" y="414" on="0"/>
        <pt x="502" y="366" on="1"/>
        <pt x="507" y="349" on="0"/>
        <pt x="517" y="323" on="1"/>
        <pt x="1193" y="1294" on="1"/>
        <pt x="1129" y="1360" on="0"/>
        <pt x="1026" y="1360" on="1"/>
        <pt x="848" y="1360" on="0"/>
        <pt x="684" y="1144" on="1"/>
        <pt x="586" y="1016" on="0"/>
      </contour>
      <contour>
        <pt x="1256" y="1188" on="1"/>
        <pt x="581" y="217" on="1"/>
        <pt x="645" y="150" on="0"/>
        <pt x="747" y="150" on="1"/>
        <pt x="930" y="150" on="0"/>
        <pt x="1090" y="366" on="1"/>
        <pt x="1186" y="496" on="0"/>
        <pt x="1248" y="755" on="1"/>
        <pt x="1286" y="914" on="0"/>
        <pt x="1286" y="1026" on="1"/>
        <pt x="1286" y="1094" on="0"/>
        <pt x="1272" y="1145" on="1"/>
        <pt x="1266" y="1167" on="0"/>
      </contour>
      <contour>
        <pt x="1271" y="1966" on="1"/>
        <pt x="1281" y="1966" on="1"/>
        <pt x="1437" y="1882" on="1"/>
        <pt x="1144" y="1566" on="1"/>
        <pt x="1134" y="1566" on="1"/>
        <pt x="1029" y="1621" on="1"/>
      </contour>
    </TTGlyph>
    <TTGlyph name="Otilde" xMin="287" yMin="-20" xMax="1484" yMax="1924">
      <contour>
        <pt x="524" y="755" on="1"/>
        <pt x="488" y="596" on="0"/>
        <pt x="488" y="485" on="1"/>
        <pt x="488" y="416" on="0"/>
        <pt x="502" y="365" on="1"/>
        <pt x="561" y="150" on="0"/>
        <pt x="747" y="150" on="1"/>
        <pt x="930" y="150" on="0"/>
        <pt x="1090" y="366" on="1"/>
        <pt x="1189" y="500" on="0"/>
        <pt x="1248" y="755" on="1"/>
        <pt x="1284" y="911" on="0"/>
        <pt x="1284" y="1022" on="1"/>
        <pt x="1284" y="1091" on="0"/>
        <pt x="1270" y="1144" on="1"/>
        <pt x="1213" y="1360" on="0"/>
        <pt x="1026" y="1360" on="1"/>
        <pt x="841" y="1360" on="0"/>
        <pt x="682" y="1144" on="1"/>
        <pt x="581" y="1007" on="0"/>
      </contour>
      <contour>
        <pt x="324" y="754" on="1"/>
        <pt x="391" y="1046" on="0"/>
        <pt x="528" y="1222" on="1"/>
        <pt x="768" y="1530" on="0"/>
        <pt x="1065" y="1530" on="1"/>
        <pt x="1366" y="1530" on="0"/>
        <pt x="1460" y="1222" on="1"/>
        <pt x="1484" y="1143" on="0"/>
        <pt x="1484" y="1041" on="1"/>
        <pt x="1484" y="917" on="0"/>
        <pt x="1448" y="755" on="1"/>
        <pt x="1382" y="465" on="0"/>
        <pt x="1244" y="288" on="1"/>
        <pt x="1004" y="-20" on="0"/>
        <pt x="410" y="-20" on="0"/>
        <pt x="312" y="287" on="1"/>
        <pt x="287" y="365" on="0"/>
        <pt x="287" y="470" on="1"/>
        <pt x="287" y="599" on="0"/>
      </contour>
      <contour>
        <pt x="849" y="1638" on="1"/>
        <pt x="915" y="1924" on="0"/>
        <pt x="1056" y="1924" on="1"/>
        <pt x="1120" y="1924" on="0"/>
        <pt x="1177" y="1854" on="1"/>
        <pt x="1217" y="1805" on="0"/>
        <pt x="1241" y="1805" on="1"/>
        <pt x="1275" y="1805" on="0"/>
        <pt x="1291" y="1877" on="1"/>
        <pt x="1412" y="1924" on="1"/>
        <pt x="1418" y="1924" on="1"/>
        <pt x="1352" y="1638" on="0"/>
        <pt x="1211" y="1638" on="1"/>
        <pt x="1146" y="1638" on="0"/>
        <pt x="1090" y="1708" on="1"/>
        <pt x="1051" y="1757" on="0"/>
        <pt x="1027" y="1757" on="1"/>
        <pt x="993" y="1757" on="0"/>
        <pt x="976" y="1685" on="1"/>
        <pt x="855" y="1638" on="1"/>
      </contour>
    </TTGlyph>
    <TTGlyph name="P" xMin="171" yMin="-40" xMax="1501" yMax="1530">
      <contour>
        <pt x="171" y="-40" on="1"/>
        <pt x="354" y="755" on="1"/>
        <pt x="421" y="1046" on="0"/>
        <pt x="558" y="1222" on="1"/>
        <pt x="798" y="1530" on="0"/>
        <pt x="1095" y="1530" on="1"/>
        <pt x="1345" y="1530" on="0"/>
        <pt x="1446" y="1346" on="1"/>
        <pt x="1501" y="1246" on="0"/>
        <pt x="1501" y="1131" on="1"/>
        <pt x="1501" y="1070" on="0"/>
        <pt x="1486" y="1005" on="1"/>
        <pt x="1446" y="832" on="0"/>
        <pt x="1291" y="684" on="1"/>
        <pt x="1099" y="500" on="0"/>
        <pt x="807" y="500" on="1"/>
        <pt x="614" y="500" on="1"/>
        <pt x="617" y="510" on="1"/>
        <pt x="729" y="670" on="1"/>
        <pt x="847" y="670" on="1"/>
        <pt x="1035" y="670" on="0"/>
        <pt x="1137" y="762" on="1"/>
        <pt x="1254" y="868" on="0"/>
        <pt x="1286" y="1005" on="1"/>
        <pt x="1299" y="1061" on="0"/>
        <pt x="1299" y="1109" on="1"/>
        <pt x="1299" y="1202" on="0"/>
        <pt x="1251" y="1267" on="1"/>
        <pt x="1182" y="1360" on="0"/>
        <pt x="1056" y="1360" on="1"/>
        <pt x="872" y="1360" on="0"/>
        <pt x="712" y="1144" on="1"/>
        <pt x="613" y="1010" on="0"/>
        <pt x="554" y="755" on="1"/>
        <pt x="392" y="50" on="1"/>
        <pt x="181" y="-40" on="1"/>
      </contour>
    </TTGlyph>
    <TTGlyph name="Pi" xMin="191" yMin="-40" xMax="1497" yMax="1510">
      <contour>
        <pt x="191" y="-40" on="1"/>
        <pt x="499" y="1296" on="1"/>
        <pt x="549" y="1510" on="0"/>
        <pt x="799" y="1510" on="1"/>
        <pt x="1289" y="1510" on="1"/>
        <pt x="1497" y="1510" on="0"/>
        <pt x="1497" y="1361" on="1"/>
        <pt x="1497" y="1332" on="0"/>
        <pt x="1489" y="1296" on="1"/>
        <pt x="1202" y="50" on="1"/>
        <pt x="991" y="-40" on="1"/>
        <pt x="981" y="-40" on="1"/>
        <pt x="1289" y="1296" on="1"/>
        <pt x="1299" y="1340" on="0"/>
        <pt x="1249" y="1340" on="1"/>
        <pt x="759" y="1340" on="1"/>
        <pt x="709" y="1340" on="0"/>
        <pt x="699" y="1296" on="1"/>
        <pt x="412" y="50" on="1"/>
        <pt x="201" y="-40" on="1"/>
      </contour>
    </TTGlyph>
    <TTGlyph name="Q" xMin="287" yMin="-241" xMax="1484" yMax="1530">
      <contour>
        <pt x="707" y="-20" on="1"/>
        <pt x="409" y="-20" on="0"/>
        <pt x="312" y="288" on="1"/>
        <pt x="287" y="367" on="0"/>
        <pt x="287" y="470" on="1"/>
        <pt x="287" y="596" on="0"/>
        <pt x="324" y="755" on="1"/>
        <pt x="392" y="1047" on="0"/>
        <pt x="528" y="1222" on="1"/>
        <pt x="768" y="1530" on="0"/>
        <pt x="1065" y="1530" on="1"/>
        <pt x="1366" y="1530" on="0"/>
        <pt x="1460" y="1222" on="1"/>
        <pt x="1484" y="1143" on="0"/>
        <pt x="1484" y="1041" on="1"/>
        <pt x="1484" y="917" on="0"/>
        <pt x="1448" y="755" on="1"/>
        <pt x="1382" y="465" on="0"/>
        <pt x="1244" y="288" on="1"/>
        <pt x="1183" y="210" on="0"/>
        <pt x="1121" y="153" on="1"/>
        <pt x="1266" y="-158" on="1"/>
        <pt x="1070" y="-241" on="1"/>
        <pt x="1060" y="-241" on="1"/>
        <pt x="839" y="236" on="1"/>
        <pt x="1035" y="319" on="1"/>
        <pt x="1045" y="319" on="1"/>
        <pt x="1047" y="312" on="1"/>
        <pt x="1069" y="337" on="0"/>
        <pt x="1090" y="366" on="1"/>
        <pt x="1189" y="499" on="0"/>
        <pt x="1248" y="755" on="1"/>
        <pt x="1284" y="911" on="0"/>
        <pt x="1284" y="1022" on="1"/>
        <pt x="1284" y="1091" on="0"/>
        <pt x="1270" y="1144" on="1"/>
        <pt x="1213" y="1360" on="0"/>
        <pt x="1026" y="1360" on="1"/>
        <pt x="841" y="1360" on="0"/>
        <pt x="682" y="1144" on="1"/>
        <pt x="583" y="1009" on="0"/>
        <pt x="524" y="755" on="1"/>
        <pt x="487" y="595" on="0"/>
        <pt x="487" y="485" on="1"/>
        <pt x="487" y="416" on="0"/>
        <pt x="502" y="366" on="1"/>
        <pt x="543" y="230" on="0"/>
        <pt x="628" y="180" on="1"/>
      </contour>
    </TTGlyph>
    <TTGlyph name="R" xMin="171" yMin="-40" xMax="1501" yMax="1530">
      <contour>
        <pt x="171" y="-40" on="1"/>
        <pt x="354" y="755" on="1"/>
        <pt x="421" y="1046" on="0"/>
        <pt x="558" y="1222" on="1"/>
        <pt x="798" y="1530" on="0"/>
        <pt x="1095" y="1530" on="1"/>
        <pt x="1345" y="1530" on="0"/>
        <pt x="1446" y="1346" on="1"/>
        <pt x="1501" y="1246" on="0"/>
        <pt x="1501" y="1131" on="1"/>
        <pt x="1501" y="1070" on="0"/>
        <pt x="1486" y="1005" on="1"/>
        <pt x="1446" y="833" on="0"/>
        <pt x="1291" y="684" on="1"/>
        <pt x="1191" y="588" on="0"/>
        <pt x="1064" y="542" on="1"/>
        <pt x="1298" y="43" on="1"/>
        <pt x="1103" y="-40" on="1"/>
        <pt x="1093" y="-40" on="1"/>
        <pt x="840" y="500" on="1"/>
        <pt x="614" y="500" on="1"/>
        <pt x="617" y="510" on="1"/>
        <pt x="729" y="670" on="1"/>
        <pt x="847" y="670" on="1"/>
        <pt x="1035" y="670" on="0"/>
        <pt x="1137" y="762" on="1"/>
        <pt x="1254" y="868" on="0"/>
        <pt x="1286" y="1005" on="1"/>
        <pt x="1299" y="1061" on="0"/>
        <pt x="1299" y="1109" on="1"/>
        <pt x="1299" y="1202" on="0"/>
        <pt x="1251" y="1267" on="1"/>
        <pt x="1182" y="1360" on="0"/>
        <pt x="1056" y="1360" on="1"/>
        <pt x="872" y="1360" on="0"/>
        <pt x="712" y="1144" on="1"/>
        <pt x="613" y="1010" on="0"/>
        <pt x="554" y="755" on="1"/>
        <pt x="392" y="50" on="1"/>
        <pt x="181" y="-40" on="1"/>
      </contour>
    </TTGlyph>
    <TTGlyph name="Racute" xMin="171" yMin="-40" xMax="1501" yMax="1966">
      <contour>
        <pt x="171" y="-40" on="1"/>
        <pt x="354" y="755" on="1"/>
        <pt x="421" y="1046" on="0"/>
        <pt x="558" y="1222" on="1"/>
        <pt x="798" y="1530" on="0"/>
        <pt x="1095" y="1530" on="1"/>
        <pt x="1345" y="1530" on="0"/>
        <pt x="1446" y="1346" on="1"/>
        <pt x="1501" y="1246" on="0"/>
        <pt x="1501" y="1131" on="1"/>
        <pt x="1501" y="1070" on="0"/>
        <pt x="1486" y="1005" on="1"/>
        <pt x="1446" y="833" on="0"/>
        <pt x="1291" y="684" on="1"/>
        <pt x="1191" y="588" on="0"/>
        <pt x="1064" y="542" on="1"/>
        <pt x="1298" y="43" on="1"/>
        <pt x="1103" y="-40" on="1"/>
        <pt x="1093" y="-40" on="1"/>
        <pt x="840" y="500" on="1"/>
        <pt x="614" y="500" on="1"/>
        <pt x="617" y="510" on="1"/>
        <pt x="729" y="670" on="1"/>
        <pt x="847" y="670" on="1"/>
        <pt x="1035" y="670" on="0"/>
        <pt x="1137" y="762" on="1"/>
        <pt x="1254" y="868" on="0"/>
        <pt x="1286" y="1005" on="1"/>
        <pt x="1299" y="1061" on="0"/>
        <pt x="1299" y="1109" on="1"/>
        <pt x="1299" y="1202" on="0"/>
        <pt x="1251" y="1267" on="1"/>
        <pt x="1182" y="1360" on="0"/>
        <pt x="1056" y="1360" on="1"/>
        <pt x="872" y="1360" on="0"/>
        <pt x="712" y="1144" on="1"/>
        <pt x="613" y="1010" on="0"/>
        <pt x="554" y="755" on="1"/>
        <pt x="392" y="50" on="1"/>
        <pt x="181" y="-40" on="1"/>
      </contour>
      <contour>
        <pt x="1234" y="1966" on="1"/>
        <pt x="1244" y="1966" on="1"/>
        <pt x="1400" y="1882" on="1"/>
        <pt x="1107" y="1566" on="1"/>
        <pt x="1097" y="1566" on="1"/>
        <pt x="992" y="1621" on="1"/>
      </contour>
    </TTGlyph>
    <TTGlyph name="Rcaron" xMin="171" yMin="-40" xMax="1501" yMax="1966">
      <contour>
        <pt x="171" y="-40" on="1"/>
        <pt x="354" y="755" on="1"/>
        <pt x="421" y="1046" on="0"/>
        <pt x="558" y="1222" on="1"/>
        <pt x="798" y="1530" on="0"/>
        <pt x="1095" y="1530" on="1"/>
        <pt x="1345" y="1530" on="0"/>
        <pt x="1446" y="1346" on="1"/>
        <pt x="1501" y="1246" on="0"/>
        <pt x="1501" y="1131" on="1"/>
        <pt x="1501" y="1070" on="0"/>
        <pt x="1486" y="1005" on="1"/>
        <pt x="1446" y="833" on="0"/>
        <pt x="1291" y="684" on="1"/>
        <pt x="1191" y="588" on="0"/>
        <pt x="1064" y="542" on="1"/>
        <pt x="1298" y="43" on="1"/>
        <pt x="1103" y="-40" on="1"/>
        <pt x="1093" y="-40" on="1"/>
        <pt x="840" y="500" on="1"/>
        <pt x="614" y="500" on="1"/>
        <pt x="617" y="510" on="1"/>
        <pt x="729" y="670" on="1"/>
        <pt x="847" y="670" on="1"/>
        <pt x="1035" y="670" on="0"/>
        <pt x="1137" y="762" on="1"/>
        <pt x="1254" y="868" on="0"/>
        <pt x="1286" y="1005" on="1"/>
        <pt x="1299" y="1061" on="0"/>
        <pt x="1299" y="1109" on="1"/>
        <pt x="1299" y="1202" on="0"/>
        <pt x="1251" y="1267" on="1"/>
        <pt x="1182" y="1360" on="0"/>
        <pt x="1056" y="1360" on="1"/>
        <pt x="872" y="1360" on="0"/>
        <pt x="712" y="1144" on="1"/>
        <pt x="613" y="1010" on="0"/>
        <pt x="554" y="755" on="1"/>
        <pt x="392" y="50" on="1"/>
        <pt x="181" y="-40" on="1"/>
      </contour>
      <contour>
        <pt x="1029" y="1566" on="1"/>
        <pt x="895" y="1911" on="1"/>
        <pt x="1024" y="1966" on="1"/>
        <pt x="1034" y="1966" on="1"/>
        <pt x="1136" y="1758" on="1"/>
        <pt x="1332" y="1966" on="1"/>
        <pt x="1342" y="1966" on="1"/>
        <pt x="1447" y="1911" on="1"/>
        <pt x="1234" y="1650" on="1"/>
        <pt x="1039" y="1566" on="1"/>
      </contour>
    </TTGlyph>
    <TTGlyph name="Rcommaaccent" xMin="171" yMin="-450" xMax="1501" yMax="1530">
      <contour>
        <pt x="171" y="-40" on="1"/>
        <pt x="354" y="755" on="1"/>
        <pt x="421" y="1046" on="0"/>
        <pt x="558" y="1222" on="1"/>
        <pt x="798" y="1530" on="0"/>
        <pt x="1095" y="1530" on="1"/>
        <pt x="1345" y="1530" on="0"/>
        <pt x="1446" y="1346" on="1"/>
        <pt x="1501" y="1246" on="0"/>
        <pt x="1501" y="1131" on="1"/>
        <pt x="1501" y="1070" on="0"/>
        <pt x="1486" y="1005" on="1"/>
        <pt x="1446" y="833" on="0"/>
        <pt x="1291" y="684" on="1"/>
        <pt x="1191" y="588" on="0"/>
        <pt x="1064" y="542" on="1"/>
        <pt x="1298" y="43" on="1"/>
        <pt x="1103" y="-40" on="1"/>
        <pt x="1093" y="-40" on="1"/>
        <pt x="840" y="500" on="1"/>
        <pt x="614" y="500" on="1"/>
        <pt x="617" y="510" on="1"/>
        <pt x="729" y="670" on="1"/>
        <pt x="847" y="670" on="1"/>
        <pt x="1035" y="670" on="0"/>
        <pt x="1137" y="762" on="1"/>
        <pt x="1254" y="868" on="0"/>
        <pt x="1286" y="1005" on="1"/>
        <pt x="1299" y="1061" on="0"/>
        <pt x="1299" y="1109" on="1"/>
        <pt x="1299" y="1202" on="0"/>
        <pt x="1251" y="1267" on="1"/>
        <pt x="1182" y="1360" on="0"/>
        <pt x="1056" y="1360" on="1"/>
        <pt x="872" y="1360" on="0"/>
        <pt x="712" y="1144" on="1"/>
        <pt x="613" y="1010" on="0"/>
        <pt x="554" y="755" on="1"/>
        <pt x="392" y="50" on="1"/>
        <pt x="181" y="-40" on="1"/>
      </contour>
      <contour>
        <pt x="492" y="-450" on="1"/>
        <pt x="482" y="-450" on="1"/>
        <pt x="326" y="-366" on="1"/>
        <pt x="619" y="-50" on="1"/>
        <pt x="629" y="-50" on="1"/>
        <pt x="734" y="-105" on="1"/>
      </contour>
    </TTGlyph>
    <TTGlyph name="S" xMin="186" yMin="-20" xMax="1265" yMax="1530">
      <contour>
        <pt x="186" y="288" on="1"/>
        <pt x="186" y="288" on="0"/>
        <pt x="366" y="366" on="1"/>
        <pt x="376" y="366" on="1"/>
        <pt x="435" y="150" on="0"/>
        <pt x="621" y="150" on="1"/>
        <pt x="750" y="150" on="0"/>
        <pt x="876" y="265" on="1"/>
        <pt x="966" y="347" on="0"/>
        <pt x="998" y="478" on="1"/>
        <pt x="1006" y="511" on="0"/>
        <pt x="1006" y="540" on="1"/>
        <pt x="1006" y="601" on="0"/>
        <pt x="973" y="646" on="1"/>
        <pt x="914" y="726" on="0"/>
        <pt x="779" y="756" on="1"/>
        <pt x="631" y="789" on="0"/>
        <pt x="539" y="868" on="1"/>
        <pt x="453" y="942" on="0"/>
        <pt x="453" y="1054" on="1"/>
        <pt x="453" y="1090" on="0"/>
        <pt x="462" y="1132" on="1"/>
        <pt x="505" y="1313" on="0"/>
        <pt x="660" y="1428" on="1"/>
        <pt x="797" y="1530" on="0"/>
        <pt x="969" y="1530" on="1"/>
        <pt x="1193" y="1530" on="0"/>
        <pt x="1265" y="1302" on="1"/>
        <pt x="1089" y="1227" on="1"/>
        <pt x="1079" y="1227" on="1"/>
        <pt x="1043" y="1360" on="0"/>
        <pt x="930" y="1360" on="1"/>
        <pt x="835" y="1360" on="0"/>
        <pt x="761" y="1299" on="1"/>
        <pt x="688" y="1239" on="0"/>
        <pt x="666" y="1147" on="1"/>
        <pt x="660" y="1122" on="0"/>
        <pt x="660" y="1101" on="1"/>
        <pt x="660" y="1052" on="0"/>
        <pt x="690" y="1021" on="1"/>
        <pt x="744" y="963" on="0"/>
        <pt x="877" y="935" on="1"/>
        <pt x="1057" y="897" on="0"/>
        <pt x="1149" y="779" on="1"/>
        <pt x="1213" y="697" on="0"/>
        <pt x="1213" y="584" on="1"/>
        <pt x="1213" y="530" on="0"/>
        <pt x="1199" y="472" on="1"/>
        <pt x="1157" y="285" on="0"/>
        <pt x="976" y="132" on="1"/>
        <pt x="796" y="-20" on="0"/>
        <pt x="581" y="-20" on="1"/>
        <pt x="282" y="-20" on="0"/>
      </contour>
    </TTGlyph>
    <TTGlyph name="Sacute" xMin="186" yMin="-20" xMax="1321" yMax="1966">
      <contour>
        <pt x="186" y="288" on="1"/>
        <pt x="186" y="288" on="0"/>
        <pt x="366" y="366" on="1"/>
        <pt x="376" y="366" on="1"/>
        <pt x="435" y="150" on="0"/>
        <pt x="621" y="150" on="1"/>
        <pt x="750" y="150" on="0"/>
        <pt x="876" y="265" on="1"/>
        <pt x="966" y="347" on="0"/>
        <pt x="998" y="478" on="1"/>
        <pt x="1006" y="511" on="0"/>
        <pt x="1006" y="540" on="1"/>
        <pt x="1006" y="601" on="0"/>
        <pt x="973" y="646" on="1"/>
        <pt x="914" y="726" on="0"/>
        <pt x="779" y="756" on="1"/>
        <pt x="631" y="789" on="0"/>
        <pt x="539" y="868" on="1"/>
        <pt x="453" y="942" on="0"/>
        <pt x="453" y="1054" on="1"/>
        <pt x="453" y="1090" on="0"/>
        <pt x="462" y="1132" on="1"/>
        <pt x="505" y="1313" on="0"/>
        <pt x="660" y="1428" on="1"/>
        <pt x="797" y="1530" on="0"/>
        <pt x="969" y="1530" on="1"/>
        <pt x="1193" y="1530" on="0"/>
        <pt x="1265" y="1302" on="1"/>
        <pt x="1089" y="1227" on="1"/>
        <pt x="1079" y="1227" on="1"/>
        <pt x="1043" y="1360" on="0"/>
        <pt x="930" y="1360" on="1"/>
        <pt x="835" y="1360" on="0"/>
        <pt x="761" y="1299" on="1"/>
        <pt x="688" y="1239" on="0"/>
        <pt x="666" y="1147" on="1"/>
        <pt x="660" y="1122" on="0"/>
        <pt x="660" y="1101" on="1"/>
        <pt x="660" y="1052" on="0"/>
        <pt x="690" y="1021" on="1"/>
        <pt x="744" y="963" on="0"/>
        <pt x="877" y="935" on="1"/>
        <pt x="1057" y="897" on="0"/>
        <pt x="1149" y="779" on="1"/>
        <pt x="1213" y="697" on="0"/>
        <pt x="1213" y="584" on="1"/>
        <pt x="1213" y="530" on="0"/>
        <pt x="1199" y="472" on="1"/>
        <pt x="1157" y="285" on="0"/>
        <pt x="976" y="132" on="1"/>
        <pt x="796" y="-20" on="0"/>
        <pt x="581" y="-20" on="1"/>
        <pt x="282" y="-20" on="0"/>
      </contour>
      <contour>
        <pt x="1155" y="1966" on="1"/>
        <pt x="1165" y="1966" on="1"/>
        <pt x="1321" y="1882" on="1"/>
        <pt x="1028" y="1566" on="1"/>
        <pt x="1018" y="1566" on="1"/>
        <pt x="913" y="1621" on="1"/>
      </contour>
    </TTGlyph>
    <TTGlyph name="Scaron" xMin="186" yMin="-20" xMax="1288" yMax="1966">
      <contour>
        <pt x="186" y="288" on="1"/>
        <pt x="186" y="288" on="0"/>
        <pt x="366" y="366" on="1"/>
        <pt x="376" y="366" on="1"/>
        <pt x="435" y="150" on="0"/>
        <pt x="621" y="150" on="1"/>
        <pt x="750" y="150" on="0"/>
        <pt x="876" y="265" on="1"/>
        <pt x="966" y="347" on="0"/>
        <pt x="998" y="478" on="1"/>
        <pt x="1006" y="511" on="0"/>
        <pt x="1006" y="540" on="1"/>
        <pt x="1006" y="601" on="0"/>
        <pt x="973" y="646" on="1"/>
        <pt x="914" y="726" on="0"/>
        <pt x="779" y="756" on="1"/>
        <pt x="631" y="789" on="0"/>
        <pt x="539" y="868" on="1"/>
        <pt x="453" y="942" on="0"/>
        <pt x="453" y="1054" on="1"/>
        <pt x="453" y="1090" on="0"/>
        <pt x="462" y="1132" on="1"/>
        <pt x="505" y="1313" on="0"/>
        <pt x="660" y="1428" on="1"/>
        <pt x="797" y="1530" on="0"/>
        <pt x="969" y="1530" on="1"/>
        <pt x="1193" y="1530" on="0"/>
        <pt x="1265" y="1302" on="1"/>
        <pt x="1089" y="1227" on="1"/>
        <pt x="1079" y="1227" on="1"/>
        <pt x="1043" y="1360" on="0"/>
        <pt x="930" y="1360" on="1"/>
        <pt x="835" y="1360" on="0"/>
        <pt x="761" y="1299" on="1"/>
        <pt x="688" y="1239" on="0"/>
        <pt x="666" y="1147" on="1"/>
        <pt x="660" y="1122" on="0"/>
        <pt x="660" y="1101" on="1"/>
        <pt x="660" y="1052" on="0"/>
        <pt x="690" y="1021" on="1"/>
        <pt x="744" y="963" on="0"/>
        <pt x="877" y="935" on="1"/>
        <pt x="1057" y="897" on="0"/>
        <pt x="1149" y="779" on="1"/>
        <pt x="1213" y="697" on="0"/>
        <pt x="1213" y="584" on="1"/>
        <pt x="1213" y="530" on="0"/>
        <pt x="1199" y="472" on="1"/>
        <pt x="1157" y="285" on="0"/>
        <pt x="976" y="132" on="1"/>
        <pt x="796" y="-20" on="0"/>
        <pt x="581" y="-20" on="1"/>
        <pt x="282" y="-20" on="0"/>
      </contour>
      <contour>
        <pt x="870" y="1566" on="1"/>
        <pt x="736" y="1911" on="1"/>
        <pt x="865" y="1966" on="1"/>
        <pt x="875" y="1966" on="1"/>
        <pt x="977" y="1758" on="1"/>
        <pt x="1173" y="1966" on="1"/>
        <pt x="1183" y="1966" on="1"/>
        <pt x="1288" y="1911" on="1"/>
        <pt x="1075" y="1650" on="1"/>
        <pt x="880" y="1566" on="1"/>
      </contour>
    </TTGlyph>
    <TTGlyph name="Scedilla" xMin="186" yMin="-450" xMax="1265" yMax="1530">
      <contour>
        <pt x="186" y="288" on="1"/>
        <pt x="366" y="366" on="1"/>
        <pt x="376" y="366" on="1"/>
        <pt x="435" y="150" on="0"/>
        <pt x="621" y="150" on="1"/>
        <pt x="750" y="150" on="0"/>
        <pt x="876" y="265" on="1"/>
        <pt x="966" y="347" on="0"/>
        <pt x="998" y="478" on="1"/>
        <pt x="1006" y="511" on="0"/>
        <pt x="1006" y="540" on="1"/>
        <pt x="1006" y="601" on="0"/>
        <pt x="973" y="646" on="1"/>
        <pt x="914" y="726" on="0"/>
        <pt x="779" y="756" on="1"/>
        <pt x="631" y="789" on="0"/>
        <pt x="539" y="868" on="1"/>
        <pt x="453" y="942" on="0"/>
        <pt x="453" y="1054" on="1"/>
        <pt x="453" y="1090" on="0"/>
        <pt x="462" y="1132" on="1"/>
        <pt x="505" y="1313" on="0"/>
        <pt x="660" y="1428" on="1"/>
        <pt x="797" y="1530" on="0"/>
        <pt x="969" y="1530" on="1"/>
        <pt x="1193" y="1530" on="0"/>
        <pt x="1265" y="1302" on="1"/>
        <pt x="1089" y="1227" on="1"/>
        <pt x="1079" y="1227" on="1"/>
        <pt x="1043" y="1360" on="0"/>
        <pt x="930" y="1360" on="1"/>
        <pt x="835" y="1360" on="0"/>
        <pt x="761" y="1299" on="1"/>
        <pt x="688" y="1239" on="0"/>
        <pt x="666" y="1147" on="1"/>
        <pt x="660" y="1122" on="0"/>
        <pt x="660" y="1101" on="1"/>
        <pt x="660" y="1052" on="0"/>
        <pt x="690" y="1021" on="1"/>
        <pt x="744" y="963" on="0"/>
        <pt x="877" y="935" on="1"/>
        <pt x="1057" y="897" on="0"/>
        <pt x="1149" y="779" on="1"/>
        <pt x="1213" y="697" on="0"/>
        <pt x="1213" y="584" on="1"/>
        <pt x="1213" y="534" on="0"/>
        <pt x="1199" y="472" on="1"/>
        <pt x="1157" y="285" on="0"/>
        <pt x="976" y="132" on="1"/>
        <pt x="834" y="12" on="0"/>
        <pt x="670" y="-13" on="1"/>
        <pt x="706" y="-70" on="0"/>
        <pt x="706" y="-139" on="1"/>
        <pt x="706" y="-171" on="0"/>
        <pt x="698" y="-206" on="1"/>
        <pt x="667" y="-343" on="0"/>
        <pt x="533" y="-450" on="1"/>
        <pt x="523" y="-450" on="1"/>
        <pt x="354" y="-360" on="1"/>
        <pt x="512" y="-270" on="0"/>
        <pt x="536" y="-152" on="1"/>
        <pt x="540" y="-132" on="0"/>
        <pt x="540" y="-111" on="1"/>
        <pt x="540" y="-68" on="0"/>
        <pt x="520" y="-17" on="1"/>
        <pt x="272" y="12" on="0"/>
      </contour>
    </TTGlyph>
    <TTGlyph name="Scircumflex" xMin="186" yMin="-20" xMax="1265" yMax="1966">
      <contour>
        <pt x="186" y="288" on="1"/>
        <pt x="186" y="288" on="0"/>
        <pt x="366" y="366" on="1"/>
        <pt x="376" y="366" on="1"/>
        <pt x="435" y="150" on="0"/>
        <pt x="621" y="150" on="1"/>
        <pt x="750" y="150" on="0"/>
        <pt x="876" y="265" on="1"/>
        <pt x="966" y="347" on="0"/>
        <pt x="998" y="478" on="1"/>
        <pt x="1006" y="511" on="0"/>
        <pt x="1006" y="540" on="1"/>
        <pt x="1006" y="601" on="0"/>
        <pt x="973" y="646" on="1"/>
        <pt x="914" y="726" on="0"/>
        <pt x="779" y="756" on="1"/>
        <pt x="631" y="789" on="0"/>
        <pt x="539" y="868" on="1"/>
        <pt x="453" y="942" on="0"/>
        <pt x="453" y="1054" on="1"/>
        <pt x="453" y="1090" on="0"/>
        <pt x="462" y="1132" on="1"/>
        <pt x="505" y="1313" on="0"/>
        <pt x="660" y="1428" on="1"/>
        <pt x="797" y="1530" on="0"/>
        <pt x="969" y="1530" on="1"/>
        <pt x="1193" y="1530" on="0"/>
        <pt x="1265" y="1302" on="1"/>
        <pt x="1089" y="1227" on="1"/>
        <pt x="1079" y="1227" on="1"/>
        <pt x="1043" y="1360" on="0"/>
        <pt x="930" y="1360" on="1"/>
        <pt x="835" y="1360" on="0"/>
        <pt x="761" y="1299" on="1"/>
        <pt x="688" y="1239" on="0"/>
        <pt x="666" y="1147" on="1"/>
        <pt x="660" y="1122" on="0"/>
        <pt x="660" y="1101" on="1"/>
        <pt x="660" y="1052" on="0"/>
        <pt x="690" y="1021" on="1"/>
        <pt x="744" y="963" on="0"/>
        <pt x="877" y="935" on="1"/>
        <pt x="1057" y="897" on="0"/>
        <pt x="1149" y="779" on="1"/>
        <pt x="1213" y="697" on="0"/>
        <pt x="1213" y="584" on="1"/>
        <pt x="1213" y="530" on="0"/>
        <pt x="1199" y="472" on="1"/>
        <pt x="1157" y="285" on="0"/>
        <pt x="976" y="132" on="1"/>
        <pt x="796" y="-20" on="0"/>
        <pt x="581" y="-20" on="1"/>
        <pt x="282" y="-20" on="0"/>
      </contour>
      <contour>
        <pt x="704" y="1621" on="1"/>
        <pt x="917" y="1882" on="1"/>
        <pt x="1113" y="1966" on="1"/>
        <pt x="1123" y="1966" on="1"/>
        <pt x="1256" y="1621" on="1"/>
        <pt x="1128" y="1566" on="1"/>
        <pt x="1118" y="1566" on="1"/>
        <pt x="1016" y="1774" on="1"/>
        <pt x="820" y="1566" on="1"/>
        <pt x="810" y="1566" on="1"/>
      </contour>
    </TTGlyph>
    <TTGlyph name="Scommaaccent" xMin="186" yMin="-450" xMax="1265" yMax="1530">
      <contour>
        <pt x="186" y="288" on="1"/>
        <pt x="186" y="288" on="0"/>
        <pt x="366" y="366" on="1"/>
        <pt x="376" y="366" on="1"/>
        <pt x="435" y="150" on="0"/>
        <pt x="621" y="150" on="1"/>
        <pt x="750" y="150" on="0"/>
        <pt x="876" y="265" on="1"/>
        <pt x="966" y="347" on="0"/>
        <pt x="998" y="478" on="1"/>
        <pt x="1006" y="511" on="0"/>
        <pt x="1006" y="540" on="1"/>
        <pt x="1006" y="601" on="0"/>
        <pt x="973" y="646" on="1"/>
        <pt x="914" y="726" on="0"/>
        <pt x="779" y="756" on="1"/>
        <pt x="631" y="789" on="0"/>
        <pt x="539" y="868" on="1"/>
        <pt x="453" y="942" on="0"/>
        <pt x="453" y="1054" on="1"/>
        <pt x="453" y="1090" on="0"/>
        <pt x="462" y="1132" on="1"/>
        <pt x="505" y="1313" on="0"/>
        <pt x="660" y="1428" on="1"/>
        <pt x="797" y="1530" on="0"/>
        <pt x="969" y="1530" on="1"/>
        <pt x="1193" y="1530" on="0"/>
        <pt x="1265" y="1302" on="1"/>
        <pt x="1089" y="1227" on="1"/>
        <pt x="1079" y="1227" on="1"/>
        <pt x="1043" y="1360" on="0"/>
        <pt x="930" y="1360" on="1"/>
        <pt x="835" y="1360" on="0"/>
        <pt x="761" y="1299" on="1"/>
        <pt x="688" y="1239" on="0"/>
        <pt x="666" y="1147" on="1"/>
        <pt x="660" y="1122" on="0"/>
        <pt x="660" y="1101" on="1"/>
        <pt x="660" y="1052" on="0"/>
        <pt x="690" y="1021" on="1"/>
        <pt x="744" y="963" on="0"/>
        <pt x="877" y="935" on="1"/>
        <pt x="1057" y="897" on="0"/>
        <pt x="1149" y="779" on="1"/>
        <pt x="1213" y="697" on="0"/>
        <pt x="1213" y="584" on="1"/>
        <pt x="1213" y="530" on="0"/>
        <pt x="1199" y="472" on="1"/>
        <pt x="1157" y="285" on="0"/>
        <pt x="976" y="132" on="1"/>
        <pt x="796" y="-20" on="0"/>
        <pt x="581" y="-20" on="1"/>
        <pt x="282" y="-20" on="0"/>
      </contour>
      <contour>
        <pt x="397" y="-450" on="1"/>
        <pt x="387" y="-450" on="1"/>
        <pt x="231" y="-366" on="1"/>
        <pt x="524" y="-50" on="1"/>
        <pt x="534" y="-50" on="1"/>
        <pt x="639" y="-105" on="1"/>
      </contour>
    </TTGlyph>
    <TTGlyph name="Sigma" xMin="177" yMin="0" xMax="1291" yMax="1510">
      <contour>
        <pt x="343" y="0" on="1"/>
        <pt x="177" y="0" on="0"/>
        <pt x="177" y="100" on="1"/>
        <pt x="177" y="116" on="0"/>
        <pt x="181" y="134" on="1"/>
        <pt x="200" y="218" on="0"/>
        <pt x="346" y="362" on="1"/>
        <pt x="764" y="774" on="1"/>
        <pt x="558" y="1148" on="1"/>
        <pt x="495" y="1262" on="0"/>
        <pt x="495" y="1339" on="1"/>
        <pt x="495" y="1359" on="0"/>
        <pt x="499" y="1376" on="1"/>
        <pt x="531" y="1510" on="0"/>
        <pt x="723" y="1510" on="1"/>
        <pt x="1291" y="1510" on="1"/>
        <pt x="1288" y="1500" on="1"/>
        <pt x="1176" y="1340" on="1"/>
        <pt x="683" y="1340" on="1"/>
        <pt x="996" y="774" on="1"/>
        <pt x="382" y="170" on="1"/>
        <pt x="849" y="170" on="1"/>
        <pt x="967" y="170" on="0"/>
        <pt x="1024" y="287" on="1"/>
        <pt x="1034" y="287" on="1"/>
        <pt x="1168" y="216" on="1"/>
        <pt x="1058" y="0" on="0"/>
        <pt x="810" y="0" on="1"/>
      </contour>
    </TTGlyph>
    <TTGlyph name="T" xMin="304" yMin="-40" xMax="1410" yMax="1510">
      <contour>
        <pt x="424" y="-40" on="1"/>
        <pt x="743" y="1340" on="1"/>
        <pt x="622" y="1340" on="1"/>
        <pt x="503" y="1340" on="0"/>
        <pt x="447" y="1223" on="1"/>
        <pt x="437" y="1223" on="1"/>
        <pt x="304" y="1294" on="1"/>
        <pt x="413" y="1510" on="0"/>
        <pt x="662" y="1510" on="1"/>
        <pt x="1410" y="1510" on="1"/>
        <pt x="1407" y="1500" on="1"/>
        <pt x="1295" y="1340" on="1"/>
        <pt x="943" y="1340" on="1"/>
        <pt x="645" y="50" on="1"/>
        <pt x="434" y="-40" on="1"/>
      </contour>
    </TTGlyph>
    <TTGlyph name="Tbar" xMin="304" yMin="-40" xMax="1410" yMax="1510">
      <contour>
        <pt x="424" y="-40" on="1"/>
        <pt x="562" y="558" on="1"/>
        <pt x="374" y="558" on="1"/>
        <pt x="376" y="568" on="1"/>
        <pt x="488" y="728" on="1"/>
        <pt x="602" y="728" on="1"/>
        <pt x="743" y="1340" on="1"/>
        <pt x="622" y="1340" on="1"/>
        <pt x="503" y="1340" on="0"/>
        <pt x="447" y="1223" on="1"/>
        <pt x="437" y="1223" on="1"/>
        <pt x="304" y="1294" on="1"/>
        <pt x="413" y="1510" on="0"/>
        <pt x="662" y="1510" on="1"/>
        <pt x="1410" y="1510" on="1"/>
        <pt x="1407" y="1500" on="1"/>
        <pt x="1295" y="1340" on="1"/>
        <pt x="943" y="1340" on="1"/>
        <pt x="802" y="728" on="1"/>
        <pt x="989" y="728" on="1"/>
        <pt x="987" y="718" on="1"/>
        <pt x="875" y="558" on="1"/>
        <pt x="762" y="558" on="1"/>
        <pt x="645" y="50" on="1"/>
        <pt x="434" y="-40" on="1"/>
      </contour>
    </TTGlyph>
    <TTGlyph name="Tcaron" xMin="304" yMin="-40" xMax="1410" yMax="1966">
      <contour>
        <pt x="424" y="-40" on="1"/>
        <pt x="743" y="1340" on="1"/>
        <pt x="622" y="1340" on="1"/>
        <pt x="503" y="1340" on="0"/>
        <pt x="447" y="1223" on="1"/>
        <pt x="437" y="1223" on="1"/>
        <pt x="304" y="1294" on="1"/>
        <pt x="413" y="1510" on="0"/>
        <pt x="662" y="1510" on="1"/>
        <pt x="1410" y="1510" on="1"/>
        <pt x="1407" y="1500" on="1"/>
        <pt x="1295" y="1340" on="1"/>
        <pt x="943" y="1340" on="1"/>
        <pt x="645" y="50" on="1"/>
        <pt x="434" y="-40" on="1"/>
      </contour>
      <contour>
        <pt x="810" y="1566" on="1"/>
        <pt x="676" y="1911" on="1"/>
        <pt x="805" y="1966" on="1"/>
        <pt x="815" y="1966" on="1"/>
        <pt x="917" y="1758" on="1"/>
        <pt x="1113" y="1966" on="1"/>
        <pt x="1123" y="1966" on="1"/>
        <pt x="1228" y="1911" on="1"/>
        <pt x="1015" y="1650" on="1"/>
        <pt x="820" y="1566" on="1"/>
      </contour>
    </TTGlyph>
    <TTGlyph name="Tcommaaccent" xMin="304" yMin="-450" xMax="1410" yMax="1510">
      <contour>
        <pt x="424" y="-40" on="1"/>
        <pt x="743" y="1340" on="1"/>
        <pt x="622" y="1340" on="1"/>
        <pt x="503" y="1340" on="0"/>
        <pt x="447" y="1223" on="1"/>
        <pt x="437" y="1223" on="1"/>
        <pt x="304" y="1294" on="1"/>
        <pt x="413" y="1510" on="0"/>
        <pt x="662" y="1510" on="1"/>
        <pt x="1410" y="1510" on="1"/>
        <pt x="1407" y="1500" on="1"/>
        <pt x="1295" y="1340" on="1"/>
        <pt x="943" y="1340" on="1"/>
        <pt x="645" y="52" on="1"/>
        <pt x="738" y="-34" on="0"/>
        <pt x="738" y="-144" on="1"/>
        <pt x="738" y="-174" on="0"/>
        <pt x="731" y="-206" on="1"/>
        <pt x="701" y="-342" on="0"/>
        <pt x="566" y="-450" on="1"/>
        <pt x="556" y="-450" on="1"/>
        <pt x="387" y="-360" on="1"/>
        <pt x="540" y="-274" on="0"/>
        <pt x="569" y="-152" on="1"/>
        <pt x="574" y="-131" on="0"/>
        <pt x="574" y="-110" on="1"/>
        <pt x="573" y="-53" on="0"/>
        <pt x="542" y="6" on="1"/>
        <pt x="434" y="-40" on="1"/>
      </contour>
    </TTGlyph>
    <TTGlyph name="Thorn" xMin="191" yMin="-40" xMax="1476" yMax="1550">
      <contour>
        <pt x="191" y="-40" on="1"/>
        <pt x="537" y="1460" on="1"/>
        <pt x="748" y="1550" on="1"/>
        <pt x="758" y="1550" on="1"/>
        <pt x="671" y="1173" on="1"/>
        <pt x="855" y="1333" on="0"/>
        <pt x="1070" y="1333" on="1"/>
        <pt x="1318" y="1333" on="0"/>
        <pt x="1420" y="1149" on="1"/>
        <pt x="1476" y="1048" on="0"/>
        <pt x="1476" y="932" on="1"/>
        <pt x="1476" y="872" on="0"/>
        <pt x="1461" y="808" on="1"/>
        <pt x="1421" y="637" on="0"/>
        <pt x="1265" y="487" on="1"/>
        <pt x="1073" y="303" on="0"/>
        <pt x="782" y="303" on="1"/>
        <pt x="589" y="303" on="1"/>
        <pt x="591" y="313" on="1"/>
        <pt x="703" y="473" on="1"/>
        <pt x="821" y="473" on="1"/>
        <pt x="1008" y="473" on="0"/>
        <pt x="1111" y="565" on="1"/>
        <pt x="1231" y="672" on="0"/>
        <pt x="1261" y="808" on="1"/>
        <pt x="1273" y="862" on="0"/>
        <pt x="1273" y="910" on="1"/>
        <pt x="1273" y="1002" on="0"/>
        <pt x="1225" y="1070" on="1"/>
        <pt x="1158" y="1163" on="0"/>
        <pt x="1030" y="1163" on="1"/>
        <pt x="845" y="1163" on="0"/>
        <pt x="687" y="947" on="1"/>
        <pt x="587" y="810" on="0"/>
        <pt x="529" y="558" on="1"/>
        <pt x="412" y="50" on="1"/>
        <pt x="201" y="-40" on="1"/>
      </contour>
    </TTGlyph>
    <TTGlyph name="U" xMin="287" yMin="-20" xMax="1632" yMax="1550">
      <contour>
        <pt x="1632" y="1550" on="1"/>
        <pt x="1448" y="755" on="1"/>
        <pt x="1381" y="466" on="0"/>
        <pt x="1244" y="288" on="1"/>
        <pt x="1006" y="-20" on="0"/>
        <pt x="408" y="-20" on="0"/>
        <pt x="312" y="288" on="1"/>
        <pt x="287" y="368" on="0"/>
        <pt x="287" y="471" on="1"/>
        <pt x="287" y="597" on="0"/>
        <pt x="324" y="755" on="1"/>
        <pt x="393" y="1051" on="0"/>
        <pt x="527" y="1198" on="1"/>
        <pt x="611" y="1290" on="0"/>
        <pt x="693" y="1340" on="1"/>
        <pt x="409" y="1340" on="1"/>
        <pt x="412" y="1350" on="1"/>
        <pt x="524" y="1510" on="1"/>
        <pt x="1077" y="1510" on="1"/>
        <pt x="1074" y="1500" on="1"/>
        <pt x="962" y="1340" on="1"/>
        <pt x="816" y="1294" on="0"/>
        <pt x="704" y="1152" on="1"/>
        <pt x="578" y="993" on="0"/>
        <pt x="524" y="755" on="1"/>
        <pt x="488" y="597" on="0"/>
        <pt x="488" y="486" on="1"/>
        <pt x="488" y="416" on="0"/>
        <pt x="502" y="366" on="1"/>
        <pt x="562" y="150" on="0"/>
        <pt x="747" y="150" on="1"/>
        <pt x="931" y="150" on="0"/>
        <pt x="1090" y="366" on="1"/>
        <pt x="1190" y="502" on="0"/>
        <pt x="1248" y="755" on="1"/>
        <pt x="1411" y="1460" on="1"/>
        <pt x="1622" y="1550" on="1"/>
      </contour>
    </TTGlyph>
    <TTGlyph name="Uacute" xMin="287" yMin="-20" xMax="1632" yMax="1966">
      <contour>
        <pt x="1632" y="1550" on="1"/>
        <pt x="1448" y="755" on="1"/>
        <pt x="1381" y="466" on="0"/>
        <pt x="1244" y="288" on="1"/>
        <pt x="1006" y="-20" on="0"/>
        <pt x="408" y="-20" on="0"/>
        <pt x="312" y="288" on="1"/>
        <pt x="287" y="368" on="0"/>
        <pt x="287" y="471" on="1"/>
        <pt x="287" y="597" on="0"/>
        <pt x="324" y="755" on="1"/>
        <pt x="393" y="1051" on="0"/>
        <pt x="527" y="1198" on="1"/>
        <pt x="611" y="1290" on="0"/>
        <pt x="693" y="1340" on="1"/>
        <pt x="409" y="1340" on="1"/>
        <pt x="412" y="1350" on="1"/>
        <pt x="524" y="1510" on="1"/>
        <pt x="1077" y="1510" on="1"/>
        <pt x="1074" y="1500" on="1"/>
        <pt x="962" y="1340" on="1"/>
        <pt x="816" y="1294" on="0"/>
        <pt x="704" y="1152" on="1"/>
        <pt x="578" y="993" on="0"/>
        <pt x="524" y="755" on="1"/>
        <pt x="488" y="597" on="0"/>
        <pt x="488" y="486" on="1"/>
        <pt x="488" y="416" on="0"/>
        <pt x="502" y="366" on="1"/>
        <pt x="562" y="150" on="0"/>
        <pt x="747" y="150" on="1"/>
        <pt x="931" y="150" on="0"/>
        <pt x="1090" y="366" on="1"/>
        <pt x="1190" y="502" on="0"/>
        <pt x="1248" y="755" on="1"/>
        <pt x="1411" y="1460" on="1"/>
        <pt x="1622" y="1550" on="1"/>
      </contour>
      <contour>
        <pt x="1371" y="1966" on="1"/>
        <pt x="1381" y="1966" on="1"/>
        <pt x="1537" y="1882" on="1"/>
        <pt x="1244" y="1566" on="1"/>
        <pt x="1234" y="1566" on="1"/>
        <pt x="1129" y="1621" on="1"/>
      </contour>
    </TTGlyph>
    <TTGlyph name="Ubreve" xMin="287" yMin="-20" xMax="1632" yMax="1947">
      <contour>
        <pt x="1632" y="1550" on="1"/>
        <pt x="1448" y="755" on="1"/>
        <pt x="1381" y="466" on="0"/>
        <pt x="1244" y="288" on="1"/>
        <pt x="1006" y="-20" on="0"/>
        <pt x="408" y="-20" on="0"/>
        <pt x="312" y="288" on="1"/>
        <pt x="287" y="368" on="0"/>
        <pt x="287" y="471" on="1"/>
        <pt x="287" y="597" on="0"/>
        <pt x="324" y="755" on="1"/>
        <pt x="393" y="1051" on="0"/>
        <pt x="527" y="1198" on="1"/>
        <pt x="611" y="1290" on="0"/>
        <pt x="693" y="1340" on="1"/>
        <pt x="409" y="1340" on="1"/>
        <pt x="412" y="1350" on="1"/>
        <pt x="524" y="1510" on="1"/>
        <pt x="1077" y="1510" on="1"/>
        <pt x="1074" y="1500" on="1"/>
        <pt x="962" y="1340" on="1"/>
        <pt x="816" y="1294" on="0"/>
        <pt x="704" y="1152" on="1"/>
        <pt x="578" y="993" on="0"/>
        <pt x="524" y="755" on="1"/>
        <pt x="488" y="597" on="0"/>
        <pt x="488" y="486" on="1"/>
        <pt x="488" y="416" on="0"/>
        <pt x="502" y="366" on="1"/>
        <pt x="562" y="150" on="0"/>
        <pt x="747" y="150" on="1"/>
        <pt x="931" y="150" on="0"/>
        <pt x="1090" y="366" on="1"/>
        <pt x="1190" y="502" on="0"/>
        <pt x="1248" y="755" on="1"/>
        <pt x="1411" y="1460" on="1"/>
        <pt x="1622" y="1550" on="1"/>
      </contour>
      <contour>
        <pt x="981" y="1788" on="1"/>
        <pt x="983" y="1798" on="1"/>
        <pt x="1092" y="1947" on="1"/>
        <pt x="1133" y="1813" on="0"/>
        <pt x="1333" y="1813" on="0"/>
        <pt x="1436" y="1947" on="1"/>
        <pt x="1477" y="1798" on="1"/>
        <pt x="1475" y="1788" on="1"/>
        <pt x="1338" y="1638" on="0"/>
        <pt x="1190" y="1638" on="1"/>
        <pt x="1036" y="1638" on="0"/>
      </contour>
    </TTGlyph>
    <TTGlyph name="Ucircumflex" xMin="287" yMin="-20" xMax="1632" yMax="1966">
      <contour>
        <pt x="1632" y="1550" on="1"/>
        <pt x="1448" y="755" on="1"/>
        <pt x="1381" y="466" on="0"/>
        <pt x="1244" y="288" on="1"/>
        <pt x="1006" y="-20" on="0"/>
        <pt x="408" y="-20" on="0"/>
        <pt x="312" y="288" on="1"/>
        <pt x="287" y="368" on="0"/>
        <pt x="287" y="471" on="1"/>
        <pt x="287" y="597" on="0"/>
        <pt x="324" y="755" on="1"/>
        <pt x="393" y="1051" on="0"/>
        <pt x="527" y="1198" on="1"/>
        <pt x="611" y="1290" on="0"/>
        <pt x="693" y="1340" on="1"/>
        <pt x="409" y="1340" on="1"/>
        <pt x="412" y="1350" on="1"/>
        <pt x="524" y="1510" on="1"/>
        <pt x="1077" y="1510" on="1"/>
        <pt x="1074" y="1500" on="1"/>
        <pt x="962" y="1340" on="1"/>
        <pt x="816" y="1294" on="0"/>
        <pt x="704" y="1152" on="1"/>
        <pt x="578" y="993" on="0"/>
        <pt x="524" y="755" on="1"/>
        <pt x="488" y="597" on="0"/>
        <pt x="488" y="486" on="1"/>
        <pt x="488" y="416" on="0"/>
        <pt x="502" y="366" on="1"/>
        <pt x="562" y="150" on="0"/>
        <pt x="747" y="150" on="1"/>
        <pt x="931" y="150" on="0"/>
        <pt x="1090" y="366" on="1"/>
        <pt x="1190" y="502" on="0"/>
        <pt x="1248" y="755" on="1"/>
        <pt x="1411" y="1460" on="1"/>
        <pt x="1622" y="1550" on="1"/>
      </contour>
      <contour>
        <pt x="908" y="1621" on="1"/>
        <pt x="1121" y="1882" on="1"/>
        <pt x="1317" y="1966" on="1"/>
        <pt x="1327" y="1966" on="1"/>
        <pt x="1460" y="1621" on="1"/>
        <pt x="1332" y="1566" on="1"/>
        <pt x="1322" y="1566" on="1"/>
        <pt x="1220" y="1774" on="1"/>
        <pt x="1024" y="1566" on="1"/>
        <pt x="1014" y="1566" on="1"/>
      </contour>
    </TTGlyph>
    <TTGlyph name="Udieresis" xMin="287" yMin="-20" xMax="1632" yMax="1925">
      <contour>
        <pt x="1632" y="1550" on="1"/>
        <pt x="1448" y="755" on="1"/>
        <pt x="1381" y="466" on="0"/>
        <pt x="1244" y="288" on="1"/>
        <pt x="1006" y="-20" on="0"/>
        <pt x="408" y="-20" on="0"/>
        <pt x="312" y="288" on="1"/>
        <pt x="287" y="368" on="0"/>
        <pt x="287" y="471" on="1"/>
        <pt x="287" y="597" on="0"/>
        <pt x="324" y="755" on="1"/>
        <pt x="393" y="1051" on="0"/>
        <pt x="527" y="1198" on="1"/>
        <pt x="611" y="1290" on="0"/>
        <pt x="693" y="1340" on="1"/>
        <pt x="409" y="1340" on="1"/>
        <pt x="412" y="1350" on="1"/>
        <pt x="524" y="1510" on="1"/>
        <pt x="1077" y="1510" on="1"/>
        <pt x="1074" y="1500" on="1"/>
        <pt x="962" y="1340" on="1"/>
        <pt x="816" y="1294" on="0"/>
        <pt x="704" y="1152" on="1"/>
        <pt x="578" y="993" on="0"/>
        <pt x="524" y="755" on="1"/>
        <pt x="488" y="597" on="0"/>
        <pt x="488" y="486" on="1"/>
        <pt x="488" y="416" on="0"/>
        <pt x="502" y="366" on="1"/>
        <pt x="562" y="150" on="0"/>
        <pt x="747" y="150" on="1"/>
        <pt x="931" y="150" on="0"/>
        <pt x="1090" y="366" on="1"/>
        <pt x="1190" y="502" on="0"/>
        <pt x="1248" y="755" on="1"/>
        <pt x="1411" y="1460" on="1"/>
        <pt x="1622" y="1550" on="1"/>
      </contour>
      <contour>
        <pt x="1249" y="1802" on="1"/>
        <pt x="1261" y="1853" on="0"/>
        <pt x="1347" y="1925" on="0"/>
        <pt x="1449" y="1925" on="0"/>
        <pt x="1475" y="1889" on="1"/>
        <pt x="1494" y="1863" on="0"/>
        <pt x="1494" y="1832" on="1"/>
        <pt x="1494" y="1820" on="0"/>
        <pt x="1490" y="1802" on="1"/>
        <pt x="1475" y="1749" on="0"/>
        <pt x="1435" y="1716" on="1"/>
        <pt x="1391" y="1680" on="0"/>
        <pt x="1340" y="1680" on="1"/>
        <pt x="1290" y="1680" on="0"/>
        <pt x="1263" y="1717" on="1"/>
        <pt x="1245" y="1741" on="0"/>
        <pt x="1245" y="1770" on="1"/>
        <pt x="1245" y="1784" on="0"/>
      </contour>
      <contour>
        <pt x="948" y="1802" on="1"/>
        <pt x="960" y="1853" on="0"/>
        <pt x="1046" y="1925" on="0"/>
        <pt x="1148" y="1925" on="0"/>
        <pt x="1174" y="1889" on="1"/>
        <pt x="1193" y="1863" on="0"/>
        <pt x="1193" y="1832" on="1"/>
        <pt x="1193" y="1820" on="0"/>
        <pt x="1189" y="1802" on="1"/>
        <pt x="1174" y="1749" on="0"/>
        <pt x="1134" y="1716" on="1"/>
        <pt x="1090" y="1680" on="0"/>
        <pt x="1039" y="1680" on="1"/>
        <pt x="989" y="1680" on="0"/>
        <pt x="962" y="1717" on="1"/>
        <pt x="944" y="1741" on="0"/>
        <pt x="944" y="1770" on="1"/>
        <pt x="944" y="1784" on="0"/>
      </contour>
    </TTGlyph>
    <TTGlyph name="Ugrave" xMin="287" yMin="-20" xMax="1632" yMax="1966">
      <contour>
        <pt x="1632" y="1550" on="1"/>
        <pt x="1448" y="755" on="1"/>
        <pt x="1381" y="466" on="0"/>
        <pt x="1244" y="288" on="1"/>
        <pt x="1006" y="-20" on="0"/>
        <pt x="408" y="-20" on="0"/>
        <pt x="312" y="288" on="1"/>
        <pt x="287" y="368" on="0"/>
        <pt x="287" y="471" on="1"/>
        <pt x="287" y="597" on="0"/>
        <pt x="324" y="755" on="1"/>
        <pt x="393" y="1051" on="0"/>
        <pt x="527" y="1198" on="1"/>
        <pt x="611" y="1290" on="0"/>
        <pt x="693" y="1340" on="1"/>
        <pt x="409" y="1340" on="1"/>
        <pt x="412" y="1350" on="1"/>
        <pt x="524" y="1510" on="1"/>
        <pt x="1077" y="1510" on="1"/>
        <pt x="1074" y="1500" on="1"/>
        <pt x="962" y="1340" on="1"/>
        <pt x="816" y="1294" on="0"/>
        <pt x="704" y="1152" on="1"/>
        <pt x="578" y="993" on="0"/>
        <pt x="524" y="755" on="1"/>
        <pt x="488" y="597" on="0"/>
        <pt x="488" y="486" on="1"/>
        <pt x="488" y="416" on="0"/>
        <pt x="502" y="366" on="1"/>
        <pt x="562" y="150" on="0"/>
        <pt x="747" y="150" on="1"/>
        <pt x="931" y="150" on="0"/>
        <pt x="1090" y="366" on="1"/>
        <pt x="1190" y="502" on="0"/>
        <pt x="1248" y="755" on="1"/>
        <pt x="1411" y="1460" on="1"/>
        <pt x="1622" y="1550" on="1"/>
      </contour>
      <contour>
        <pt x="1150" y="1966" on="1"/>
        <pt x="1160" y="1966" on="1"/>
        <pt x="1242" y="1621" on="1"/>
        <pt x="1113" y="1566" on="1"/>
        <pt x="1103" y="1566" on="1"/>
        <pt x="954" y="1882" on="1"/>
      </contour>
    </TTGlyph>
    <TTGlyph name="Uhungarumlaut" xMin="287" yMin="-20" xMax="1653" yMax="1966">
      <contour>
        <pt x="1632" y="1550" on="1"/>
        <pt x="1448" y="755" on="1"/>
        <pt x="1381" y="466" on="0"/>
        <pt x="1244" y="288" on="1"/>
        <pt x="1006" y="-20" on="0"/>
        <pt x="408" y="-20" on="0"/>
        <pt x="312" y="288" on="1"/>
        <pt x="287" y="368" on="0"/>
        <pt x="287" y="471" on="1"/>
        <pt x="287" y="597" on="0"/>
        <pt x="324" y="755" on="1"/>
        <pt x="393" y="1051" on="0"/>
        <pt x="527" y="1198" on="1"/>
        <pt x="611" y="1290" on="0"/>
        <pt x="693" y="1340" on="1"/>
        <pt x="409" y="1340" on="1"/>
        <pt x="412" y="1350" on="1"/>
        <pt x="524" y="1510" on="1"/>
        <pt x="1077" y="1510" on="1"/>
        <pt x="1074" y="1500" on="1"/>
        <pt x="962" y="1340" on="1"/>
        <pt x="816" y="1294" on="0"/>
        <pt x="704" y="1152" on="1"/>
        <pt x="578" y="993" on="0"/>
        <pt x="524" y="755" on="1"/>
        <pt x="488" y="597" on="0"/>
        <pt x="488" y="486" on="1"/>
        <pt x="488" y="416" on="0"/>
        <pt x="502" y="366" on="1"/>
        <pt x="562" y="150" on="0"/>
        <pt x="747" y="150" on="1"/>
        <pt x="931" y="150" on="0"/>
        <pt x="1090" y="366" on="1"/>
        <pt x="1190" y="502" on="0"/>
        <pt x="1248" y="755" on="1"/>
        <pt x="1411" y="1460" on="1"/>
        <pt x="1622" y="1550" on="1"/>
      </contour>
      <contour>
        <pt x="1487" y="1966" on="1"/>
        <pt x="1497" y="1966" on="1"/>
        <pt x="1653" y="1882" on="1"/>
        <pt x="1360" y="1566" on="1"/>
        <pt x="1350" y="1566" on="1"/>
        <pt x="1245" y="1621" on="1"/>
      </contour>
      <contour>
        <pt x="1210" y="1966" on="1"/>
        <pt x="1220" y="1966" on="1"/>
        <pt x="1376" y="1882" on="1"/>
        <pt x="1083" y="1566" on="1"/>
        <pt x="1073" y="1566" on="1"/>
        <pt x="968" y="1621" on="1"/>
      </contour>
    </TTGlyph>
</ttFont>
